<svg width="985" height="207" viewBox="0 0 985 207" fill="none" xmlns="http://www.w3.org/2000/svg">
<rect x="1" y="1" width="983" height="205" rx="68" fill="#0B0C0C" stroke="#1A1C1F" stroke-width="2"/>
<path d="M172.402 108V80.3636H178.151V90.7543H178.326C178.578 90.1965 178.942 89.6297 179.419 89.054C179.905 88.4692 180.535 87.9834 181.308 87.5966C182.091 87.2008 183.063 87.0028 184.223 87.0028C185.734 87.0028 187.129 87.3987 188.406 88.1903C189.684 88.973 190.705 90.156 191.469 91.7393C192.234 93.3137 192.616 95.2884 192.616 97.6634C192.616 99.9754 192.243 101.928 191.496 103.52C190.759 105.103 189.751 106.304 188.474 107.123C187.205 107.933 185.784 108.337 184.21 108.337C183.094 108.337 182.145 108.153 181.362 107.784C180.589 107.415 179.954 106.952 179.46 106.394C178.965 105.827 178.587 105.256 178.326 104.68H178.07V108H172.402ZM178.029 97.6364C178.029 98.8688 178.2 99.9439 178.542 100.862C178.884 101.779 179.379 102.494 180.026 103.007C180.674 103.511 181.461 103.763 182.388 103.763C183.323 103.763 184.115 103.506 184.763 102.994C185.411 102.472 185.901 101.752 186.234 100.835C186.576 99.9079 186.746 98.8419 186.746 97.6364C186.746 96.4399 186.58 95.3873 186.247 94.4787C185.914 93.5701 185.424 92.8594 184.776 92.3466C184.129 91.8338 183.332 91.5774 182.388 91.5774C181.452 91.5774 180.661 91.8248 180.013 92.3196C179.374 92.8144 178.884 93.5161 178.542 94.4247C178.2 95.3333 178.029 96.4039 178.029 97.6364ZM202.961 80.3636V108H197.212V80.3636H202.961ZM217.691 108.405C215.595 108.405 213.782 107.96 212.253 107.069C210.732 106.169 209.558 104.919 208.731 103.317C207.903 101.707 207.489 99.8404 207.489 97.7173C207.489 95.5762 207.903 93.705 208.731 92.1037C209.558 90.4934 210.732 89.2429 212.253 88.3523C213.782 87.4527 215.595 87.0028 217.691 87.0028C219.787 87.0028 221.595 87.4527 223.116 88.3523C224.645 89.2429 225.823 90.4934 226.651 92.1037C227.479 93.705 227.893 95.5762 227.893 97.7173C227.893 99.8404 227.479 101.707 226.651 103.317C225.823 104.919 224.645 106.169 223.116 107.069C221.595 107.96 219.787 108.405 217.691 108.405ZM217.718 103.952C218.671 103.952 219.468 103.682 220.106 103.142C220.745 102.593 221.226 101.847 221.55 100.902C221.883 99.9574 222.049 98.8823 222.049 97.6768C222.049 96.4714 221.883 95.3963 221.55 94.4517C221.226 93.5071 220.745 92.7604 220.106 92.2116C219.468 91.6629 218.671 91.3885 217.718 91.3885C216.755 91.3885 215.946 91.6629 215.289 92.2116C214.641 92.7604 214.151 93.5071 213.818 94.4517C213.494 95.3963 213.332 96.4714 213.332 97.6768C213.332 98.8823 213.494 99.9574 213.818 100.902C214.151 101.847 214.641 102.593 215.289 103.142C215.946 103.682 216.755 103.952 217.718 103.952ZM241.755 108.405C239.632 108.405 237.806 107.955 236.277 107.055C234.756 106.147 233.587 104.887 232.768 103.277C231.959 101.667 231.554 99.8134 231.554 97.7173C231.554 95.5942 231.963 93.732 232.782 92.1307C233.609 90.5204 234.783 89.2654 236.304 88.3658C237.824 87.4571 239.632 87.0028 241.729 87.0028C243.537 87.0028 245.12 87.3312 246.479 87.9879C247.837 88.6446 248.912 89.5668 249.704 90.7543C250.495 91.9418 250.932 93.3362 251.013 94.9375H245.588C245.435 93.9029 245.03 93.0708 244.373 92.4411C243.726 91.8023 242.876 91.483 241.823 91.483C240.932 91.483 240.154 91.7259 239.488 92.2116C238.832 92.6884 238.319 93.3857 237.95 94.3033C237.581 95.2209 237.397 96.3319 237.397 97.6364C237.397 98.9588 237.577 100.083 237.937 101.01C238.305 101.937 238.823 102.643 239.488 103.129C240.154 103.614 240.932 103.857 241.823 103.857C242.48 103.857 243.069 103.722 243.591 103.452C244.122 103.183 244.558 102.791 244.9 102.278C245.251 101.757 245.48 101.131 245.588 100.403H251.013C250.923 101.986 250.491 103.38 249.717 104.586C248.952 105.782 247.895 106.718 246.546 107.393C245.197 108.067 243.6 108.405 241.755 108.405ZM260.662 102.036L260.675 95.1399H261.512L268.151 87.2727H274.75L265.83 97.6903H264.467L260.662 102.036ZM255.453 108V80.3636H261.202V108H255.453ZM268.408 108L262.308 98.9723L266.141 94.9105L275.141 108H268.408ZM291.174 115.773V104.68H290.998C290.728 105.256 290.346 105.827 289.851 106.394C289.365 106.952 288.731 107.415 287.948 107.784C287.175 108.153 286.23 108.337 285.115 108.337C283.54 108.337 282.114 107.933 280.837 107.123C279.568 106.304 278.561 105.103 277.814 103.52C277.077 101.928 276.708 99.9754 276.708 97.6634C276.708 95.2884 277.09 93.3137 277.855 91.7393C278.619 90.156 279.636 88.973 280.904 88.1903C282.182 87.3987 283.581 87.0028 285.101 87.0028C286.262 87.0028 287.229 87.2008 288.002 87.5966C288.785 87.9834 289.415 88.4692 289.892 89.054C290.377 89.6297 290.746 90.1965 290.998 90.7543H291.241V87.2727H296.909V115.773H291.174ZM286.936 103.763C287.863 103.763 288.646 103.511 289.284 103.007C289.932 102.494 290.427 101.779 290.769 100.862C291.12 99.9439 291.295 98.8688 291.295 97.6364C291.295 96.4039 291.124 95.3333 290.782 94.4247C290.44 93.5161 289.946 92.8144 289.298 92.3196C288.65 91.8248 287.863 91.5774 286.936 91.5774C285.992 91.5774 285.196 91.8338 284.548 92.3466C283.9 92.8594 283.41 93.5701 283.077 94.4787C282.744 95.3873 282.578 96.4399 282.578 97.6364C282.578 98.8419 282.744 99.9079 283.077 100.835C283.419 101.752 283.909 102.472 284.548 102.994C285.196 103.506 285.992 103.763 286.936 103.763ZM315.576 99.1747V87.2727H321.324V108H315.805V104.235H315.589C315.121 105.45 314.343 106.426 313.255 107.163C312.175 107.901 310.857 108.27 309.301 108.27C307.915 108.27 306.696 107.955 305.644 107.325C304.591 106.696 303.768 105.8 303.174 104.64C302.59 103.479 302.293 102.089 302.284 100.47V87.2727H308.032V99.4446C308.041 100.668 308.37 101.635 309.017 102.346C309.665 103.057 310.533 103.412 311.622 103.412C312.314 103.412 312.962 103.254 313.565 102.94C314.168 102.616 314.654 102.139 315.022 101.509C315.4 100.879 315.585 100.101 315.576 99.1747ZM336.047 108.405C333.951 108.405 332.139 107.96 330.609 107.069C329.089 106.169 327.915 104.919 327.087 103.317C326.26 101.707 325.846 99.8404 325.846 97.7173C325.846 95.5762 326.26 93.705 327.087 92.1037C327.915 90.4934 329.089 89.2429 330.609 88.3523C332.139 87.4527 333.951 87.0028 336.047 87.0028C338.144 87.0028 339.952 87.4527 341.472 88.3523C343.002 89.2429 344.18 90.4934 345.008 92.1037C345.835 93.705 346.249 95.5762 346.249 97.7173C346.249 99.8404 345.835 101.707 345.008 103.317C344.18 104.919 343.002 106.169 341.472 107.069C339.952 107.96 338.144 108.405 336.047 108.405ZM336.074 103.952C337.028 103.952 337.824 103.682 338.463 103.142C339.102 102.593 339.583 101.847 339.907 100.902C340.24 99.9574 340.406 98.8823 340.406 97.6768C340.406 96.4714 340.24 95.3963 339.907 94.4517C339.583 93.5071 339.102 92.7604 338.463 92.2116C337.824 91.6629 337.028 91.3885 336.074 91.3885C335.112 91.3885 334.302 91.6629 333.645 92.2116C332.998 92.7604 332.507 93.5071 332.175 94.4517C331.851 95.3963 331.689 96.4714 331.689 97.6768C331.689 98.8823 331.851 99.9574 332.175 100.902C332.507 101.847 332.998 102.593 333.645 103.142C334.302 103.682 335.112 103.952 336.074 103.952ZM361.772 87.2727V91.5909H349.29V87.2727H361.772ZM352.124 82.3068H357.872V101.631C357.872 102.161 357.953 102.575 358.115 102.872C358.277 103.16 358.502 103.362 358.79 103.479C359.087 103.596 359.428 103.655 359.815 103.655C360.085 103.655 360.355 103.632 360.625 103.587C360.895 103.533 361.102 103.493 361.246 103.466L362.15 107.744C361.862 107.834 361.457 107.937 360.935 108.054C360.414 108.18 359.779 108.256 359.033 108.283C357.647 108.337 356.433 108.153 355.389 107.73C354.355 107.307 353.549 106.651 352.974 105.76C352.398 104.869 352.115 103.745 352.124 102.386V82.3068ZM375.5 108.405C373.368 108.405 371.533 107.973 369.994 107.109C368.465 106.237 367.286 105.004 366.459 103.412C365.631 101.811 365.217 99.9169 365.217 97.7308C365.217 95.5987 365.631 93.7275 366.459 92.1172C367.286 90.5069 368.451 89.2519 369.954 88.3523C371.465 87.4527 373.237 87.0028 375.271 87.0028C376.638 87.0028 377.911 87.2232 379.089 87.6641C380.277 88.0959 381.312 88.7481 382.193 89.6207C383.084 90.4934 383.776 91.5909 384.271 92.9134C384.766 94.2268 385.013 95.7652 385.013 97.5284V99.1072H367.511V95.5447H379.602C379.602 94.7171 379.422 93.9839 379.062 93.3452C378.703 92.7064 378.203 92.2071 377.565 91.8473C376.935 91.4785 376.202 91.294 375.365 91.294C374.492 91.294 373.719 91.4964 373.044 91.9013C372.378 92.2971 371.857 92.8324 371.479 93.5071C371.101 94.1728 370.907 94.915 370.898 95.7337V99.1207C370.898 100.146 371.087 101.032 371.465 101.779C371.852 102.526 372.396 103.102 373.098 103.506C373.8 103.911 374.632 104.114 375.594 104.114C376.233 104.114 376.818 104.024 377.349 103.844C377.879 103.664 378.334 103.394 378.712 103.034C379.089 102.674 379.377 102.233 379.575 101.712L384.892 102.062C384.622 103.34 384.069 104.455 383.232 105.409C382.405 106.354 381.334 107.091 380.021 107.622C378.716 108.144 377.209 108.405 375.5 108.405Z" fill="white"/>
</svg>
