<svg width="985" height="207" viewBox="0 0 985 207" fill="none" xmlns="http://www.w3.org/2000/svg">
<rect x="1" y="1" width="983" height="205" rx="68" fill="#0B0C0C" stroke="#1A1C1F" stroke-width="2"/>
<path d="M72.7812 119V87H85.5937C87.9479 87 89.9115 87.349 91.4844 88.0469C93.0573 88.7448 94.2396 89.7135 95.0313 90.9531C95.8229 92.1823 96.2188 93.599 96.2188 95.2031C96.2188 96.4531 95.9688 97.5521 95.4688 98.5C94.9688 99.4375 94.2813 100.208 93.4063 100.812C92.5417 101.406 91.5521 101.828 90.4375 102.078V102.391C91.6563 102.443 92.7969 102.786 93.8594 103.422C94.9323 104.057 95.8021 104.948 96.4688 106.094C97.1354 107.229 97.4688 108.583 97.4688 110.156C97.4688 111.854 97.0469 113.37 96.2031 114.703C95.3698 116.026 94.1354 117.073 92.5 117.844C90.8646 118.615 88.849 119 86.4531 119H72.7812ZM79.5469 113.469H85.0625C86.9479 113.469 88.3229 113.109 89.1875 112.391C90.0521 111.661 90.4844 110.693 90.4844 109.484C90.4844 108.599 90.2708 107.818 89.8438 107.141C89.4167 106.464 88.8073 105.932 88.0156 105.547C87.2344 105.161 86.3021 104.969 85.2188 104.969H79.5469V113.469ZM79.5469 100.391H84.5625C85.4896 100.391 86.3125 100.229 87.0313 99.9062C87.7604 99.5729 88.3333 99.1042 88.75 98.5C89.1771 97.8958 89.3906 97.1719 89.3906 96.3281C89.3906 95.1719 88.9792 94.2396 88.1563 93.5312C87.3438 92.8229 86.1875 92.4687 84.6875 92.4687H79.5469V100.391ZM113.47 119.469C111.043 119.469 108.944 118.953 107.173 117.922C105.413 116.88 104.053 115.432 103.095 113.578C102.137 111.714 101.657 109.552 101.657 107.094C101.657 104.615 102.137 102.448 103.095 100.594C104.053 98.7292 105.413 97.2812 107.173 96.25C108.944 95.2083 111.043 94.6875 113.47 94.6875C115.897 94.6875 117.991 95.2083 119.751 96.25C121.522 97.2812 122.887 98.7292 123.845 100.594C124.803 102.448 125.282 104.615 125.282 107.094C125.282 109.552 124.803 111.714 123.845 113.578C122.887 115.432 121.522 116.88 119.751 117.922C117.991 118.953 115.897 119.469 113.47 119.469ZM113.501 114.312C114.605 114.312 115.527 114 116.267 113.375C117.006 112.74 117.564 111.875 117.939 110.781C118.324 109.687 118.517 108.443 118.517 107.047C118.517 105.651 118.324 104.406 117.939 103.312C117.564 102.219 117.006 101.354 116.267 100.719C115.527 100.083 114.605 99.7656 113.501 99.7656C112.387 99.7656 111.449 100.083 110.689 100.719C109.939 101.354 109.371 102.219 108.985 103.312C108.61 104.406 108.423 105.651 108.423 107.047C108.423 108.443 108.61 109.687 108.985 110.781C109.371 111.875 109.939 112.74 110.689 113.375C111.449 114 112.387 114.312 113.501 114.312ZM137.147 87V119H130.49V87H137.147ZM152.203 119.391C150.38 119.391 148.729 118.922 147.249 117.984C145.781 117.036 144.614 115.646 143.749 113.812C142.895 111.969 142.468 109.708 142.468 107.031C142.468 104.281 142.911 101.995 143.796 100.172C144.682 98.3385 145.859 96.9687 147.327 96.0625C148.807 95.1458 150.426 94.6875 152.187 94.6875C153.531 94.6875 154.65 94.9167 155.546 95.375C156.452 95.8229 157.182 96.3854 157.734 97.0625C158.296 97.7292 158.723 98.3854 159.015 99.0312H159.218V87H165.859V119H159.296V115.156H159.015C158.702 115.823 158.26 116.484 157.687 117.141C157.124 117.786 156.39 118.323 155.484 118.75C154.588 119.177 153.494 119.391 152.203 119.391ZM154.312 114.094C155.385 114.094 156.291 113.802 157.031 113.219C157.781 112.625 158.354 111.797 158.749 110.734C159.156 109.672 159.359 108.427 159.359 107C159.359 105.573 159.161 104.333 158.765 103.281C158.369 102.229 157.796 101.417 157.046 100.844C156.296 100.271 155.385 99.9844 154.312 99.9844C153.218 99.9844 152.296 100.281 151.546 100.875C150.796 101.469 150.229 102.292 149.843 103.344C149.458 104.396 149.265 105.615 149.265 107C149.265 108.396 149.458 109.63 149.843 110.703C150.239 111.766 150.807 112.599 151.546 113.203C152.296 113.797 153.218 114.094 154.312 114.094ZM196.041 95V100H181.588V95H196.041ZM184.869 89.25H191.525V111.625C191.525 112.24 191.619 112.719 191.806 113.062C191.994 113.396 192.254 113.63 192.588 113.766C192.931 113.901 193.327 113.969 193.775 113.969C194.088 113.969 194.4 113.943 194.713 113.891C195.025 113.828 195.265 113.781 195.431 113.75L196.478 118.703C196.145 118.807 195.676 118.927 195.072 119.063C194.468 119.208 193.733 119.297 192.869 119.328C191.265 119.391 189.858 119.177 188.65 118.687C187.452 118.198 186.52 117.437 185.853 116.406C185.186 115.375 184.858 114.073 184.869 112.5V89.25ZM211.936 119.469C209.467 119.469 207.342 118.969 205.561 117.969C203.79 116.958 202.426 115.531 201.467 113.687C200.509 111.833 200.03 109.641 200.03 107.109C200.03 104.641 200.509 102.474 201.467 100.609C202.426 98.7448 203.775 97.2917 205.514 96.25C207.264 95.2083 209.316 94.6875 211.671 94.6875C213.254 94.6875 214.728 94.9427 216.092 95.4531C217.467 95.9531 218.665 96.7083 219.686 97.7187C220.717 98.7292 221.52 100 222.092 101.531C222.665 103.052 222.952 104.833 222.952 106.875V108.703H202.686V104.578H216.686C216.686 103.62 216.478 102.771 216.061 102.031C215.645 101.292 215.066 100.714 214.327 100.297C213.598 99.8698 212.749 99.6562 211.78 99.6562C210.77 99.6562 209.874 99.8906 209.092 100.359C208.322 100.818 207.717 101.437 207.28 102.219C206.842 102.99 206.619 103.849 206.608 104.797V108.719C206.608 109.906 206.827 110.932 207.264 111.797C207.712 112.661 208.342 113.328 209.155 113.797C209.967 114.266 210.931 114.5 212.046 114.5C212.785 114.5 213.462 114.396 214.077 114.188C214.691 113.979 215.217 113.667 215.655 113.25C216.092 112.833 216.426 112.323 216.655 111.719L222.811 112.125C222.499 113.604 221.858 114.896 220.889 116C219.931 117.094 218.691 117.948 217.171 118.563C215.66 119.167 213.915 119.469 211.936 119.469ZM233.308 95L237.715 103.391L242.23 95H249.058L242.105 107L249.246 119H242.449L237.715 110.703L233.058 119H226.183L233.308 107L226.433 95H233.308ZM266.657 95V100H252.204V95H266.657ZM255.485 89.25H262.142V111.625C262.142 112.24 262.235 112.719 262.423 113.062C262.61 113.396 262.871 113.63 263.204 113.766C263.548 113.901 263.944 113.969 264.392 113.969C264.704 113.969 265.017 113.943 265.329 113.891C265.642 113.828 265.881 113.781 266.048 113.75L267.095 118.703C266.761 118.807 266.293 118.927 265.688 119.063C265.084 119.208 264.35 119.297 263.485 119.328C261.881 119.391 260.475 119.177 259.267 118.687C258.069 118.198 257.136 117.437 256.47 116.406C255.803 115.375 255.475 114.073 255.485 112.5V89.25Z" fill="white"/>
</svg>
