<svg width="981" height="307" viewBox="0 0 981 307" fill="none" xmlns="http://www.w3.org/2000/svg">
<rect x="1" y="1" width="979" height="305" rx="58" fill="#0B0C0C" stroke="#1A1C1F" stroke-width="2"/>
<path d="M235.353 89.4545C235.353 92.5227 234.799 95.1742 233.691 97.4091C232.583 99.6439 231.064 101.367 229.132 102.58C227.2 103.792 224.993 104.398 222.512 104.398C220.031 104.398 217.825 103.792 215.893 102.58C213.961 101.367 212.441 99.6439 211.333 97.4091C210.225 95.1742 209.672 92.5227 209.672 89.4545C209.672 86.3864 210.225 83.7348 211.333 81.5C212.441 79.2652 213.961 77.5417 215.893 76.3295C217.825 75.1174 220.031 74.5114 222.512 74.5114C224.993 74.5114 227.2 75.1174 229.132 76.3295C231.064 77.5417 232.583 79.2652 233.691 81.5C234.799 83.7348 235.353 86.3864 235.353 89.4545ZM231.944 89.4545C231.944 86.9356 231.523 84.8097 230.68 83.0767C229.847 81.3438 228.715 80.0322 227.285 79.142C225.865 78.2519 224.274 77.8068 222.512 77.8068C220.751 77.8068 219.155 78.2519 217.725 79.142C216.305 80.0322 215.173 81.3438 214.331 83.0767C213.497 84.8097 213.081 86.9356 213.081 89.4545C213.081 91.9735 213.497 94.0994 214.331 95.8324C215.173 97.5653 216.305 98.8769 217.725 99.767C219.155 100.657 220.751 101.102 222.512 101.102C224.274 101.102 225.865 100.657 227.285 99.767C228.715 98.8769 229.847 97.5653 230.68 95.8324C231.523 94.0994 231.944 91.9735 231.944 89.4545ZM241.142 112.182V82.1818H244.381V85.6477H244.778C245.025 85.2689 245.366 84.786 245.801 84.1989C246.246 83.6023 246.881 83.072 247.705 82.608C248.538 82.1345 249.665 81.8977 251.085 81.8977C252.922 81.8977 254.542 82.357 255.943 83.2756C257.345 84.1941 258.438 85.4962 259.224 87.1818C260.01 88.8674 260.403 90.8561 260.403 93.1477C260.403 95.4583 260.01 97.4612 259.224 99.1562C258.438 100.842 257.349 102.149 255.957 103.077C254.565 103.995 252.96 104.455 251.142 104.455C249.741 104.455 248.618 104.223 247.776 103.759C246.933 103.285 246.284 102.75 245.83 102.153C245.375 101.547 245.025 101.045 244.778 100.648H244.494V112.182H241.142ZM244.438 93.0909C244.438 94.7386 244.679 96.1922 245.162 97.4517C245.645 98.7017 246.35 99.6818 247.278 100.392C248.206 101.093 249.343 101.443 250.688 101.443C252.089 101.443 253.259 101.074 254.196 100.335C255.143 99.5871 255.853 98.5833 256.327 97.3239C256.81 96.0549 257.051 94.6439 257.051 93.0909C257.051 91.5568 256.814 90.1742 256.341 88.9432C255.877 87.7027 255.171 86.7225 254.224 86.0028C253.287 85.2737 252.108 84.9091 250.688 84.9091C249.324 84.9091 248.178 85.2547 247.25 85.946C246.322 86.6278 245.621 87.5843 245.148 88.8153C244.674 90.0369 244.438 91.4621 244.438 93.0909ZM275.326 82.1818V85.0227H264.019V82.1818H275.326ZM267.314 76.9545H270.667V97.75C270.667 98.697 270.804 99.4072 271.079 99.8807C271.363 100.345 271.723 100.657 272.158 100.818C272.603 100.97 273.072 101.045 273.564 101.045C273.934 101.045 274.237 101.027 274.473 100.989C274.71 100.941 274.9 100.903 275.042 100.875L275.723 103.886C275.496 103.972 275.179 104.057 274.772 104.142C274.365 104.237 273.848 104.284 273.223 104.284C272.276 104.284 271.348 104.08 270.439 103.673C269.54 103.266 268.792 102.646 268.195 101.812C267.608 100.979 267.314 99.928 267.314 98.6591V76.9545ZM280.688 104V82.1818H284.041V104H280.688ZM282.393 78.5455C281.739 78.5455 281.176 78.3229 280.703 77.8778C280.239 77.4328 280.007 76.8977 280.007 76.2727C280.007 75.6477 280.239 75.1127 280.703 74.6676C281.176 74.2225 281.739 74 282.393 74C283.046 74 283.605 74.2225 284.069 74.6676C284.543 75.1127 284.779 75.6477 284.779 76.2727C284.779 76.8977 284.543 77.4328 284.069 77.8778C283.605 78.3229 283.046 78.5455 282.393 78.5455ZM299.364 104.455C297.394 104.455 295.666 103.986 294.18 103.048C292.702 102.111 291.547 100.799 290.714 99.1136C289.89 97.428 289.478 95.4583 289.478 93.2045C289.478 90.9318 289.89 88.9479 290.714 87.2528C291.547 85.5578 292.702 84.2415 294.18 83.304C295.666 82.3665 297.394 81.8977 299.364 81.8977C301.334 81.8977 303.057 82.3665 304.535 83.304C306.021 84.2415 307.177 85.5578 308.001 87.2528C308.834 88.9479 309.251 90.9318 309.251 93.2045C309.251 95.4583 308.834 97.428 308.001 99.1136C307.177 100.799 306.021 102.111 304.535 103.048C303.057 103.986 301.334 104.455 299.364 104.455ZM299.364 101.443C300.86 101.443 302.091 101.06 303.057 100.293C304.023 99.5256 304.738 98.517 305.202 97.267C305.666 96.017 305.898 94.6629 305.898 93.2045C305.898 91.7462 305.666 90.3873 305.202 89.1278C304.738 87.8684 304.023 86.8504 303.057 86.0739C302.091 85.2973 300.86 84.9091 299.364 84.9091C297.868 84.9091 296.637 85.2973 295.671 86.0739C294.705 86.8504 293.99 87.8684 293.526 89.1278C293.062 90.3873 292.83 91.7462 292.83 93.2045C292.83 94.6629 293.062 96.017 293.526 97.267C293.99 98.517 294.705 99.5256 295.671 100.293C296.637 101.06 297.868 101.443 299.364 101.443ZM318.04 90.875V104H314.688V82.1818H317.926V85.5909H318.21C318.722 84.483 319.498 83.5928 320.54 82.9205C321.582 82.2386 322.926 81.8977 324.574 81.8977C326.051 81.8977 327.344 82.2008 328.452 82.8068C329.56 83.4034 330.422 84.3125 331.037 85.5341C331.653 86.7462 331.96 88.2803 331.96 90.1364V104H328.608V90.3636C328.608 88.6496 328.163 87.3144 327.273 86.358C326.383 85.392 325.161 84.9091 323.608 84.9091C322.538 84.9091 321.582 85.1411 320.739 85.6051C319.906 86.0691 319.247 86.7462 318.764 87.6364C318.281 88.5265 318.04 89.6061 318.04 90.875ZM360.147 74.9091V104H356.624V78.6023H356.453L349.351 83.3182V79.7386L356.624 74.9091H360.147Z" fill="white"/>
<path d="M236.462 151.455C236.462 154.523 235.908 157.174 234.8 159.409C233.692 161.644 232.172 163.367 230.24 164.58C228.308 165.792 226.102 166.398 223.621 166.398C221.14 166.398 218.933 165.792 217.002 164.58C215.07 163.367 213.55 161.644 212.442 159.409C211.334 157.174 210.78 154.523 210.78 151.455C210.78 148.386 211.334 145.735 212.442 143.5C213.55 141.265 215.07 139.542 217.002 138.33C218.933 137.117 221.14 136.511 223.621 136.511C226.102 136.511 228.308 137.117 230.24 138.33C232.172 139.542 233.692 141.265 234.8 143.5C235.908 145.735 236.462 148.386 236.462 151.455ZM233.053 151.455C233.053 148.936 232.631 146.81 231.788 145.077C230.955 143.344 229.823 142.032 228.394 141.142C226.973 140.252 225.382 139.807 223.621 139.807C221.859 139.807 220.264 140.252 218.834 141.142C217.413 142.032 216.282 143.344 215.439 145.077C214.606 146.81 214.189 148.936 214.189 151.455C214.189 153.973 214.606 156.099 215.439 157.832C216.282 159.565 217.413 160.877 218.834 161.767C220.264 162.657 221.859 163.102 223.621 163.102C225.382 163.102 226.973 162.657 228.394 161.767C229.823 160.877 230.955 159.565 231.788 157.832C232.631 156.099 233.053 153.973 233.053 151.455ZM242.25 174.182V144.182H245.489V147.648H245.887C246.133 147.269 246.474 146.786 246.91 146.199C247.355 145.602 247.989 145.072 248.813 144.608C249.646 144.134 250.773 143.898 252.194 143.898C254.031 143.898 255.65 144.357 257.052 145.276C258.453 146.194 259.547 147.496 260.333 149.182C261.119 150.867 261.512 152.856 261.512 155.148C261.512 157.458 261.119 159.461 260.333 161.156C259.547 162.842 258.458 164.149 257.066 165.077C255.674 165.995 254.069 166.455 252.25 166.455C250.849 166.455 249.727 166.223 248.884 165.759C248.041 165.285 247.393 164.75 246.938 164.153C246.483 163.547 246.133 163.045 245.887 162.648H245.603V174.182H242.25ZM245.546 155.091C245.546 156.739 245.787 158.192 246.27 159.452C246.753 160.702 247.459 161.682 248.387 162.392C249.315 163.093 250.451 163.443 251.796 163.443C253.197 163.443 254.367 163.074 255.304 162.335C256.251 161.587 256.962 160.583 257.435 159.324C257.918 158.055 258.16 156.644 258.16 155.091C258.16 153.557 257.923 152.174 257.449 150.943C256.985 149.703 256.28 148.723 255.333 148.003C254.395 147.274 253.216 146.909 251.796 146.909C250.432 146.909 249.286 147.255 248.358 147.946C247.43 148.628 246.73 149.584 246.256 150.815C245.783 152.037 245.546 153.462 245.546 155.091ZM276.434 144.182V147.023H265.127V144.182H276.434ZM268.423 138.955H271.775V159.75C271.775 160.697 271.912 161.407 272.187 161.881C272.471 162.345 272.831 162.657 273.267 162.818C273.712 162.97 274.18 163.045 274.673 163.045C275.042 163.045 275.345 163.027 275.582 162.989C275.819 162.941 276.008 162.903 276.15 162.875L276.832 165.886C276.605 165.972 276.287 166.057 275.88 166.142C275.473 166.237 274.957 166.284 274.332 166.284C273.385 166.284 272.457 166.08 271.548 165.673C270.648 165.266 269.9 164.646 269.303 163.812C268.716 162.979 268.423 161.928 268.423 160.659V138.955ZM281.797 166V144.182H285.149V166H281.797ZM283.501 140.545C282.848 140.545 282.284 140.323 281.811 139.878C281.347 139.433 281.115 138.898 281.115 138.273C281.115 137.648 281.347 137.113 281.811 136.668C282.284 136.223 282.848 136 283.501 136C284.155 136 284.713 136.223 285.177 136.668C285.651 137.113 285.888 137.648 285.888 138.273C285.888 138.898 285.651 139.433 285.177 139.878C284.713 140.323 284.155 140.545 283.501 140.545ZM300.473 166.455C298.503 166.455 296.775 165.986 295.288 165.048C293.811 164.111 292.655 162.799 291.822 161.114C290.998 159.428 290.586 157.458 290.586 155.205C290.586 152.932 290.998 150.948 291.822 149.253C292.655 147.558 293.811 146.241 295.288 145.304C296.775 144.366 298.503 143.898 300.473 143.898C302.442 143.898 304.166 144.366 305.643 145.304C307.13 146.241 308.285 147.558 309.109 149.253C309.942 150.948 310.359 152.932 310.359 155.205C310.359 157.458 309.942 159.428 309.109 161.114C308.285 162.799 307.13 164.111 305.643 165.048C304.166 165.986 302.442 166.455 300.473 166.455ZM300.473 163.443C301.969 163.443 303.2 163.06 304.166 162.293C305.132 161.526 305.847 160.517 306.311 159.267C306.775 158.017 307.007 156.663 307.007 155.205C307.007 153.746 306.775 152.387 306.311 151.128C305.847 149.868 305.132 148.85 304.166 148.074C303.2 147.297 301.969 146.909 300.473 146.909C298.976 146.909 297.745 147.297 296.779 148.074C295.813 148.85 295.099 149.868 294.634 151.128C294.17 152.387 293.938 153.746 293.938 155.205C293.938 156.663 294.17 158.017 294.634 159.267C295.099 160.517 295.813 161.526 296.779 162.293C297.745 163.06 298.976 163.443 300.473 163.443ZM319.148 152.875V166H315.796V144.182H319.035V147.591H319.319C319.83 146.483 320.607 145.593 321.648 144.92C322.69 144.239 324.035 143.898 325.682 143.898C327.16 143.898 328.452 144.201 329.56 144.807C330.668 145.403 331.53 146.312 332.146 147.534C332.761 148.746 333.069 150.28 333.069 152.136V166H329.717V152.364C329.717 150.65 329.271 149.314 328.381 148.358C327.491 147.392 326.27 146.909 324.717 146.909C323.646 146.909 322.69 147.141 321.847 147.605C321.014 148.069 320.356 148.746 319.873 149.636C319.39 150.527 319.148 151.606 319.148 152.875ZM351.028 166V163.443L360.63 152.932C361.757 151.701 362.685 150.631 363.414 149.722C364.143 148.803 364.683 147.941 365.033 147.136C365.393 146.322 365.573 145.47 365.573 144.58C365.573 143.557 365.327 142.671 364.835 141.923C364.352 141.175 363.689 140.598 362.846 140.19C362.003 139.783 361.056 139.58 360.005 139.58C358.888 139.58 357.912 139.812 357.079 140.276C356.255 140.73 355.616 141.369 355.161 142.193C354.716 143.017 354.494 143.983 354.494 145.091H351.141C351.141 143.386 351.534 141.89 352.32 140.602C353.106 139.314 354.176 138.311 355.531 137.591C356.894 136.871 358.424 136.511 360.119 136.511C361.823 136.511 363.334 136.871 364.65 137.591C365.966 138.311 366.998 139.281 367.746 140.503C368.495 141.724 368.869 143.083 368.869 144.58C368.869 145.65 368.675 146.696 368.286 147.719C367.907 148.732 367.245 149.864 366.298 151.114C365.36 152.354 364.058 153.869 362.391 155.659L355.857 162.648V162.875H369.38V166H351.028Z" fill="white"/>
<path d="M236.462 211.455C236.462 214.523 235.908 217.174 234.8 219.409C233.692 221.644 232.172 223.367 230.24 224.58C228.308 225.792 226.102 226.398 223.621 226.398C221.14 226.398 218.933 225.792 217.002 224.58C215.07 223.367 213.55 221.644 212.442 219.409C211.334 217.174 210.78 214.523 210.78 211.455C210.78 208.386 211.334 205.735 212.442 203.5C213.55 201.265 215.07 199.542 217.002 198.33C218.933 197.117 221.14 196.511 223.621 196.511C226.102 196.511 228.308 197.117 230.24 198.33C232.172 199.542 233.692 201.265 234.8 203.5C235.908 205.735 236.462 208.386 236.462 211.455ZM233.053 211.455C233.053 208.936 232.631 206.81 231.788 205.077C230.955 203.344 229.823 202.032 228.394 201.142C226.973 200.252 225.382 199.807 223.621 199.807C221.859 199.807 220.264 200.252 218.834 201.142C217.413 202.032 216.282 203.344 215.439 205.077C214.606 206.81 214.189 208.936 214.189 211.455C214.189 213.973 214.606 216.099 215.439 217.832C216.282 219.565 217.413 220.877 218.834 221.767C220.264 222.657 221.859 223.102 223.621 223.102C225.382 223.102 226.973 222.657 228.394 221.767C229.823 220.877 230.955 219.565 231.788 217.832C232.631 216.099 233.053 213.973 233.053 211.455ZM242.25 234.182V204.182H245.489V207.648H245.887C246.133 207.269 246.474 206.786 246.91 206.199C247.355 205.602 247.989 205.072 248.813 204.608C249.646 204.134 250.773 203.898 252.194 203.898C254.031 203.898 255.65 204.357 257.052 205.276C258.453 206.194 259.547 207.496 260.333 209.182C261.119 210.867 261.512 212.856 261.512 215.148C261.512 217.458 261.119 219.461 260.333 221.156C259.547 222.842 258.458 224.149 257.066 225.077C255.674 225.995 254.069 226.455 252.25 226.455C250.849 226.455 249.727 226.223 248.884 225.759C248.041 225.285 247.393 224.75 246.938 224.153C246.483 223.547 246.133 223.045 245.887 222.648H245.603V234.182H242.25ZM245.546 215.091C245.546 216.739 245.787 218.192 246.27 219.452C246.753 220.702 247.459 221.682 248.387 222.392C249.315 223.093 250.451 223.443 251.796 223.443C253.197 223.443 254.367 223.074 255.304 222.335C256.251 221.587 256.962 220.583 257.435 219.324C257.918 218.055 258.16 216.644 258.16 215.091C258.16 213.557 257.923 212.174 257.449 210.943C256.985 209.703 256.28 208.723 255.333 208.003C254.395 207.274 253.216 206.909 251.796 206.909C250.432 206.909 249.286 207.255 248.358 207.946C247.43 208.628 246.73 209.584 246.256 210.815C245.783 212.037 245.546 213.462 245.546 215.091ZM276.434 204.182V207.023H265.127V204.182H276.434ZM268.423 198.955H271.775V219.75C271.775 220.697 271.912 221.407 272.187 221.881C272.471 222.345 272.831 222.657 273.267 222.818C273.712 222.97 274.18 223.045 274.673 223.045C275.042 223.045 275.345 223.027 275.582 222.989C275.819 222.941 276.008 222.903 276.15 222.875L276.832 225.886C276.605 225.972 276.287 226.057 275.88 226.142C275.473 226.237 274.957 226.284 274.332 226.284C273.385 226.284 272.457 226.08 271.548 225.673C270.648 225.266 269.9 224.646 269.303 223.812C268.716 222.979 268.423 221.928 268.423 220.659V198.955ZM281.797 226V204.182H285.149V226H281.797ZM283.501 200.545C282.848 200.545 282.284 200.323 281.811 199.878C281.347 199.433 281.115 198.898 281.115 198.273C281.115 197.648 281.347 197.113 281.811 196.668C282.284 196.223 282.848 196 283.501 196C284.155 196 284.713 196.223 285.177 196.668C285.651 197.113 285.888 197.648 285.888 198.273C285.888 198.898 285.651 199.433 285.177 199.878C284.713 200.323 284.155 200.545 283.501 200.545ZM300.473 226.455C298.503 226.455 296.775 225.986 295.288 225.048C293.811 224.111 292.655 222.799 291.822 221.114C290.998 219.428 290.586 217.458 290.586 215.205C290.586 212.932 290.998 210.948 291.822 209.253C292.655 207.558 293.811 206.241 295.288 205.304C296.775 204.366 298.503 203.898 300.473 203.898C302.442 203.898 304.166 204.366 305.643 205.304C307.13 206.241 308.285 207.558 309.109 209.253C309.942 210.948 310.359 212.932 310.359 215.205C310.359 217.458 309.942 219.428 309.109 221.114C308.285 222.799 307.13 224.111 305.643 225.048C304.166 225.986 302.442 226.455 300.473 226.455ZM300.473 223.443C301.969 223.443 303.2 223.06 304.166 222.293C305.132 221.526 305.847 220.517 306.311 219.267C306.775 218.017 307.007 216.663 307.007 215.205C307.007 213.746 306.775 212.387 306.311 211.128C305.847 209.868 305.132 208.85 304.166 208.074C303.2 207.297 301.969 206.909 300.473 206.909C298.976 206.909 297.745 207.297 296.779 208.074C295.813 208.85 295.099 209.868 294.634 211.128C294.17 212.387 293.938 213.746 293.938 215.205C293.938 216.663 294.17 218.017 294.634 219.267C295.099 220.517 295.813 221.526 296.779 222.293C297.745 223.06 298.976 223.443 300.473 223.443ZM319.148 212.875V226H315.796V204.182H319.035V207.591H319.319C319.83 206.483 320.607 205.593 321.648 204.92C322.69 204.239 324.035 203.898 325.682 203.898C327.16 203.898 328.452 204.201 329.56 204.807C330.668 205.403 331.53 206.312 332.146 207.534C332.761 208.746 333.069 210.28 333.069 212.136V226H329.717V212.364C329.717 210.65 329.271 209.314 328.381 208.358C327.491 207.392 326.27 206.909 324.717 206.909C323.646 206.909 322.69 207.141 321.847 207.605C321.014 208.069 320.356 208.746 319.873 209.636C319.39 210.527 319.148 211.606 319.148 212.875ZM360.857 226.398C358.982 226.398 357.311 226.076 355.843 225.432C354.385 224.788 353.225 223.893 352.363 222.747C351.511 221.592 351.047 220.252 350.971 218.727H354.55C354.626 219.665 354.948 220.474 355.516 221.156C356.085 221.829 356.828 222.349 357.746 222.719C358.665 223.088 359.683 223.273 360.8 223.273C362.05 223.273 363.158 223.055 364.124 222.619C365.09 222.184 365.848 221.578 366.397 220.801C366.946 220.025 367.221 219.125 367.221 218.102C367.221 217.032 366.956 216.09 366.425 215.276C365.895 214.452 365.119 213.808 364.096 213.344C363.073 212.88 361.823 212.648 360.346 212.648H358.016V209.523H360.346C361.501 209.523 362.514 209.314 363.386 208.898C364.266 208.481 364.953 207.894 365.445 207.136C365.947 206.379 366.198 205.489 366.198 204.466C366.198 203.481 365.98 202.624 365.545 201.895C365.109 201.166 364.494 200.598 363.698 200.19C362.912 199.783 361.984 199.58 360.914 199.58C359.91 199.58 358.963 199.764 358.073 200.134C357.193 200.493 356.473 201.019 355.914 201.71C355.355 202.392 355.052 203.216 355.005 204.182H351.596C351.653 202.657 352.112 201.322 352.974 200.176C353.836 199.021 354.962 198.121 356.354 197.477C357.756 196.833 359.295 196.511 360.971 196.511C362.77 196.511 364.314 196.876 365.602 197.605C366.889 198.325 367.879 199.277 368.57 200.46C369.262 201.644 369.607 202.922 369.607 204.295C369.607 205.934 369.176 207.33 368.315 208.486C367.462 209.641 366.302 210.441 364.835 210.886V211.114C366.672 211.417 368.106 212.198 369.139 213.457C370.171 214.707 370.687 216.256 370.687 218.102C370.687 219.684 370.256 221.104 369.394 222.364C368.542 223.614 367.377 224.598 365.9 225.318C364.423 226.038 362.742 226.398 360.857 226.398Z" fill="white"/>
<rect x="158.512" y="72" width="35.4712" height="32" rx="6" fill="#AAAAAA"/>
<rect x="158.512" y="134" width="35.4712" height="32" rx="6" fill="#AAAAAA"/>
<rect x="158.512" y="196" width="35.4712" height="32" rx="6" fill="#AAAAAA"/>
<ellipse cx="121.932" cy="95" rx="8.8678" ry="8" fill="#D1D6DB"/>
<ellipse cx="121.932" cy="156" rx="8.8678" ry="8" fill="#D1D6DB"/>
<ellipse cx="121.932" cy="217" rx="8.8678" ry="8" fill="#D1D6DB"/>
</svg>
