<svg width="985" height="207" viewBox="0 0 985 207" fill="none" xmlns="http://www.w3.org/2000/svg">
<rect x="1" y="1" width="983" height="205" rx="68" fill="#0B0C0C" stroke="#1A1C1F" stroke-width="2"/>
<rect x="70" y="78" width="361" height="51" rx="20" fill="#D9D9D9" fill-opacity="0.2"/>
<path d="M92.0835 92.2271H86.9395V89.6636H100.304V92.2271H95.1597V109.402H100.304V112H86.9395V109.402H92.0835V92.2271ZM106.328 94.8418H108.976L109.096 97.6104C109.597 97.0179 110.082 96.528 110.549 96.1406C111.016 95.7419 111.472 95.4229 111.916 95.1836C112.372 94.9443 112.833 94.7791 113.3 94.688C113.767 94.5854 114.252 94.5342 114.753 94.5342C116.519 94.5342 117.852 95.0583 118.752 96.1064C119.663 97.1432 120.119 98.7098 120.119 100.806V112H117.145V101.045C117.145 99.701 116.895 98.7098 116.393 98.0718C115.892 97.4224 115.146 97.0977 114.155 97.0977C113.79 97.0977 113.431 97.1546 113.078 97.2686C112.736 97.3711 112.377 97.5591 112.001 97.8325C111.625 98.0946 111.215 98.4535 110.771 98.9092C110.338 99.3649 109.848 99.9346 109.301 100.618V112H106.328V94.8418ZM139.507 107.317C139.507 107.921 139.405 108.462 139.2 108.941C138.994 109.419 138.715 109.847 138.362 110.223C138.009 110.587 137.599 110.901 137.132 111.163C136.665 111.425 136.163 111.641 135.628 111.812C135.104 111.983 134.562 112.108 134.004 112.188C133.446 112.268 132.899 112.308 132.364 112.308C131.201 112.308 130.131 112.256 129.151 112.154C128.182 112.051 127.231 111.886 126.297 111.658V108.924C127.299 109.209 128.296 109.425 129.287 109.573C130.279 109.721 131.264 109.795 132.244 109.795C133.668 109.795 134.722 109.602 135.406 109.214C136.089 108.827 136.431 108.274 136.431 107.557C136.431 107.249 136.374 106.976 136.26 106.736C136.158 106.486 135.964 106.252 135.679 106.036C135.394 105.808 134.95 105.574 134.346 105.335C133.754 105.096 132.939 104.822 131.902 104.515C131.127 104.287 130.41 104.03 129.749 103.746C129.099 103.449 128.535 103.102 128.057 102.703C127.578 102.304 127.202 101.837 126.929 101.302C126.656 100.766 126.519 100.134 126.519 99.4048C126.519 98.9263 126.627 98.4022 126.844 97.8325C127.071 97.2629 127.453 96.7331 127.989 96.2432C128.524 95.7533 129.248 95.3488 130.159 95.0298C131.07 94.6994 132.21 94.5342 133.577 94.5342C134.249 94.5342 134.995 94.5741 135.816 94.6538C136.636 94.7222 137.491 94.8475 138.379 95.0298V97.6787C137.445 97.4508 136.556 97.2856 135.713 97.1831C134.881 97.0692 134.158 97.0122 133.543 97.0122C132.802 97.0122 132.176 97.0692 131.663 97.1831C131.162 97.297 130.751 97.4565 130.432 97.6616C130.125 97.8553 129.903 98.0889 129.766 98.3623C129.629 98.6243 129.561 98.9092 129.561 99.2168C129.561 99.5244 129.618 99.8035 129.732 100.054C129.857 100.305 130.079 100.55 130.398 100.789C130.729 101.017 131.184 101.25 131.765 101.49C132.346 101.718 133.104 101.968 134.038 102.242C135.052 102.538 135.907 102.851 136.602 103.182C137.297 103.501 137.861 103.86 138.294 104.258C138.727 104.657 139.034 105.107 139.217 105.608C139.41 106.11 139.507 106.679 139.507 107.317ZM160.006 102.515C160.006 102.937 160 103.29 159.989 103.575C159.978 103.86 159.96 104.127 159.938 104.378H147.889C147.889 106.132 148.379 107.483 149.359 108.428C150.339 109.362 151.752 109.83 153.597 109.83C154.099 109.83 154.6 109.812 155.101 109.778C155.603 109.733 156.087 109.676 156.554 109.607C157.021 109.539 157.465 109.465 157.887 109.385C158.32 109.294 158.719 109.197 159.083 109.095V111.539C158.274 111.766 157.357 111.949 156.332 112.085C155.318 112.234 154.264 112.308 153.17 112.308C151.7 112.308 150.436 112.108 149.376 111.709C148.317 111.311 147.445 110.735 146.761 109.983C146.089 109.22 145.588 108.292 145.258 107.198C144.939 106.093 144.779 104.845 144.779 103.455C144.779 102.247 144.95 101.108 145.292 100.037C145.645 98.9548 146.152 98.0091 146.813 97.2002C147.485 96.3799 148.305 95.7305 149.274 95.252C150.242 94.7734 151.342 94.5342 152.572 94.5342C153.768 94.5342 154.828 94.7222 155.751 95.0981C156.674 95.4741 157.448 96.0096 158.075 96.7046C158.713 97.3882 159.191 98.2256 159.51 99.2168C159.841 100.197 160.006 101.296 160.006 102.515ZM156.913 102.088C156.947 101.325 156.873 100.63 156.691 100.003C156.508 99.3649 156.224 98.818 155.836 98.3623C155.46 97.9066 154.987 97.5534 154.418 97.3027C153.848 97.0407 153.187 96.9097 152.435 96.9097C151.786 96.9097 151.193 97.035 150.658 97.2856C150.122 97.5363 149.661 97.8895 149.274 98.3452C148.886 98.8009 148.573 99.3478 148.334 99.9858C148.094 100.624 147.946 101.325 147.889 102.088H156.913ZM165.808 94.8418H168.525L168.61 98.0034C169.624 96.7843 170.621 95.9014 171.601 95.3545C172.592 94.8076 173.589 94.5342 174.592 94.5342C176.369 94.5342 177.714 95.1095 178.625 96.2603C179.548 97.411 179.975 99.12 179.907 101.387H176.899C176.933 99.8833 176.711 98.7952 176.233 98.123C175.765 97.4395 175.076 97.0977 174.165 97.0977C173.766 97.0977 173.361 97.1717 172.951 97.3198C172.553 97.4565 172.137 97.6844 171.704 98.0034C171.282 98.311 170.832 98.7098 170.354 99.1997C169.875 99.6896 169.362 100.282 168.816 100.977V112H165.808V94.8418ZM198.526 111.761C197.854 111.932 197.159 112.051 196.441 112.12C195.723 112.199 194.994 112.239 194.253 112.239C192.1 112.239 190.494 111.755 189.434 110.787C188.375 109.807 187.845 108.309 187.845 106.292V97.3369H183.042V94.8418H187.845V90.125L190.818 89.356V94.8418H198.526V97.3369H190.818V106.053C190.818 107.283 191.143 108.206 191.792 108.821C192.453 109.425 193.422 109.727 194.698 109.727C195.245 109.727 195.843 109.687 196.492 109.607C197.142 109.516 197.819 109.38 198.526 109.197V111.761ZM237.217 111.368C236.442 111.664 235.644 111.88 234.824 112.017C234.015 112.165 233.178 112.239 232.312 112.239C229.6 112.239 227.51 111.504 226.04 110.035C224.582 108.554 223.852 106.4 223.852 103.575C223.852 102.208 224.063 100.971 224.485 99.8662C224.906 98.7611 225.499 97.8154 226.262 97.0293C227.025 96.2318 227.937 95.6222 228.996 95.2007C230.056 94.7677 231.224 94.5513 232.5 94.5513C233.388 94.5513 234.22 94.6139 234.995 94.7393C235.77 94.8646 236.51 95.0697 237.217 95.3545V98.2085C236.476 97.8211 235.718 97.5363 234.944 97.354C234.18 97.1717 233.388 97.0806 232.568 97.0806C231.805 97.0806 231.081 97.2287 230.398 97.5249C229.726 97.8211 229.133 98.2427 228.62 98.7896C228.108 99.3364 227.703 100.003 227.407 100.789C227.111 101.575 226.963 102.47 226.963 103.472C226.963 105.546 227.464 107.101 228.467 108.138C229.481 109.174 230.882 109.693 232.671 109.693C233.48 109.693 234.26 109.602 235.012 109.419C235.775 109.226 236.51 108.947 237.217 108.582V111.368ZM258.416 103.284C258.416 104.617 258.228 105.842 257.852 106.958C257.476 108.064 256.935 109.015 256.229 109.812C255.522 110.599 254.662 111.214 253.648 111.658C252.634 112.091 251.483 112.308 250.196 112.308C248.966 112.308 247.86 112.12 246.881 111.744C245.912 111.356 245.086 110.792 244.403 110.052C243.73 109.311 243.212 108.394 242.847 107.3C242.494 106.207 242.318 104.948 242.318 103.523C242.318 102.19 242.506 100.977 242.882 99.8833C243.258 98.7782 243.799 97.8325 244.505 97.0464C245.211 96.2489 246.072 95.6336 247.086 95.2007C248.1 94.7563 249.25 94.5342 250.538 94.5342C251.768 94.5342 252.868 94.7279 253.836 95.1152C254.816 95.4912 255.642 96.0495 256.314 96.79C256.998 97.5192 257.516 98.4307 257.869 99.5244C258.234 100.618 258.416 101.871 258.416 103.284ZM255.374 103.421C255.374 102.361 255.255 101.438 255.015 100.652C254.787 99.8548 254.457 99.194 254.024 98.6699C253.591 98.1344 253.061 97.7357 252.435 97.4736C251.82 97.2002 251.13 97.0635 250.367 97.0635C249.478 97.0635 248.715 97.2401 248.077 97.5933C247.45 97.9351 246.932 98.3965 246.522 98.9775C246.123 99.5586 245.827 100.236 245.633 101.011C245.451 101.775 245.36 102.578 245.36 103.421C245.36 104.48 245.474 105.409 245.701 106.207C245.941 107.004 246.277 107.671 246.71 108.206C247.143 108.73 247.667 109.129 248.282 109.402C248.897 109.664 249.592 109.795 250.367 109.795C251.256 109.795 252.013 109.625 252.64 109.283C253.278 108.93 253.796 108.462 254.195 107.881C254.605 107.3 254.901 106.628 255.084 105.865C255.277 105.09 255.374 104.275 255.374 103.421ZM276.762 112H274.096L273.993 108.838C273.765 109.249 273.338 109.83 272.712 110.582C271.903 111.732 270.382 112.308 268.149 112.308C267.146 112.308 266.274 112.103 265.534 111.692C264.793 111.282 264.172 110.701 263.671 109.949C263.181 109.197 262.845 108.388 262.663 107.522C262.48 106.645 262.378 105.791 262.355 104.959C262.446 103.353 262.742 101.945 263.244 100.738C263.745 99.5301 264.286 98.5731 264.867 97.8667C265.46 97.1489 266.2 96.4482 267.089 95.7646C267.989 95.0811 269.237 94.6595 270.832 94.5C271.595 94.5228 272.176 94.5968 272.575 94.7222C272.894 94.8247 273.293 94.95 273.771 95.0981V87.8521H276.762V112ZM273.771 97.7983C273.315 97.5819 272.808 97.3882 272.25 97.2173C271.692 97.0464 270.963 97.0407 270.063 97.2002C268.855 97.6559 267.852 98.3965 267.055 99.4219C266.257 100.436 265.705 101.911 265.397 103.848C265.226 104.908 265.226 105.751 265.397 106.377C265.579 107.004 265.813 107.585 266.098 108.121C266.394 108.645 266.759 109.049 267.191 109.334C267.636 109.619 268.154 109.761 268.747 109.761C269.499 109.761 270.29 109.425 271.122 108.753C271.965 108.081 272.848 107.084 273.771 105.762V97.7983ZM297.158 102.515C297.158 102.937 297.153 103.29 297.141 103.575C297.13 103.86 297.113 104.127 297.09 104.378H285.042C285.042 106.132 285.531 107.483 286.511 108.428C287.491 109.362 288.904 109.83 290.75 109.83C291.251 109.83 291.752 109.812 292.253 109.778C292.755 109.733 293.239 109.676 293.706 109.607C294.173 109.539 294.618 109.465 295.039 109.385C295.472 109.294 295.871 109.197 296.235 109.095V111.539C295.426 111.766 294.509 111.949 293.484 112.085C292.47 112.234 291.416 112.308 290.322 112.308C288.853 112.308 287.588 112.108 286.528 111.709C285.469 111.311 284.597 110.735 283.914 109.983C283.241 109.22 282.74 108.292 282.41 107.198C282.091 106.093 281.931 104.845 281.931 103.455C281.931 102.247 282.102 101.108 282.444 100.037C282.797 98.9548 283.304 98.0091 283.965 97.2002C284.637 96.3799 285.457 95.7305 286.426 95.252C287.394 94.7734 288.494 94.5342 289.724 94.5342C290.92 94.5342 291.98 94.7222 292.903 95.0981C293.826 95.4741 294.6 96.0096 295.227 96.7046C295.865 97.3882 296.344 98.2256 296.663 99.2168C296.993 100.197 297.158 101.296 297.158 102.515ZM294.065 102.088C294.099 101.325 294.025 100.63 293.843 100.003C293.66 99.3649 293.376 98.818 292.988 98.3623C292.612 97.9066 292.139 97.5534 291.57 97.3027C291 97.0407 290.339 96.9097 289.587 96.9097C288.938 96.9097 288.346 97.035 287.81 97.2856C287.275 97.5363 286.813 97.8895 286.426 98.3452C286.038 98.8009 285.725 99.3478 285.486 99.9858C285.247 100.624 285.098 101.325 285.042 102.088H294.065ZM335.644 112H332.67V101.045C332.67 99.7238 332.42 98.7383 331.918 98.0889C331.428 97.4281 330.722 97.0977 329.799 97.0977C329.4 97.0977 329.024 97.1546 328.671 97.2686C328.329 97.3711 327.971 97.5591 327.595 97.8325C327.219 98.0946 326.808 98.4535 326.364 98.9092C325.92 99.3649 325.407 99.9346 324.826 100.618V112H321.852V87.8521H324.826V94.8418L324.723 97.542C325.191 96.9837 325.646 96.5166 326.091 96.1406C326.546 95.7533 326.996 95.4399 327.441 95.2007C327.896 94.9614 328.358 94.7905 328.825 94.688C329.292 94.5854 329.776 94.5342 330.278 94.5342C331.987 94.5342 333.308 95.0583 334.242 96.1064C335.177 97.1432 335.644 98.7098 335.644 100.806V112ZM355.938 102.515C355.938 102.937 355.932 103.29 355.921 103.575C355.909 103.86 355.892 104.127 355.869 104.378H343.821C343.821 106.132 344.311 107.483 345.291 108.428C346.271 109.362 347.683 109.83 349.529 109.83C350.03 109.83 350.532 109.812 351.033 109.778C351.534 109.733 352.018 109.676 352.486 109.607C352.953 109.539 353.397 109.465 353.819 109.385C354.252 109.294 354.65 109.197 355.015 109.095V111.539C354.206 111.766 353.289 111.949 352.263 112.085C351.249 112.234 350.196 112.308 349.102 112.308C347.632 112.308 346.367 112.108 345.308 111.709C344.248 111.311 343.377 110.735 342.693 109.983C342.021 109.22 341.52 108.292 341.189 107.198C340.87 106.093 340.711 104.845 340.711 103.455C340.711 102.247 340.882 101.108 341.223 100.037C341.577 98.9548 342.084 98.0091 342.744 97.2002C343.417 96.3799 344.237 95.7305 345.205 95.252C346.174 94.7734 347.273 94.5342 348.504 94.5342C349.7 94.5342 350.759 94.7222 351.682 95.0981C352.605 95.4741 353.38 96.0096 354.007 96.7046C354.645 97.3882 355.123 98.2256 355.442 99.2168C355.772 100.197 355.938 101.296 355.938 102.515ZM352.844 102.088C352.879 101.325 352.805 100.63 352.622 100.003C352.44 99.3649 352.155 98.818 351.768 98.3623C351.392 97.9066 350.919 97.5534 350.349 97.3027C349.78 97.0407 349.119 96.9097 348.367 96.9097C347.717 96.9097 347.125 97.035 346.59 97.2856C346.054 97.5363 345.593 97.8895 345.205 98.3452C344.818 98.8009 344.505 99.3478 344.265 99.9858C344.026 100.624 343.878 101.325 343.821 102.088H352.844ZM361.739 94.8418H364.457L364.542 98.0034C365.556 96.7843 366.553 95.9014 367.533 95.3545C368.524 94.8076 369.521 94.5342 370.524 94.5342C372.301 94.5342 373.645 95.1095 374.557 96.2603C375.48 97.411 375.907 99.12 375.838 101.387H372.831C372.865 99.8833 372.643 98.7952 372.164 98.123C371.697 97.4395 371.008 97.0977 370.096 97.0977C369.698 97.0977 369.293 97.1717 368.883 97.3198C368.484 97.4565 368.068 97.6844 367.635 98.0034C367.214 98.311 366.764 98.7098 366.285 99.1997C365.807 99.6896 365.294 100.282 364.747 100.977V112H361.739V94.8418ZM395.124 102.515C395.124 102.937 395.118 103.29 395.107 103.575C395.096 103.86 395.078 104.127 395.056 104.378H383.007C383.007 106.132 383.497 107.483 384.477 108.428C385.457 109.362 386.87 109.83 388.715 109.83C389.217 109.83 389.718 109.812 390.219 109.778C390.721 109.733 391.205 109.676 391.672 109.607C392.139 109.539 392.583 109.465 393.005 109.385C393.438 109.294 393.837 109.197 394.201 109.095V111.539C393.392 111.766 392.475 111.949 391.45 112.085C390.436 112.234 389.382 112.308 388.288 112.308C386.818 112.308 385.554 112.108 384.494 111.709C383.435 111.311 382.563 110.735 381.879 109.983C381.207 109.22 380.706 108.292 380.375 107.198C380.056 106.093 379.897 104.845 379.897 103.455C379.897 102.247 380.068 101.108 380.41 100.037C380.763 98.9548 381.27 98.0091 381.931 97.2002C382.603 96.3799 383.423 95.7305 384.392 95.252C385.36 94.7734 386.459 94.5342 387.69 94.5342C388.886 94.5342 389.946 94.7222 390.869 95.0981C391.792 95.4741 392.566 96.0096 393.193 96.7046C393.831 97.3882 394.309 98.2256 394.628 99.2168C394.959 100.197 395.124 101.296 395.124 102.515ZM392.031 102.088C392.065 101.325 391.991 100.63 391.809 100.003C391.626 99.3649 391.341 98.818 390.954 98.3623C390.578 97.9066 390.105 97.5534 389.536 97.3027C388.966 97.0407 388.305 96.9097 387.553 96.9097C386.904 96.9097 386.311 97.035 385.776 97.2856C385.24 97.5363 384.779 97.8895 384.392 98.3452C384.004 98.8009 383.691 99.3478 383.452 99.9858C383.212 100.624 383.064 101.325 383.007 102.088H392.031ZM408.872 87.8521L408.411 105.455H405.779L405.267 87.8521H408.872ZM407.078 107.796C407.386 107.796 407.676 107.859 407.95 107.984C408.223 108.098 408.457 108.257 408.65 108.462C408.855 108.667 409.015 108.912 409.129 109.197C409.254 109.471 409.317 109.761 409.317 110.069C409.317 110.376 409.254 110.667 409.129 110.94C409.015 111.214 408.855 111.453 408.65 111.658C408.457 111.852 408.223 112.006 407.95 112.12C407.676 112.245 407.386 112.308 407.078 112.308C406.759 112.308 406.463 112.245 406.189 112.12C405.916 112.006 405.677 111.852 405.472 111.658C405.267 111.453 405.101 111.214 404.976 110.94C404.862 110.667 404.805 110.376 404.805 110.069C404.805 109.761 404.862 109.471 404.976 109.197C405.101 108.912 405.267 108.667 405.472 108.462C405.677 108.257 405.916 108.098 406.189 107.984C406.463 107.859 406.759 107.796 407.078 107.796Z" fill="#C9CDD1"/>
</svg>
