<svg width="985" height="261" viewBox="0 0 985 261" fill="none" xmlns="http://www.w3.org/2000/svg">
<rect x="1" y="1" width="983" height="259" rx="68" fill="#0B0C0C" fill-opacity="0.66" stroke="#1A1C1F" stroke-width="2"/>
<rect x="70" y="65" width="758" height="131" rx="40" fill="#0F1213" fill-opacity="0.5"/>
<path d="M120.083 119.227H114.939V116.664H128.304V119.227H123.16V136.402H128.304V139H114.939V136.402H120.083V119.227ZM134.328 121.842H136.976L137.096 124.61C137.597 124.018 138.082 123.528 138.549 123.141C139.016 122.742 139.472 122.423 139.916 122.184C140.372 121.944 140.833 121.779 141.3 121.688C141.767 121.585 142.252 121.534 142.753 121.534C144.519 121.534 145.852 122.058 146.752 123.106C147.663 124.143 148.119 125.71 148.119 127.806V139H145.145V128.045C145.145 126.701 144.895 125.71 144.393 125.072C143.892 124.422 143.146 124.098 142.155 124.098C141.79 124.098 141.431 124.155 141.078 124.269C140.736 124.371 140.377 124.559 140.001 124.833C139.625 125.095 139.215 125.453 138.771 125.909C138.338 126.365 137.848 126.935 137.301 127.618V139H134.328V121.842ZM167.507 134.317C167.507 134.921 167.405 135.462 167.2 135.941C166.994 136.419 166.715 136.847 166.362 137.223C166.009 137.587 165.599 137.901 165.132 138.163C164.665 138.425 164.163 138.641 163.628 138.812C163.104 138.983 162.562 139.108 162.004 139.188C161.446 139.268 160.899 139.308 160.364 139.308C159.201 139.308 158.131 139.256 157.151 139.154C156.182 139.051 155.231 138.886 154.297 138.658V135.924C155.299 136.209 156.296 136.425 157.287 136.573C158.279 136.721 159.264 136.795 160.244 136.795C161.668 136.795 162.722 136.602 163.406 136.214C164.089 135.827 164.431 135.274 164.431 134.557C164.431 134.249 164.374 133.976 164.26 133.736C164.158 133.486 163.964 133.252 163.679 133.036C163.394 132.808 162.95 132.574 162.346 132.335C161.754 132.096 160.939 131.822 159.902 131.515C159.127 131.287 158.41 131.03 157.749 130.746C157.099 130.449 156.535 130.102 156.057 129.703C155.578 129.304 155.202 128.837 154.929 128.302C154.656 127.766 154.519 127.134 154.519 126.405C154.519 125.926 154.627 125.402 154.844 124.833C155.071 124.263 155.453 123.733 155.989 123.243C156.524 122.753 157.248 122.349 158.159 122.03C159.07 121.699 160.21 121.534 161.577 121.534C162.249 121.534 162.995 121.574 163.816 121.654C164.636 121.722 165.491 121.847 166.379 122.03V124.679C165.445 124.451 164.556 124.286 163.713 124.183C162.881 124.069 162.158 124.012 161.543 124.012C160.802 124.012 160.176 124.069 159.663 124.183C159.162 124.297 158.751 124.457 158.432 124.662C158.125 124.855 157.903 125.089 157.766 125.362C157.629 125.624 157.561 125.909 157.561 126.217C157.561 126.524 157.618 126.804 157.732 127.054C157.857 127.305 158.079 127.55 158.398 127.789C158.729 128.017 159.184 128.25 159.765 128.49C160.346 128.718 161.104 128.968 162.038 129.242C163.052 129.538 163.907 129.851 164.602 130.182C165.297 130.501 165.861 130.86 166.294 131.258C166.727 131.657 167.034 132.107 167.217 132.608C167.41 133.11 167.507 133.679 167.507 134.317ZM188.006 129.515C188.006 129.937 188 130.29 187.989 130.575C187.978 130.86 187.96 131.127 187.938 131.378H175.889C175.889 133.132 176.379 134.483 177.359 135.428C178.339 136.362 179.752 136.83 181.597 136.83C182.099 136.83 182.6 136.812 183.101 136.778C183.603 136.733 184.087 136.676 184.554 136.607C185.021 136.539 185.465 136.465 185.887 136.385C186.32 136.294 186.719 136.197 187.083 136.095V138.539C186.274 138.766 185.357 138.949 184.332 139.085C183.318 139.234 182.264 139.308 181.17 139.308C179.7 139.308 178.436 139.108 177.376 138.709C176.317 138.311 175.445 137.735 174.761 136.983C174.089 136.22 173.588 135.292 173.258 134.198C172.939 133.093 172.779 131.845 172.779 130.455C172.779 129.247 172.95 128.108 173.292 127.037C173.645 125.955 174.152 125.009 174.813 124.2C175.485 123.38 176.305 122.73 177.274 122.252C178.242 121.773 179.342 121.534 180.572 121.534C181.768 121.534 182.828 121.722 183.751 122.098C184.674 122.474 185.448 123.01 186.075 123.705C186.713 124.388 187.191 125.226 187.51 126.217C187.841 127.197 188.006 128.296 188.006 129.515ZM184.913 129.088C184.947 128.325 184.873 127.63 184.691 127.003C184.508 126.365 184.224 125.818 183.836 125.362C183.46 124.907 182.987 124.553 182.418 124.303C181.848 124.041 181.187 123.91 180.435 123.91C179.786 123.91 179.193 124.035 178.658 124.286C178.122 124.536 177.661 124.889 177.274 125.345C176.886 125.801 176.573 126.348 176.334 126.986C176.094 127.624 175.946 128.325 175.889 129.088H184.913ZM193.808 121.842H196.525L196.61 125.003C197.624 123.784 198.621 122.901 199.601 122.354C200.592 121.808 201.589 121.534 202.592 121.534C204.369 121.534 205.714 122.11 206.625 123.26C207.548 124.411 207.975 126.12 207.907 128.387H204.899C204.933 126.883 204.711 125.795 204.233 125.123C203.765 124.439 203.076 124.098 202.165 124.098C201.766 124.098 201.361 124.172 200.951 124.32C200.553 124.457 200.137 124.684 199.704 125.003C199.282 125.311 198.832 125.71 198.354 126.2C197.875 126.69 197.362 127.282 196.816 127.977V139H193.808V121.842ZM226.526 138.761C225.854 138.932 225.159 139.051 224.441 139.12C223.723 139.199 222.994 139.239 222.253 139.239C220.1 139.239 218.494 138.755 217.434 137.787C216.375 136.807 215.845 135.309 215.845 133.292V124.337H211.042V121.842H215.845V117.125L218.818 116.356V121.842H226.526V124.337H218.818V133.053C218.818 134.283 219.143 135.206 219.792 135.821C220.453 136.425 221.422 136.727 222.698 136.727C223.245 136.727 223.843 136.687 224.492 136.607C225.142 136.516 225.819 136.38 226.526 136.197V138.761ZM265.217 138.368C264.442 138.664 263.644 138.88 262.824 139.017C262.015 139.165 261.178 139.239 260.312 139.239C257.6 139.239 255.51 138.504 254.04 137.035C252.582 135.554 251.852 133.4 251.852 130.575C251.852 129.208 252.063 127.971 252.485 126.866C252.906 125.761 253.499 124.815 254.262 124.029C255.025 123.232 255.937 122.622 256.996 122.201C258.056 121.768 259.224 121.551 260.5 121.551C261.388 121.551 262.22 121.614 262.995 121.739C263.77 121.865 264.51 122.07 265.217 122.354V125.208C264.476 124.821 263.718 124.536 262.944 124.354C262.18 124.172 261.388 124.081 260.568 124.081C259.805 124.081 259.081 124.229 258.398 124.525C257.726 124.821 257.133 125.243 256.62 125.79C256.108 126.336 255.703 127.003 255.407 127.789C255.111 128.575 254.963 129.47 254.963 130.472C254.963 132.546 255.464 134.101 256.467 135.138C257.481 136.174 258.882 136.693 260.671 136.693C261.48 136.693 262.26 136.602 263.012 136.419C263.775 136.226 264.51 135.947 265.217 135.582V138.368ZM286.416 130.284C286.416 131.617 286.228 132.842 285.852 133.958C285.476 135.064 284.935 136.015 284.229 136.812C283.522 137.599 282.662 138.214 281.648 138.658C280.634 139.091 279.483 139.308 278.196 139.308C276.966 139.308 275.86 139.12 274.881 138.744C273.912 138.356 273.086 137.792 272.403 137.052C271.73 136.311 271.212 135.394 270.847 134.3C270.494 133.207 270.318 131.948 270.318 130.523C270.318 129.19 270.506 127.977 270.882 126.883C271.258 125.778 271.799 124.833 272.505 124.046C273.211 123.249 274.072 122.634 275.086 122.201C276.1 121.756 277.25 121.534 278.538 121.534C279.768 121.534 280.868 121.728 281.836 122.115C282.816 122.491 283.642 123.049 284.314 123.79C284.998 124.519 285.516 125.431 285.869 126.524C286.234 127.618 286.416 128.871 286.416 130.284ZM283.374 130.421C283.374 129.361 283.255 128.438 283.015 127.652C282.787 126.855 282.457 126.194 282.024 125.67C281.591 125.134 281.061 124.736 280.435 124.474C279.82 124.2 279.13 124.063 278.367 124.063C277.478 124.063 276.715 124.24 276.077 124.593C275.45 124.935 274.932 125.396 274.522 125.978C274.123 126.559 273.827 127.236 273.633 128.011C273.451 128.775 273.36 129.578 273.36 130.421C273.36 131.48 273.474 132.409 273.701 133.207C273.941 134.004 274.277 134.671 274.71 135.206C275.143 135.73 275.667 136.129 276.282 136.402C276.897 136.664 277.592 136.795 278.367 136.795C279.256 136.795 280.013 136.625 280.64 136.283C281.278 135.93 281.796 135.462 282.195 134.881C282.605 134.3 282.901 133.628 283.084 132.865C283.277 132.09 283.374 131.275 283.374 130.421ZM304.762 139H302.096L301.993 135.838C301.765 136.249 301.338 136.83 300.712 137.582C299.903 138.732 298.382 139.308 296.149 139.308C295.146 139.308 294.274 139.103 293.534 138.692C292.793 138.282 292.172 137.701 291.671 136.949C291.181 136.197 290.845 135.388 290.663 134.522C290.48 133.645 290.378 132.791 290.355 131.959C290.446 130.353 290.742 128.945 291.244 127.738C291.745 126.53 292.286 125.573 292.867 124.867C293.46 124.149 294.2 123.448 295.089 122.765C295.989 122.081 297.237 121.66 298.832 121.5C299.595 121.523 300.176 121.597 300.575 121.722C300.894 121.825 301.293 121.95 301.771 122.098V114.852H304.762V139ZM301.771 124.798C301.315 124.582 300.808 124.388 300.25 124.217C299.692 124.046 298.963 124.041 298.063 124.2C296.855 124.656 295.852 125.396 295.055 126.422C294.257 127.436 293.705 128.911 293.397 130.848C293.226 131.908 293.226 132.751 293.397 133.377C293.579 134.004 293.813 134.585 294.098 135.121C294.394 135.645 294.759 136.049 295.191 136.334C295.636 136.619 296.154 136.761 296.747 136.761C297.499 136.761 298.29 136.425 299.122 135.753C299.965 135.081 300.848 134.084 301.771 132.762V124.798ZM325.158 129.515C325.158 129.937 325.153 130.29 325.141 130.575C325.13 130.86 325.113 131.127 325.09 131.378H313.042C313.042 133.132 313.531 134.483 314.511 135.428C315.491 136.362 316.904 136.83 318.75 136.83C319.251 136.83 319.752 136.812 320.253 136.778C320.755 136.733 321.239 136.676 321.706 136.607C322.173 136.539 322.618 136.465 323.039 136.385C323.472 136.294 323.871 136.197 324.235 136.095V138.539C323.426 138.766 322.509 138.949 321.484 139.085C320.47 139.234 319.416 139.308 318.322 139.308C316.853 139.308 315.588 139.108 314.528 138.709C313.469 138.311 312.597 137.735 311.914 136.983C311.241 136.22 310.74 135.292 310.41 134.198C310.091 133.093 309.931 131.845 309.931 130.455C309.931 129.247 310.102 128.108 310.444 127.037C310.797 125.955 311.304 125.009 311.965 124.2C312.637 123.38 313.457 122.73 314.426 122.252C315.394 121.773 316.494 121.534 317.724 121.534C318.92 121.534 319.98 121.722 320.903 122.098C321.826 122.474 322.6 123.01 323.227 123.705C323.865 124.388 324.344 125.226 324.663 126.217C324.993 127.197 325.158 128.296 325.158 129.515ZM322.065 129.088C322.099 128.325 322.025 127.63 321.843 127.003C321.66 126.365 321.376 125.818 320.988 125.362C320.612 124.907 320.139 124.553 319.57 124.303C319 124.041 318.339 123.91 317.587 123.91C316.938 123.91 316.346 124.035 315.81 124.286C315.275 124.536 314.813 124.889 314.426 125.345C314.038 125.801 313.725 126.348 313.486 126.986C313.247 127.624 313.098 128.325 313.042 129.088H322.065ZM363.644 139H360.67V128.045C360.67 126.724 360.42 125.738 359.918 125.089C359.428 124.428 358.722 124.098 357.799 124.098C357.4 124.098 357.024 124.155 356.671 124.269C356.329 124.371 355.971 124.559 355.595 124.833C355.219 125.095 354.808 125.453 354.364 125.909C353.92 126.365 353.407 126.935 352.826 127.618V139H349.852V114.852H352.826V121.842L352.723 124.542C353.191 123.984 353.646 123.517 354.091 123.141C354.546 122.753 354.996 122.44 355.441 122.201C355.896 121.961 356.358 121.791 356.825 121.688C357.292 121.585 357.776 121.534 358.278 121.534C359.987 121.534 361.308 122.058 362.242 123.106C363.177 124.143 363.644 125.71 363.644 127.806V139ZM383.938 129.515C383.938 129.937 383.932 130.29 383.921 130.575C383.909 130.86 383.892 131.127 383.869 131.378H371.821C371.821 133.132 372.311 134.483 373.291 135.428C374.271 136.362 375.683 136.83 377.529 136.83C378.03 136.83 378.532 136.812 379.033 136.778C379.534 136.733 380.018 136.676 380.486 136.607C380.953 136.539 381.397 136.465 381.819 136.385C382.252 136.294 382.65 136.197 383.015 136.095V138.539C382.206 138.766 381.289 138.949 380.263 139.085C379.249 139.234 378.196 139.308 377.102 139.308C375.632 139.308 374.367 139.108 373.308 138.709C372.248 138.311 371.377 137.735 370.693 136.983C370.021 136.22 369.52 135.292 369.189 134.198C368.87 133.093 368.711 131.845 368.711 130.455C368.711 129.247 368.882 128.108 369.223 127.037C369.577 125.955 370.084 125.009 370.744 124.2C371.417 123.38 372.237 122.73 373.205 122.252C374.174 121.773 375.273 121.534 376.504 121.534C377.7 121.534 378.759 121.722 379.682 122.098C380.605 122.474 381.38 123.01 382.007 123.705C382.645 124.388 383.123 125.226 383.442 126.217C383.772 127.197 383.938 128.296 383.938 129.515ZM380.844 129.088C380.879 128.325 380.805 127.63 380.622 127.003C380.44 126.365 380.155 125.818 379.768 125.362C379.392 124.907 378.919 124.553 378.349 124.303C377.78 124.041 377.119 123.91 376.367 123.91C375.717 123.91 375.125 124.035 374.59 124.286C374.054 124.536 373.593 124.889 373.205 125.345C372.818 125.801 372.505 126.348 372.265 126.986C372.026 127.624 371.878 128.325 371.821 129.088H380.844ZM389.739 121.842H392.457L392.542 125.003C393.556 123.784 394.553 122.901 395.533 122.354C396.524 121.808 397.521 121.534 398.524 121.534C400.301 121.534 401.645 122.11 402.557 123.26C403.48 124.411 403.907 126.12 403.838 128.387H400.831C400.865 126.883 400.643 125.795 400.164 125.123C399.697 124.439 399.008 124.098 398.096 124.098C397.698 124.098 397.293 124.172 396.883 124.32C396.484 124.457 396.068 124.684 395.635 125.003C395.214 125.311 394.764 125.71 394.285 126.2C393.807 126.69 393.294 127.282 392.747 127.977V139H389.739V121.842ZM423.124 129.515C423.124 129.937 423.118 130.29 423.107 130.575C423.096 130.86 423.078 131.127 423.056 131.378H411.007C411.007 133.132 411.497 134.483 412.477 135.428C413.457 136.362 414.87 136.83 416.715 136.83C417.217 136.83 417.718 136.812 418.219 136.778C418.721 136.733 419.205 136.676 419.672 136.607C420.139 136.539 420.583 136.465 421.005 136.385C421.438 136.294 421.837 136.197 422.201 136.095V138.539C421.392 138.766 420.475 138.949 419.45 139.085C418.436 139.234 417.382 139.308 416.288 139.308C414.818 139.308 413.554 139.108 412.494 138.709C411.435 138.311 410.563 137.735 409.879 136.983C409.207 136.22 408.706 135.292 408.375 134.198C408.056 133.093 407.897 131.845 407.897 130.455C407.897 129.247 408.068 128.108 408.41 127.037C408.763 125.955 409.27 125.009 409.931 124.2C410.603 123.38 411.423 122.73 412.392 122.252C413.36 121.773 414.459 121.534 415.69 121.534C416.886 121.534 417.946 121.722 418.869 122.098C419.792 122.474 420.566 123.01 421.193 123.705C421.831 124.388 422.309 125.226 422.628 126.217C422.959 127.197 423.124 128.296 423.124 129.515ZM420.031 129.088C420.065 128.325 419.991 127.63 419.809 127.003C419.626 126.365 419.341 125.818 418.954 125.362C418.578 124.907 418.105 124.553 417.536 124.303C416.966 124.041 416.305 123.91 415.553 123.91C414.904 123.91 414.311 124.035 413.776 124.286C413.24 124.536 412.779 124.889 412.392 125.345C412.004 125.801 411.691 126.348 411.452 126.986C411.212 127.624 411.064 128.325 411.007 129.088H420.031ZM436.872 114.852L436.411 132.455H433.779L433.267 114.852H436.872ZM435.078 134.796C435.386 134.796 435.676 134.859 435.95 134.984C436.223 135.098 436.457 135.257 436.65 135.462C436.855 135.667 437.015 135.912 437.129 136.197C437.254 136.471 437.317 136.761 437.317 137.069C437.317 137.376 437.254 137.667 437.129 137.94C437.015 138.214 436.855 138.453 436.65 138.658C436.457 138.852 436.223 139.006 435.95 139.12C435.676 139.245 435.386 139.308 435.078 139.308C434.759 139.308 434.463 139.245 434.189 139.12C433.916 139.006 433.677 138.852 433.472 138.658C433.267 138.453 433.101 138.214 432.976 137.94C432.862 137.667 432.805 137.376 432.805 137.069C432.805 136.761 432.862 136.471 432.976 136.197C433.101 135.912 433.267 135.667 433.472 135.462C433.677 135.257 433.916 135.098 434.189 134.984C434.463 134.859 434.759 134.796 435.078 134.796Z" fill="#C9CDD1"/>
</svg>
