<svg width="985" height="207" viewBox="0 0 985 207" fill="none" xmlns="http://www.w3.org/2000/svg">
<rect x="1" y="1" width="983" height="205" rx="68" fill="#0B0C0C" fill-opacity="0.66" stroke="#1A1C1F" stroke-width="2"/>
<path d="M72.125 90.4375V87H96.125V90.4375H86.0625V119H82.1875V90.4375H72.125ZM106.173 104.562V119H102.485V87H106.173V98.75H106.485C107.048 97.5104 107.892 96.526 109.017 95.7969C110.152 95.0573 111.663 94.6875 113.548 94.6875C115.183 94.6875 116.616 95.0156 117.845 95.6719C119.074 96.3177 120.027 97.3125 120.704 98.6562C121.392 99.9896 121.735 101.687 121.735 103.75V119H118.048V104C118.048 102.094 117.553 100.62 116.564 99.5781C115.584 98.526 114.225 98 112.485 98C111.277 98 110.194 98.2552 109.235 98.7656C108.288 99.276 107.538 100.021 106.985 101C106.444 101.979 106.173 103.167 106.173 104.562ZM129.362 119V95H133.049V119H129.362ZM131.237 91C130.518 91 129.898 90.7552 129.377 90.2656C128.867 89.776 128.612 89.1875 128.612 88.5C128.612 87.8125 128.867 87.224 129.377 86.7344C129.898 86.2448 130.518 86 131.237 86C131.955 86 132.57 86.2448 133.08 86.7344C133.601 87.224 133.862 87.8125 133.862 88.5C133.862 89.1875 133.601 89.776 133.08 90.2656C132.57 90.7552 131.955 91 131.237 91ZM157.683 100.375L154.37 101.312C154.162 100.76 153.855 100.224 153.449 99.7031C153.053 99.1719 152.511 98.7344 151.824 98.3906C151.136 98.0469 150.256 97.875 149.183 97.875C147.714 97.875 146.49 98.2135 145.511 98.8906C144.542 99.5573 144.058 100.406 144.058 101.437C144.058 102.354 144.391 103.078 145.058 103.609C145.725 104.141 146.766 104.583 148.183 104.937L151.745 105.813C153.891 106.333 155.49 107.13 156.542 108.203C157.594 109.266 158.12 110.635 158.12 112.312C158.12 113.687 157.725 114.917 156.933 116C156.152 117.083 155.058 117.938 153.652 118.563C152.245 119.188 150.61 119.5 148.745 119.5C146.298 119.5 144.272 118.969 142.667 117.906C141.063 116.844 140.048 115.292 139.62 113.25L143.12 112.375C143.454 113.667 144.084 114.635 145.011 115.281C145.949 115.927 147.173 116.25 148.683 116.25C150.402 116.25 151.766 115.885 152.777 115.156C153.798 114.417 154.308 113.531 154.308 112.5C154.308 111.667 154.016 110.969 153.433 110.406C152.85 109.833 151.954 109.406 150.745 109.125L146.745 108.187C144.548 107.667 142.933 106.859 141.902 105.766C140.881 104.661 140.37 103.281 140.37 101.625C140.37 100.271 140.751 99.0729 141.511 98.0312C142.282 96.9896 143.329 96.1719 144.652 95.5781C145.985 94.9844 147.495 94.6875 149.183 94.6875C151.558 94.6875 153.423 95.2083 154.777 96.25C156.141 97.2917 157.11 98.6667 157.683 100.375ZM177.806 119V95H181.494V119H177.806ZM179.681 91C178.963 91 178.343 90.7552 177.822 90.2656C177.311 89.776 177.056 89.1875 177.056 88.5C177.056 87.8125 177.311 87.224 177.822 86.7344C178.343 86.2448 178.963 86 179.681 86C180.4 86 181.015 86.2448 181.525 86.7344C182.046 87.224 182.306 87.8125 182.306 88.5C182.306 89.1875 182.046 89.776 181.525 90.2656C181.015 90.7552 180.4 91 179.681 91ZM206.128 100.375L202.815 101.312C202.607 100.76 202.3 100.224 201.893 99.7031C201.497 99.1719 200.956 98.7344 200.268 98.3906C199.581 98.0469 198.701 97.875 197.628 97.875C196.159 97.875 194.935 98.2135 193.956 98.8906C192.987 99.5573 192.503 100.406 192.503 101.437C192.503 102.354 192.836 103.078 193.503 103.609C194.169 104.141 195.211 104.583 196.628 104.937L200.19 105.813C202.336 106.333 203.935 107.13 204.987 108.203C206.039 109.266 206.565 110.635 206.565 112.312C206.565 113.687 206.169 114.917 205.378 116C204.596 117.083 203.503 117.938 202.096 118.563C200.69 119.188 199.055 119.5 197.19 119.5C194.742 119.5 192.716 118.969 191.112 117.906C189.508 116.844 188.492 115.292 188.065 113.25L191.565 112.375C191.898 113.667 192.529 114.635 193.456 115.281C194.393 115.927 195.617 116.25 197.128 116.25C198.846 116.25 200.211 115.885 201.221 115.156C202.242 114.417 202.753 113.531 202.753 112.5C202.753 111.667 202.461 110.969 201.878 110.406C201.294 109.833 200.398 109.406 199.19 109.125L195.19 108.187C192.992 107.667 191.378 106.859 190.346 105.766C189.326 104.661 188.815 103.281 188.815 101.625C188.815 100.271 189.195 99.0729 189.956 98.0312C190.727 96.9896 191.773 96.1719 193.096 95.5781C194.43 94.9844 195.94 94.6875 197.628 94.6875C200.003 94.6875 201.867 95.2083 203.221 96.25C204.586 97.2917 205.555 98.6667 206.128 100.375ZM243.251 100.375L239.938 101.312C239.73 100.76 239.423 100.224 239.017 99.7031C238.621 99.1719 238.079 98.7344 237.392 98.3906C236.704 98.0469 235.824 97.875 234.751 97.875C233.282 97.875 232.058 98.2135 231.079 98.8906C230.11 99.5573 229.626 100.406 229.626 101.437C229.626 102.354 229.959 103.078 230.626 103.609C231.293 104.141 232.334 104.583 233.751 104.937L237.313 105.813C239.459 106.333 241.058 107.13 242.11 108.203C243.162 109.266 243.688 110.635 243.688 112.312C243.688 113.687 243.293 114.917 242.501 116C241.72 117.083 240.626 117.938 239.22 118.563C237.813 119.188 236.178 119.5 234.313 119.5C231.866 119.5 229.839 118.969 228.235 117.906C226.631 116.844 225.616 115.292 225.188 113.25L228.688 112.375C229.022 113.667 229.652 114.635 230.579 115.281C231.517 115.927 232.741 116.25 234.251 116.25C235.97 116.25 237.334 115.885 238.345 115.156C239.366 114.417 239.876 113.531 239.876 112.5C239.876 111.667 239.584 110.969 239.001 110.406C238.418 109.833 237.522 109.406 236.313 109.125L232.313 108.187C230.116 107.667 228.501 106.859 227.47 105.766C226.449 104.661 225.938 103.281 225.938 101.625C225.938 100.271 226.319 99.0729 227.079 98.0312C227.85 96.9896 228.897 96.1719 230.22 95.5781C231.553 94.9844 233.063 94.6875 234.751 94.6875C237.126 94.6875 238.991 95.2083 240.345 96.25C241.709 97.2917 242.678 98.6667 243.251 100.375ZM259.869 119.5C257.703 119.5 255.802 118.984 254.166 117.953C252.541 116.922 251.27 115.479 250.354 113.625C249.447 111.771 248.994 109.604 248.994 107.125C248.994 104.625 249.447 102.443 250.354 100.578C251.27 98.7135 252.541 97.2656 254.166 96.2344C255.802 95.2031 257.703 94.6875 259.869 94.6875C262.036 94.6875 263.932 95.2031 265.557 96.2344C267.192 97.2656 268.463 98.7135 269.369 100.578C270.286 102.443 270.744 104.625 270.744 107.125C270.744 109.604 270.286 111.771 269.369 113.625C268.463 115.479 267.192 116.922 265.557 117.953C263.932 118.984 262.036 119.5 259.869 119.5ZM259.869 116.188C261.515 116.188 262.869 115.766 263.932 114.922C264.994 114.078 265.781 112.969 266.291 111.594C266.802 110.219 267.057 108.729 267.057 107.125C267.057 105.521 266.802 104.026 266.291 102.641C265.781 101.255 264.994 100.135 263.932 99.2812C262.869 98.4271 261.515 98 259.869 98C258.223 98 256.869 98.4271 255.807 99.2812C254.744 100.135 253.958 101.255 253.447 102.641C252.937 104.026 252.682 105.521 252.682 107.125C252.682 108.729 252.937 110.219 253.447 111.594C253.958 112.969 254.744 114.078 255.807 114.922C256.869 115.766 258.223 116.188 259.869 116.188ZM301.196 95V98.125H288.258V95H301.196ZM292.133 119V91.6875C292.133 90.3125 292.456 89.1667 293.102 88.25C293.748 87.3333 294.586 86.6458 295.617 86.1875C296.649 85.7292 297.737 85.5 298.883 85.5C299.789 85.5 300.529 85.5729 301.102 85.7187C301.675 85.8646 302.102 86 302.383 86.125L301.321 89.3125C301.133 89.25 300.873 89.1719 300.539 89.0781C300.216 88.9844 299.789 88.9375 299.258 88.9375C298.039 88.9375 297.159 89.2448 296.617 89.8594C296.086 90.474 295.821 91.375 295.821 92.5625V119H292.133ZM322.369 109.187V95H326.056V119H322.369V114.937H322.119C321.556 116.156 320.681 117.193 319.494 118.047C318.306 118.891 316.806 119.313 314.994 119.313C313.494 119.313 312.16 118.984 310.994 118.328C309.827 117.661 308.91 116.661 308.244 115.328C307.577 113.984 307.244 112.292 307.244 110.25V95H310.931V110C310.931 111.75 311.421 113.146 312.4 114.188C313.389 115.229 314.65 115.75 316.181 115.75C317.098 115.75 318.03 115.516 318.978 115.047C319.936 114.578 320.738 113.859 321.384 112.891C322.04 111.922 322.369 110.687 322.369 109.187ZM337.378 104.562V119H333.69V95H337.253V98.75H337.565C338.128 97.5313 338.982 96.5521 340.128 95.8125C341.273 95.0625 342.753 94.6875 344.565 94.6875C346.19 94.6875 347.612 95.0208 348.831 95.6875C350.049 96.3438 350.997 97.3438 351.674 98.6875C352.351 100.021 352.69 101.708 352.69 103.75V119H349.003V104C349.003 102.115 348.513 100.646 347.534 99.5937C346.555 98.5312 345.211 98 343.503 98C342.325 98 341.273 98.2552 340.346 98.7656C339.43 99.276 338.706 100.021 338.174 101C337.643 101.979 337.378 103.167 337.378 104.562ZM363.996 104.562V119H360.308V95H363.871V98.75H364.183C364.746 97.5313 365.6 96.5521 366.746 95.8125C367.892 95.0625 369.371 94.6875 371.183 94.6875C372.808 94.6875 374.23 95.0208 375.449 95.6875C376.668 96.3438 377.616 97.3438 378.293 98.6875C378.97 100.021 379.308 101.708 379.308 103.75V119H375.621V104C375.621 102.115 375.131 100.646 374.152 99.5937C373.173 98.5312 371.829 98 370.121 98C368.944 98 367.892 98.2552 366.965 98.7656C366.048 99.276 365.324 100.021 364.793 101C364.261 101.979 363.996 103.167 363.996 104.562ZM388.442 128C387.817 128 387.26 127.948 386.77 127.844C386.281 127.75 385.942 127.656 385.755 127.563L386.692 124.313C387.588 124.542 388.38 124.625 389.067 124.562C389.755 124.5 390.364 124.193 390.895 123.641C391.437 123.099 391.932 122.219 392.38 121L393.067 119.125L384.192 95H388.192L394.817 114.125H395.067L401.692 95H405.692L395.505 122.5C395.046 123.74 394.479 124.766 393.802 125.578C393.124 126.401 392.338 127.01 391.442 127.406C390.557 127.802 389.557 128 388.442 128ZM416.314 87L416.002 110H412.377L412.064 87H416.314ZM414.189 119.25C413.419 119.25 412.757 118.974 412.205 118.422C411.653 117.87 411.377 117.208 411.377 116.437C411.377 115.667 411.653 115.005 412.205 114.453C412.757 113.901 413.419 113.625 414.189 113.625C414.96 113.625 415.622 113.901 416.174 114.453C416.726 115.005 417.002 115.667 417.002 116.437C417.002 116.948 416.872 117.417 416.611 117.844C416.361 118.271 416.023 118.615 415.596 118.875C415.179 119.125 414.71 119.25 414.189 119.25ZM434.445 122.08H478.445V78.08H434.445V122.08Z" fill="white"/>
</svg>
