<svg width="981" height="366" viewBox="0 0 981 366" fill="none" xmlns="http://www.w3.org/2000/svg">
<rect x="1" y="1" width="979" height="364" rx="58" fill="#0B0C0C" stroke="#1A1C1F" stroke-width="2"/>
<path d="M79.7621 83.2727V85.9716H68.5888V83.2727H79.7621ZM71.9354 104V80.4119C71.9354 79.2244 72.2143 78.2348 72.772 77.4432C73.3298 76.6515 74.054 76.0578 74.9446 75.6619C75.8352 75.2661 76.7753 75.0682 77.7649 75.0682C78.5476 75.0682 79.1863 75.1312 79.6811 75.2571C80.1759 75.383 80.5447 75.5 80.7876 75.608L79.87 78.3608C79.7081 78.3068 79.4832 78.2393 79.1953 78.1584C78.9164 78.0774 78.5476 78.0369 78.0888 78.0369C77.0362 78.0369 76.276 78.3023 75.8082 78.8331C75.3494 79.3639 75.12 80.142 75.12 81.1676V104H71.9354ZM93.3123 104.432C91.441 104.432 89.7992 103.987 88.3868 103.096C86.9834 102.205 85.8859 100.959 85.0942 99.358C84.3115 97.7566 83.9202 95.8854 83.9202 93.7443C83.9202 91.5852 84.3115 89.7005 85.0942 88.0902C85.8859 86.4799 86.9834 85.2294 88.3868 84.3388C89.7992 83.4482 91.441 83.0028 93.3123 83.0028C95.1835 83.0028 96.8208 83.4482 98.2242 84.3388C99.6366 85.2294 100.734 86.4799 101.517 88.0902C102.308 89.7005 102.704 91.5852 102.704 93.7443C102.704 95.8854 102.308 97.7566 101.517 99.358C100.734 100.959 99.6366 102.205 98.2242 103.096C96.8208 103.987 95.1835 104.432 93.3123 104.432ZM93.3123 101.571C94.7337 101.571 95.9032 101.207 96.8208 100.478C97.7384 99.7493 98.4176 98.7912 98.8584 97.6037C99.2992 96.4162 99.5196 95.1297 99.5196 93.7443C99.5196 92.3589 99.2992 91.0679 98.8584 89.8714C98.4176 88.675 97.7384 87.7079 96.8208 86.9702C95.9032 86.2325 94.7337 85.8636 93.3123 85.8636C91.8909 85.8636 90.7214 86.2325 89.8037 86.9702C88.8861 87.7079 88.2069 88.675 87.7661 89.8714C87.3253 91.0679 87.1049 92.3589 87.1049 93.7443C87.1049 95.1297 87.3253 96.4162 87.7661 97.6037C88.2069 98.7912 88.8861 99.7493 89.8037 100.478C90.7214 101.207 91.8909 101.571 93.3123 101.571ZM117.506 104.432C115.635 104.432 113.993 103.987 112.581 103.096C111.177 102.205 110.08 100.959 109.288 99.358C108.505 97.7566 108.114 95.8854 108.114 93.7443C108.114 91.5852 108.505 89.7005 109.288 88.0902C110.08 86.4799 111.177 85.2294 112.581 84.3388C113.993 83.4482 115.635 83.0028 117.506 83.0028C119.377 83.0028 121.015 83.4482 122.418 84.3388C123.83 85.2294 124.928 86.4799 125.711 88.0902C126.502 89.7005 126.898 91.5852 126.898 93.7443C126.898 95.8854 126.502 97.7566 125.711 99.358C124.928 100.959 123.83 102.205 122.418 103.096C121.015 103.987 119.377 104.432 117.506 104.432ZM117.506 101.571C118.927 101.571 120.097 101.207 121.015 100.478C121.932 99.7493 122.611 98.7912 123.052 97.6037C123.493 96.4162 123.713 95.1297 123.713 93.7443C123.713 92.3589 123.493 91.0679 123.052 89.8714C122.611 88.675 121.932 87.7079 121.015 86.9702C120.097 86.2325 118.927 85.8636 117.506 85.8636C116.085 85.8636 114.915 86.2325 113.998 86.9702C113.08 87.7079 112.401 88.675 111.96 89.8714C111.519 91.0679 111.299 92.3589 111.299 93.7443C111.299 95.1297 111.519 96.4162 111.96 97.6037C112.401 98.7912 113.08 99.7493 113.998 100.478C114.915 101.207 116.085 101.571 117.506 101.571ZM142.294 83.2727V85.9716H131.552V83.2727H142.294ZM134.683 78.3068H137.868V98.0625C137.868 98.9621 137.998 99.6368 138.259 100.087C138.529 100.527 138.871 100.824 139.284 100.977C139.707 101.121 140.153 101.193 140.62 101.193C140.971 101.193 141.259 101.175 141.484 101.139C141.709 101.094 141.889 101.058 142.024 101.031L142.672 103.892C142.456 103.973 142.154 104.054 141.767 104.135C141.381 104.225 140.89 104.27 140.297 104.27C139.397 104.27 138.515 104.076 137.652 103.69C136.797 103.303 136.086 102.714 135.52 101.922C134.962 101.13 134.683 100.132 134.683 98.9261V78.3068ZM151.789 91.5312V104H148.604V83.2727H151.681V86.5114H151.951C152.437 85.4588 153.174 84.6132 154.164 83.9744C155.153 83.3267 156.431 83.0028 157.996 83.0028C159.4 83.0028 160.628 83.2907 161.68 83.8665C162.733 84.4332 163.551 85.2969 164.136 86.4574C164.721 87.6089 165.013 89.0663 165.013 90.8295V104H161.829V91.0455C161.829 89.4171 161.406 88.1487 160.56 87.2401C159.714 86.3224 158.554 85.8636 157.079 85.8636C156.062 85.8636 155.153 86.084 154.353 86.5249C153.561 86.9657 152.936 87.6089 152.477 88.4545C152.018 89.3002 151.789 90.3258 151.789 91.5312ZM180.773 104.432C178.902 104.432 177.26 103.987 175.848 103.096C174.444 102.205 173.347 100.959 172.555 99.358C171.772 97.7566 171.381 95.8854 171.381 93.7443C171.381 91.5852 171.772 89.7005 172.555 88.0902C173.347 86.4799 174.444 85.2294 175.848 84.3388C177.26 83.4482 178.902 83.0028 180.773 83.0028C182.644 83.0028 184.282 83.4482 185.685 84.3388C187.097 85.2294 188.195 86.4799 188.978 88.0902C189.769 89.7005 190.165 91.5852 190.165 93.7443C190.165 95.8854 189.769 97.7566 188.978 99.358C188.195 100.959 187.097 102.205 185.685 103.096C184.282 103.987 182.644 104.432 180.773 104.432ZM180.773 101.571C182.195 101.571 183.364 101.207 184.282 100.478C185.199 99.7493 185.878 98.7912 186.319 97.6037C186.76 96.4162 186.981 95.1297 186.981 93.7443C186.981 92.3589 186.76 91.0679 186.319 89.8714C185.878 88.675 185.199 87.7079 184.282 86.9702C183.364 86.2325 182.195 85.8636 180.773 85.8636C179.352 85.8636 178.182 86.2325 177.265 86.9702C176.347 87.7079 175.668 88.675 175.227 89.8714C174.786 91.0679 174.566 92.3589 174.566 93.7443C174.566 95.1297 174.786 96.4162 175.227 97.6037C175.668 98.7912 176.347 99.7493 177.265 100.478C178.182 101.207 179.352 101.571 180.773 101.571ZM205.561 83.2727V85.9716H194.819V83.2727H205.561ZM197.95 78.3068H201.135V98.0625C201.135 98.9621 201.265 99.6368 201.526 100.087C201.796 100.527 202.138 100.824 202.551 100.977C202.974 101.121 203.42 101.193 203.887 101.193C204.238 101.193 204.526 101.175 204.751 101.139C204.976 101.094 205.156 101.058 205.291 101.031L205.939 103.892C205.723 103.973 205.421 104.054 205.034 104.135C204.648 104.225 204.157 104.27 203.564 104.27C202.664 104.27 201.782 104.076 200.919 103.69C200.064 103.303 199.353 102.714 198.787 101.922C198.229 101.13 197.95 100.132 197.95 98.9261V78.3068ZM220.339 104.432C218.342 104.432 216.619 103.991 215.171 103.109C213.731 102.219 212.62 100.977 211.837 99.3849C211.064 97.7836 210.677 95.9214 210.677 93.7983C210.677 91.6752 211.064 89.804 211.837 88.1847C212.62 86.5563 213.709 85.2879 215.103 84.3793C216.506 83.4616 218.144 83.0028 220.015 83.0028C221.095 83.0028 222.161 83.1828 223.213 83.5426C224.266 83.9025 225.224 84.4872 226.087 85.2969C226.951 86.0975 227.639 87.1591 228.152 88.4815C228.665 89.804 228.921 91.4323 228.921 93.3665V94.7159H212.944V91.9631H225.683C225.683 90.7936 225.449 89.75 224.981 88.8324C224.522 87.9148 223.865 87.1906 223.011 86.6598C222.165 86.129 221.167 85.8636 220.015 85.8636C218.747 85.8636 217.649 86.1785 216.722 86.8082C215.805 87.429 215.099 88.2386 214.604 89.2372C214.109 90.2358 213.862 91.3063 213.862 92.4489V94.2841C213.862 95.8494 214.131 97.1764 214.671 98.2649C215.22 99.3445 215.98 100.168 216.952 100.734C217.923 101.292 219.052 101.571 220.339 101.571C221.176 101.571 221.931 101.454 222.606 101.22C223.29 100.977 223.879 100.617 224.374 100.141C224.868 99.6548 225.251 99.0521 225.521 98.3324L228.597 99.196C228.274 100.24 227.729 101.157 226.965 101.949C226.2 102.732 225.255 103.343 224.131 103.784C223.006 104.216 221.742 104.432 220.339 104.432ZM237.607 104.216C236.941 104.216 236.37 103.978 235.893 103.501C235.416 103.024 235.178 102.453 235.178 101.787C235.178 101.121 235.416 100.55 235.893 100.073C236.37 99.5964 236.941 99.358 237.607 99.358C238.272 99.358 238.844 99.5964 239.321 100.073C239.797 100.55 240.036 101.121 240.036 101.787C240.036 102.228 239.923 102.633 239.698 103.001C239.482 103.37 239.19 103.667 238.821 103.892C238.461 104.108 238.057 104.216 237.607 104.216Z" fill="white"/>
<path d="M283.722 67.1818V89H281.08V69.9517H280.952L275.625 73.4886V70.804L281.08 67.1818H283.722Z" fill="#4F81FE"/>
<path d="M304.872 89V87.0824L312.074 79.1989C312.919 78.2756 313.615 77.473 314.162 76.7912C314.708 76.1023 315.113 75.456 315.376 74.8523C315.646 74.2415 315.781 73.6023 315.781 72.9347C315.781 72.1676 315.596 71.5036 315.227 70.9425C314.865 70.3814 314.368 69.9482 313.735 69.6428C313.103 69.3374 312.393 69.1847 311.605 69.1847C310.767 69.1847 310.035 69.3587 309.41 69.7067C308.792 70.0476 308.313 70.527 307.972 71.1449C307.638 71.7628 307.471 72.4872 307.471 73.3182H304.957C304.957 72.0398 305.252 70.9176 305.841 69.9517C306.431 68.9858 307.233 68.233 308.249 67.6932C309.272 67.1534 310.419 66.8835 311.69 66.8835C312.968 66.8835 314.101 67.1534 315.088 67.6932C316.076 68.233 316.85 68.9609 317.411 69.8771C317.972 70.7933 318.252 71.8125 318.252 72.9347C318.252 73.7372 318.107 74.522 317.816 75.2891C317.532 76.049 317.034 76.8977 316.324 77.8352C315.621 78.7656 314.645 79.902 313.395 81.2443L308.494 86.4858V86.6562H318.636V89H304.872Z" fill="#4F81FE"/>
<path d="M130.818 193.182V215H128.176V195.952H128.049L122.722 199.489V196.804L128.176 193.182H130.818ZM141.72 215.17C141.194 215.17 140.743 214.982 140.367 214.606C139.99 214.229 139.802 213.778 139.802 213.253C139.802 212.727 139.99 212.276 140.367 211.9C140.743 211.523 141.194 211.335 141.72 211.335C142.245 211.335 142.696 211.523 143.073 211.9C143.449 212.276 143.637 212.727 143.637 213.253C143.637 213.601 143.548 213.92 143.371 214.212C143.2 214.503 142.97 214.737 142.678 214.915C142.394 215.085 142.075 215.17 141.72 215.17ZM157.297 195.526V193.182H173.66V195.526H166.799V215H164.157V195.526H157.297ZM179.911 205.156V215H177.397V193.182H179.911V201.193H180.124C180.508 200.348 181.083 199.677 181.85 199.18C182.624 198.675 183.654 198.423 184.939 198.423C186.055 198.423 187.031 198.647 187.869 199.094C188.707 199.535 189.357 200.213 189.819 201.129C190.287 202.038 190.522 203.196 190.522 204.602V215H188.008V204.773C188.008 203.473 187.67 202.468 186.996 201.758C186.328 201.04 185.401 200.682 184.215 200.682C183.391 200.682 182.653 200.856 181.999 201.204C181.353 201.552 180.841 202.06 180.465 202.727C180.096 203.395 179.911 204.205 179.911 205.156ZM195.121 215V198.636H197.636V215H195.121ZM196.4 195.909C195.91 195.909 195.487 195.742 195.132 195.408C194.784 195.075 194.61 194.673 194.61 194.205C194.61 193.736 194.784 193.335 195.132 193.001C195.487 192.667 195.91 192.5 196.4 192.5C196.89 192.5 197.309 192.667 197.657 193.001C198.012 193.335 198.19 193.736 198.19 194.205C198.19 194.673 198.012 195.075 197.657 195.408C197.309 195.742 196.89 195.909 196.4 195.909ZM213.831 202.301L211.573 202.94C211.431 202.564 211.221 202.198 210.944 201.843C210.675 201.481 210.305 201.183 209.836 200.948C209.368 200.714 208.768 200.597 208.036 200.597C207.035 200.597 206.2 200.827 205.532 201.289C204.872 201.744 204.542 202.322 204.542 203.026C204.542 203.651 204.769 204.144 205.224 204.506C205.678 204.869 206.388 205.17 207.354 205.412L209.783 206.009C211.246 206.364 212.336 206.907 213.054 207.638C213.771 208.363 214.13 209.297 214.13 210.44C214.13 211.378 213.86 212.216 213.32 212.955C212.787 213.693 212.042 214.276 211.083 214.702C210.124 215.128 209.009 215.341 207.738 215.341C206.069 215.341 204.687 214.979 203.594 214.254C202.5 213.53 201.807 212.472 201.516 211.08L203.903 210.483C204.13 211.364 204.559 212.024 205.192 212.464C205.831 212.905 206.665 213.125 207.695 213.125C208.867 213.125 209.797 212.876 210.486 212.379C211.182 211.875 211.53 211.271 211.53 210.568C211.53 210 211.331 209.524 210.934 209.141C210.536 208.75 209.925 208.459 209.101 208.267L206.374 207.628C204.876 207.273 203.775 206.722 203.072 205.977C202.376 205.224 202.028 204.283 202.028 203.153C202.028 202.23 202.287 201.413 202.805 200.703C203.331 199.993 204.045 199.435 204.947 199.031C205.856 198.626 206.885 198.423 208.036 198.423C209.655 198.423 210.927 198.778 211.85 199.489C212.78 200.199 213.441 201.136 213.831 202.301ZM226.352 215V198.636H228.866V215H226.352ZM227.63 195.909C227.14 195.909 226.718 195.742 226.363 195.408C226.015 195.075 225.841 194.673 225.841 194.205C225.841 193.736 226.015 193.335 226.363 193.001C226.718 192.667 227.14 192.5 227.63 192.5C228.12 192.5 228.539 192.667 228.887 193.001C229.243 193.335 229.42 193.736 229.42 194.205C229.42 194.673 229.243 195.075 228.887 195.408C228.539 195.742 228.12 195.909 227.63 195.909ZM245.062 202.301L242.803 202.94C242.661 202.564 242.452 202.198 242.175 201.843C241.905 201.481 241.536 201.183 241.067 200.948C240.598 200.714 239.998 200.597 239.267 200.597C238.265 200.597 237.431 200.827 236.763 201.289C236.102 201.744 235.772 202.322 235.772 203.026C235.772 203.651 235.999 204.144 236.454 204.506C236.909 204.869 237.619 205.17 238.585 205.412L241.014 206.009C242.477 206.364 243.567 206.907 244.284 207.638C245.002 208.363 245.36 209.297 245.36 210.44C245.36 211.378 245.09 212.216 244.551 212.955C244.018 213.693 243.272 214.276 242.313 214.702C241.355 215.128 240.24 215.341 238.968 215.341C237.299 215.341 235.918 214.979 234.824 214.254C233.73 213.53 233.038 212.472 232.747 211.08L235.133 210.483C235.36 211.364 235.79 212.024 236.422 212.464C237.061 212.905 237.896 213.125 238.926 213.125C240.097 213.125 241.028 212.876 241.717 212.379C242.413 211.875 242.761 211.271 242.761 210.568C242.761 210 242.562 209.524 242.164 209.141C241.767 208.75 241.156 208.459 240.332 208.267L237.605 207.628C236.106 207.273 235.005 206.722 234.302 205.977C233.606 205.224 233.258 204.283 233.258 203.153C233.258 202.23 233.517 201.413 234.036 200.703C234.561 199.993 235.275 199.435 236.177 199.031C237.086 198.626 238.116 198.423 239.267 198.423C240.886 198.423 242.157 198.778 243.08 199.489C244.011 200.199 244.671 201.136 245.062 202.301ZM264.699 198.636V200.767H256.219V198.636H264.699ZM258.69 194.716H261.205V210.312C261.205 211.023 261.308 211.555 261.513 211.911C261.727 212.259 261.996 212.493 262.323 212.614C262.657 212.727 263.009 212.784 263.378 212.784C263.655 212.784 263.882 212.77 264.06 212.741C264.237 212.706 264.379 212.678 264.486 212.656L264.997 214.915C264.827 214.979 264.589 215.043 264.283 215.107C263.978 215.178 263.591 215.213 263.122 215.213C262.412 215.213 261.716 215.06 261.034 214.755C260.359 214.45 259.798 213.984 259.351 213.359C258.911 212.734 258.69 211.946 258.69 210.994V194.716ZM271.347 205.156V215H268.832V193.182H271.347V201.193H271.56C271.943 200.348 272.518 199.677 273.286 199.18C274.06 198.675 275.089 198.423 276.375 198.423C277.49 198.423 278.467 198.647 279.305 199.094C280.143 199.535 280.793 200.213 281.254 201.129C281.723 202.038 281.957 203.196 281.957 204.602V215H279.443V204.773C279.443 203.473 279.106 202.468 278.431 201.758C277.763 201.04 276.837 200.682 275.651 200.682C274.827 200.682 274.088 200.856 273.435 201.204C272.788 201.552 272.277 202.06 271.901 202.727C271.531 203.395 271.347 204.205 271.347 205.156ZM293.418 215.341C291.841 215.341 290.481 214.993 289.338 214.297C288.201 213.594 287.324 212.614 286.706 211.357C286.095 210.092 285.79 208.622 285.79 206.946C285.79 205.27 286.095 203.793 286.706 202.514C287.324 201.229 288.183 200.227 289.284 199.51C290.392 198.786 291.685 198.423 293.162 198.423C294.014 198.423 294.856 198.565 295.687 198.849C296.518 199.134 297.274 199.595 297.956 200.234C298.638 200.866 299.181 201.705 299.586 202.749C299.991 203.793 300.193 205.078 300.193 206.605V207.67H287.58V205.497H297.637C297.637 204.574 297.452 203.75 297.083 203.026C296.72 202.301 296.202 201.729 295.527 201.31C294.86 200.891 294.071 200.682 293.162 200.682C292.161 200.682 291.294 200.93 290.563 201.428C289.838 201.918 289.281 202.557 288.89 203.345C288.499 204.134 288.304 204.979 288.304 205.881V207.33C288.304 208.565 288.517 209.613 288.943 210.472C289.377 211.325 289.977 211.974 290.744 212.422C291.511 212.862 292.402 213.082 293.418 213.082C294.078 213.082 294.675 212.99 295.208 212.805C295.747 212.614 296.213 212.33 296.603 211.953C296.994 211.57 297.296 211.094 297.509 210.526L299.938 211.207C299.682 212.031 299.252 212.756 298.649 213.381C298.045 213.999 297.299 214.482 296.411 214.83C295.524 215.17 294.526 215.341 293.418 215.341ZM319.742 198.636V200.767H310.921V198.636H319.742ZM313.563 215V196.378C313.563 195.44 313.784 194.659 314.224 194.034C314.664 193.409 315.236 192.94 315.939 192.628C316.642 192.315 317.384 192.159 318.166 192.159C318.784 192.159 319.288 192.209 319.678 192.308C320.069 192.408 320.36 192.5 320.552 192.585L319.828 194.759C319.7 194.716 319.522 194.663 319.295 194.599C319.075 194.535 318.784 194.503 318.421 194.503C317.59 194.503 316.99 194.712 316.621 195.131C316.259 195.55 316.078 196.165 316.078 196.974V215H313.563ZM329.24 215.341C327.763 215.341 326.466 214.989 325.351 214.286C324.243 213.583 323.377 212.599 322.752 211.335C322.134 210.071 321.825 208.594 321.825 206.903C321.825 205.199 322.134 203.711 322.752 202.44C323.377 201.168 324.243 200.181 325.351 199.478C326.466 198.775 327.763 198.423 329.24 198.423C330.717 198.423 332.01 198.775 333.118 199.478C334.233 200.181 335.099 201.168 335.717 202.44C336.342 203.711 336.655 205.199 336.655 206.903C336.655 208.594 336.342 210.071 335.717 211.335C335.099 212.599 334.233 213.583 333.118 214.286C332.01 214.989 330.717 215.341 329.24 215.341ZM329.24 213.082C330.362 213.082 331.285 212.795 332.01 212.219C332.734 211.644 333.27 210.888 333.618 209.95C333.966 209.013 334.14 207.997 334.14 206.903C334.14 205.81 333.966 204.79 333.618 203.846C333.27 202.901 332.734 202.138 332.01 201.555C331.285 200.973 330.362 200.682 329.24 200.682C328.118 200.682 327.194 200.973 326.47 201.555C325.746 202.138 325.209 202.901 324.861 203.846C324.513 204.79 324.339 205.81 324.339 206.903C324.339 207.997 324.513 209.013 324.861 209.95C325.209 210.888 325.746 211.644 326.47 212.219C327.194 212.795 328.118 213.082 329.24 213.082ZM347.14 215.341C345.663 215.341 344.367 214.989 343.252 214.286C342.144 213.583 341.277 212.599 340.652 211.335C340.034 210.071 339.725 208.594 339.725 206.903C339.725 205.199 340.034 203.711 340.652 202.44C341.277 201.168 342.144 200.181 343.252 199.478C344.367 198.775 345.663 198.423 347.14 198.423C348.618 198.423 349.91 198.775 351.018 199.478C352.133 200.181 353 201.168 353.618 202.44C354.243 203.711 354.555 205.199 354.555 206.903C354.555 208.594 354.243 210.071 353.618 211.335C353 212.599 352.133 213.583 351.018 214.286C349.91 214.989 348.618 215.341 347.14 215.341ZM347.14 213.082C348.262 213.082 349.186 212.795 349.91 212.219C350.635 211.644 351.171 210.888 351.519 209.95C351.867 209.013 352.041 207.997 352.041 206.903C352.041 205.81 351.867 204.79 351.519 203.846C351.171 202.901 350.635 202.138 349.91 201.555C349.186 200.973 348.262 200.682 347.14 200.682C346.018 200.682 345.095 200.973 344.37 201.555C343.646 202.138 343.11 202.901 342.762 203.846C342.414 204.79 342.24 205.81 342.24 206.903C342.24 207.997 342.414 209.013 342.762 209.95C343.11 210.888 343.646 211.644 344.37 212.219C345.095 212.795 346.018 213.082 347.14 213.082ZM365.509 198.636V200.767H357.029V198.636H365.509ZM359.501 194.716H362.015V210.312C362.015 211.023 362.118 211.555 362.324 211.911C362.537 212.259 362.807 212.493 363.134 212.614C363.468 212.727 363.819 212.784 364.188 212.784C364.465 212.784 364.693 212.77 364.87 212.741C365.048 212.706 365.19 212.678 365.296 212.656L365.808 214.915C365.637 214.979 365.399 215.043 365.094 215.107C364.789 215.178 364.401 215.213 363.933 215.213C363.222 215.213 362.526 215.06 361.845 214.755C361.17 214.45 360.609 213.984 360.161 213.359C359.721 212.734 359.501 211.946 359.501 210.994V194.716ZM371.806 205.156V215H369.291V198.636H371.72V201.193H371.933C372.317 200.362 372.899 199.695 373.681 199.19C374.462 198.679 375.47 198.423 376.706 198.423C377.814 198.423 378.784 198.651 379.615 199.105C380.445 199.553 381.092 200.234 381.553 201.151C382.015 202.06 382.246 203.21 382.246 204.602V215H379.732V204.773C379.732 203.487 379.398 202.486 378.73 201.768C378.063 201.044 377.146 200.682 375.982 200.682C375.179 200.682 374.462 200.856 373.83 201.204C373.205 201.552 372.711 202.06 372.349 202.727C371.987 203.395 371.806 204.205 371.806 205.156ZM393.488 215.341C392.011 215.341 390.714 214.989 389.599 214.286C388.491 213.583 387.625 212.599 387 211.335C386.382 210.071 386.073 208.594 386.073 206.903C386.073 205.199 386.382 203.711 387 202.44C387.625 201.168 388.491 200.181 389.599 199.478C390.714 198.775 392.011 198.423 393.488 198.423C394.965 198.423 396.258 198.775 397.366 199.478C398.481 200.181 399.347 201.168 399.965 202.44C400.59 203.711 400.903 205.199 400.903 206.903C400.903 208.594 400.59 210.071 399.965 211.335C399.347 212.599 398.481 213.583 397.366 214.286C396.258 214.989 394.965 215.341 393.488 215.341ZM393.488 213.082C394.61 213.082 395.533 212.795 396.258 212.219C396.982 211.644 397.518 210.888 397.866 209.95C398.214 209.013 398.388 207.997 398.388 206.903C398.388 205.81 398.214 204.79 397.866 203.846C397.518 202.901 396.982 202.138 396.258 201.555C395.533 200.973 394.61 200.682 393.488 200.682C392.366 200.682 391.442 200.973 390.718 201.555C389.994 202.138 389.457 202.901 389.109 203.846C388.761 204.79 388.587 205.81 388.587 206.903C388.587 207.997 388.761 209.013 389.109 209.95C389.457 210.888 389.994 211.644 390.718 212.219C391.442 212.795 392.366 213.082 393.488 213.082ZM411.857 198.636V200.767H403.377V198.636H411.857ZM405.849 194.716H408.363V210.312C408.363 211.023 408.466 211.555 408.672 211.911C408.885 212.259 409.155 212.493 409.481 212.614C409.815 212.727 410.167 212.784 410.536 212.784C410.813 212.784 411.04 212.77 411.218 212.741C411.395 212.706 411.537 212.678 411.644 212.656L412.155 214.915C411.985 214.979 411.747 215.043 411.442 215.107C411.136 215.178 410.749 215.213 410.28 215.213C409.57 215.213 408.874 215.06 408.192 214.755C407.518 214.45 406.956 213.984 406.509 213.359C406.069 212.734 405.849 211.946 405.849 210.994V194.716ZM422.324 215.341C420.747 215.341 419.387 214.993 418.244 214.297C417.107 213.594 416.23 212.614 415.612 211.357C415.002 210.092 414.696 208.622 414.696 206.946C414.696 205.27 415.002 203.793 415.612 202.514C416.23 201.229 417.09 200.227 418.191 199.51C419.298 198.786 420.591 198.423 422.068 198.423C422.921 198.423 423.762 198.565 424.593 198.849C425.424 199.134 426.181 199.595 426.862 200.234C427.544 200.866 428.088 201.705 428.492 202.749C428.897 203.793 429.1 205.078 429.1 206.605V207.67H416.486V205.497H426.543C426.543 204.574 426.358 203.75 425.989 203.026C425.627 202.301 425.108 201.729 424.433 201.31C423.766 200.891 422.977 200.682 422.068 200.682C421.067 200.682 420.2 200.93 419.469 201.428C418.744 201.918 418.187 202.557 417.796 203.345C417.406 204.134 417.21 204.979 417.21 205.881V207.33C417.21 208.565 417.423 209.613 417.85 210.472C418.283 211.325 418.883 211.974 419.65 212.422C420.417 212.862 421.308 213.082 422.324 213.082C422.985 213.082 423.581 212.99 424.114 212.805C424.654 212.614 425.119 212.33 425.509 211.953C425.9 211.57 426.202 211.094 426.415 210.526L428.844 211.207C428.588 212.031 428.159 212.756 427.555 213.381C426.951 213.999 426.205 214.482 425.318 214.83C424.43 215.17 423.432 215.341 422.324 215.341ZM434.757 215.17C434.231 215.17 433.78 214.982 433.404 214.606C433.027 214.229 432.839 213.778 432.839 213.253C432.839 212.727 433.027 212.276 433.404 211.9C433.78 211.523 434.231 211.335 434.757 211.335C435.282 211.335 435.733 211.523 436.11 211.9C436.486 212.276 436.674 212.727 436.674 213.253C436.674 213.601 436.585 213.92 436.408 214.212C436.237 214.503 436.007 214.737 435.715 214.915C435.431 215.085 435.112 215.17 434.757 215.17Z" fill="#768698"/>
<path d="M452.777 206.626V204.283H471.676C472.542 204.283 473.331 204.07 474.041 203.643C474.758 203.217 475.327 202.646 475.746 201.928C476.172 201.211 476.385 200.419 476.385 199.553C476.385 198.686 476.172 197.898 475.746 197.188C475.319 196.477 474.751 195.909 474.041 195.483C473.331 195.057 472.542 194.844 471.676 194.844H470.589V192.5H471.676C472.976 192.5 474.158 192.82 475.224 193.459C476.289 194.091 477.138 194.94 477.77 196.005C478.409 197.07 478.729 198.253 478.729 199.553C478.729 200.526 478.544 201.442 478.175 202.301C477.812 203.153 477.308 203.906 476.662 204.56C476.015 205.206 475.266 205.714 474.414 206.083C473.562 206.445 472.649 206.626 471.676 206.626H452.777ZM459.829 215L450.284 205.455L459.829 195.909L461.459 197.539L453.533 205.455L461.459 213.37L459.829 215Z" fill="#4F81FE"/>
<path d="M121.06 276V274.082L128.262 266.199C129.107 265.276 129.803 264.473 130.35 263.791C130.897 263.102 131.301 262.456 131.564 261.852C131.834 261.241 131.969 260.602 131.969 259.935C131.969 259.168 131.784 258.504 131.415 257.942C131.053 257.381 130.556 256.948 129.924 256.643C129.291 256.337 128.581 256.185 127.793 256.185C126.955 256.185 126.223 256.359 125.598 256.707C124.98 257.048 124.501 257.527 124.16 258.145C123.826 258.763 123.659 259.487 123.659 260.318H121.145C121.145 259.04 121.44 257.918 122.029 256.952C122.619 255.986 123.421 255.233 124.437 254.693C125.46 254.153 126.607 253.884 127.878 253.884C129.157 253.884 130.289 254.153 131.277 254.693C132.264 255.233 133.038 255.961 133.599 256.877C134.16 257.793 134.441 258.812 134.441 259.935C134.441 260.737 134.295 261.522 134.004 262.289C133.72 263.049 133.223 263.898 132.512 264.835C131.809 265.766 130.833 266.902 129.583 268.244L124.682 273.486V273.656H134.824V276H121.06ZM141.72 276.17C141.194 276.17 140.743 275.982 140.367 275.606C139.99 275.229 139.802 274.778 139.802 274.253C139.802 273.727 139.99 273.276 140.367 272.9C140.743 272.523 141.194 272.335 141.72 272.335C142.245 272.335 142.696 272.523 143.073 272.9C143.449 273.276 143.637 273.727 143.637 274.253C143.637 274.601 143.548 274.92 143.371 275.212C143.2 275.503 142.97 275.737 142.678 275.915C142.394 276.085 142.075 276.17 141.72 276.17ZM157.297 256.526V254.182H173.66V256.526H166.799V276H164.157V256.526H157.297ZM180.151 266.156V276H177.637V254.182H180.151V262.193H180.364C180.748 261.348 181.323 260.677 182.09 260.18C182.864 259.675 183.894 259.423 185.179 259.423C186.295 259.423 187.271 259.647 188.109 260.094C188.947 260.535 189.597 261.213 190.059 262.129C190.527 263.038 190.762 264.196 190.762 265.602V276H188.248V265.773C188.248 264.473 187.91 263.468 187.236 262.758C186.568 262.04 185.641 261.682 184.455 261.682C183.631 261.682 182.893 261.856 182.239 262.204C181.593 262.552 181.081 263.06 180.705 263.727C180.336 264.395 180.151 265.205 180.151 266.156ZM195.601 276V259.636H198.116V276H195.601ZM196.88 256.909C196.39 256.909 195.967 256.742 195.612 256.408C195.264 256.075 195.09 255.673 195.09 255.205C195.09 254.736 195.264 254.335 195.612 254.001C195.967 253.667 196.39 253.5 196.88 253.5C197.37 253.5 197.789 253.667 198.137 254.001C198.492 254.335 198.67 254.736 198.67 255.205C198.67 255.673 198.492 256.075 198.137 256.408C197.789 256.742 197.37 256.909 196.88 256.909ZM214.551 263.301L212.293 263.94C212.151 263.564 211.941 263.198 211.664 262.843C211.395 262.481 211.025 262.183 210.556 261.948C210.088 261.714 209.488 261.597 208.756 261.597C207.755 261.597 206.92 261.827 206.252 262.289C205.592 262.744 205.262 263.322 205.262 264.026C205.262 264.651 205.489 265.144 205.944 265.506C206.398 265.869 207.108 266.17 208.074 266.412L210.503 267.009C211.966 267.364 213.056 267.907 213.774 268.638C214.491 269.363 214.85 270.297 214.85 271.44C214.85 272.378 214.58 273.216 214.04 273.955C213.507 274.693 212.762 275.276 211.803 275.702C210.844 276.128 209.729 276.341 208.458 276.341C206.789 276.341 205.407 275.979 204.314 275.254C203.22 274.53 202.527 273.472 202.236 272.08L204.623 271.483C204.85 272.364 205.279 273.024 205.912 273.464C206.551 273.905 207.385 274.125 208.415 274.125C209.587 274.125 210.517 273.876 211.206 273.379C211.902 272.875 212.25 272.271 212.25 271.568C212.25 271 212.052 270.524 211.654 270.141C211.256 269.75 210.645 269.459 209.821 269.267L207.094 268.628C205.596 268.273 204.495 267.722 203.792 266.977C203.096 266.224 202.748 265.283 202.748 264.153C202.748 263.23 203.007 262.413 203.525 261.703C204.051 260.993 204.765 260.435 205.667 260.031C206.576 259.626 207.605 259.423 208.756 259.423C210.375 259.423 211.647 259.778 212.57 260.489C213.5 261.199 214.161 262.136 214.551 263.301ZM227.552 276V259.636H230.066V276H227.552ZM228.83 256.909C228.34 256.909 227.918 256.742 227.563 256.408C227.215 256.075 227.041 255.673 227.041 255.205C227.041 254.736 227.215 254.335 227.563 254.001C227.918 253.667 228.34 253.5 228.83 253.5C229.32 253.5 229.739 253.667 230.087 254.001C230.443 254.335 230.62 254.736 230.62 255.205C230.62 255.673 230.443 256.075 230.087 256.408C229.739 256.742 229.32 256.909 228.83 256.909ZM246.502 263.301L244.243 263.94C244.101 263.564 243.892 263.198 243.615 262.843C243.345 262.481 242.976 262.183 242.507 261.948C242.038 261.714 241.438 261.597 240.707 261.597C239.705 261.597 238.871 261.827 238.203 262.289C237.542 262.744 237.212 263.322 237.212 264.026C237.212 264.651 237.439 265.144 237.894 265.506C238.349 265.869 239.059 266.17 240.025 266.412L242.454 267.009C243.917 267.364 245.007 267.907 245.724 268.638C246.442 269.363 246.8 270.297 246.8 271.44C246.8 272.378 246.53 273.216 245.991 273.955C245.458 274.693 244.712 275.276 243.753 275.702C242.795 276.128 241.68 276.341 240.408 276.341C238.739 276.341 237.358 275.979 236.264 275.254C235.17 274.53 234.478 273.472 234.187 272.08L236.573 271.483C236.8 272.364 237.23 273.024 237.862 273.464C238.501 273.905 239.336 274.125 240.366 274.125C241.537 274.125 242.468 273.876 243.157 273.379C243.853 272.875 244.201 272.271 244.201 271.568C244.201 271 244.002 270.524 243.604 270.141C243.207 269.75 242.596 269.459 241.772 269.267L239.045 268.628C237.546 268.273 236.445 267.722 235.742 266.977C235.046 266.224 234.698 265.283 234.698 264.153C234.698 263.23 234.957 262.413 235.476 261.703C236.001 260.993 236.715 260.435 237.617 260.031C238.526 259.626 239.556 259.423 240.707 259.423C242.326 259.423 243.597 259.778 244.52 260.489C245.451 261.199 246.111 262.136 246.502 263.301ZM266.619 259.636V261.767H258.139V259.636H266.619ZM260.61 255.716H263.125V271.312C263.125 272.023 263.228 272.555 263.433 272.911C263.647 273.259 263.916 273.493 264.243 273.614C264.577 273.727 264.929 273.784 265.298 273.784C265.575 273.784 265.802 273.77 265.98 273.741C266.157 273.706 266.299 273.678 266.406 273.656L266.917 275.915C266.747 275.979 266.509 276.043 266.203 276.107C265.898 276.178 265.511 276.213 265.042 276.213C264.332 276.213 263.636 276.06 262.954 275.755C262.279 275.45 261.718 274.984 261.271 274.359C260.831 273.734 260.61 272.946 260.61 271.994V255.716ZM273.507 266.156V276H270.992V254.182H273.507V262.193H273.72C274.103 261.348 274.678 260.677 275.446 260.18C276.22 259.675 277.249 259.423 278.535 259.423C279.65 259.423 280.627 259.647 281.465 260.094C282.303 260.535 282.953 261.213 283.414 262.129C283.883 263.038 284.117 264.196 284.117 265.602V276H281.603V265.773C281.603 264.473 281.266 263.468 280.591 262.758C279.923 262.04 278.997 261.682 277.811 261.682C276.987 261.682 276.248 261.856 275.595 262.204C274.948 262.552 274.437 263.06 274.061 263.727C273.691 264.395 273.507 265.205 273.507 266.156ZM295.818 276.341C294.241 276.341 292.881 275.993 291.738 275.297C290.601 274.594 289.724 273.614 289.106 272.357C288.495 271.092 288.19 269.622 288.19 267.946C288.19 266.27 288.495 264.793 289.106 263.514C289.724 262.229 290.583 261.227 291.684 260.51C292.792 259.786 294.085 259.423 295.562 259.423C296.414 259.423 297.256 259.565 298.087 259.849C298.918 260.134 299.674 260.595 300.356 261.234C301.038 261.866 301.581 262.705 301.986 263.749C302.391 264.793 302.593 266.078 302.593 267.605V268.67H289.98V266.497H300.037C300.037 265.574 299.852 264.75 299.483 264.026C299.12 263.301 298.602 262.729 297.927 262.31C297.26 261.891 296.471 261.682 295.562 261.682C294.561 261.682 293.694 261.93 292.963 262.428C292.238 262.918 291.681 263.557 291.29 264.345C290.899 265.134 290.704 265.979 290.704 266.881V268.33C290.704 269.565 290.917 270.613 291.343 271.472C291.777 272.325 292.377 272.974 293.144 273.422C293.911 273.862 294.802 274.082 295.818 274.082C296.478 274.082 297.075 273.99 297.608 273.805C298.147 273.614 298.613 273.33 299.003 272.953C299.394 272.57 299.696 272.094 299.909 271.526L302.338 272.207C302.082 273.031 301.652 273.756 301.049 274.381C300.445 274.999 299.699 275.482 298.811 275.83C297.924 276.17 296.926 276.341 295.818 276.341ZM326.926 263.301L324.668 263.94C324.526 263.564 324.316 263.198 324.039 262.843C323.769 262.481 323.4 262.183 322.931 261.948C322.463 261.714 321.862 261.597 321.131 261.597C320.129 261.597 319.295 261.827 318.627 262.289C317.967 262.744 317.637 263.322 317.637 264.026C317.637 264.651 317.864 265.144 318.318 265.506C318.773 265.869 319.483 266.17 320.449 266.412L322.878 267.009C324.341 267.364 325.431 267.907 326.149 268.638C326.866 269.363 327.225 270.297 327.225 271.44C327.225 272.378 326.955 273.216 326.415 273.955C325.882 274.693 325.137 275.276 324.178 275.702C323.219 276.128 322.104 276.341 320.833 276.341C319.164 276.341 317.782 275.979 316.688 275.254C315.595 274.53 314.902 273.472 314.611 272.08L316.997 271.483C317.225 272.364 317.654 273.024 318.286 273.464C318.926 273.905 319.76 274.125 320.79 274.125C321.962 274.125 322.892 273.876 323.581 273.379C324.277 272.875 324.625 272.271 324.625 271.568C324.625 271 324.426 270.524 324.029 270.141C323.631 269.75 323.02 269.459 322.196 269.267L319.469 268.628C317.97 268.273 316.87 267.722 316.166 266.977C315.47 266.224 315.122 265.283 315.122 264.153C315.122 263.23 315.382 262.413 315.9 261.703C316.426 260.993 317.139 260.435 318.041 260.031C318.95 259.626 319.98 259.423 321.131 259.423C322.75 259.423 324.022 259.778 324.945 260.489C325.875 261.199 326.536 262.136 326.926 263.301ZM338.11 276.341C336.533 276.341 335.173 275.993 334.03 275.297C332.893 274.594 332.016 273.614 331.398 272.357C330.788 271.092 330.482 269.622 330.482 267.946C330.482 266.27 330.788 264.793 331.398 263.514C332.016 262.229 332.876 261.227 333.977 260.51C335.084 259.786 336.377 259.423 337.854 259.423C338.707 259.423 339.548 259.565 340.379 259.849C341.21 260.134 341.967 260.595 342.648 261.234C343.33 261.866 343.874 262.705 344.278 263.749C344.683 264.793 344.886 266.078 344.886 267.605V268.67H332.272V266.497H342.329C342.329 265.574 342.144 264.75 341.775 264.026C341.413 263.301 340.894 262.729 340.219 262.31C339.552 261.891 338.763 261.682 337.854 261.682C336.853 261.682 335.986 261.93 335.255 262.428C334.531 262.918 333.973 263.557 333.582 264.345C333.192 265.134 332.996 265.979 332.996 266.881V268.33C332.996 269.565 333.209 270.613 333.636 271.472C334.069 272.325 334.669 272.974 335.436 273.422C336.203 273.862 337.094 274.082 338.11 274.082C338.771 274.082 339.367 273.99 339.9 273.805C340.44 273.614 340.905 273.33 341.295 272.953C341.686 272.57 341.988 272.094 342.201 271.526L344.63 272.207C344.374 273.031 343.945 273.756 343.341 274.381C342.737 274.999 341.991 275.482 341.104 275.83C340.216 276.17 339.218 276.341 338.11 276.341ZM355.598 276.341C354.064 276.341 352.743 275.979 351.635 275.254C350.527 274.53 349.675 273.532 349.078 272.261C348.481 270.989 348.183 269.537 348.183 267.903C348.183 266.241 348.489 264.775 349.099 263.504C349.717 262.225 350.577 261.227 351.677 260.51C352.785 259.786 354.078 259.423 355.555 259.423C356.706 259.423 357.743 259.636 358.666 260.062C359.589 260.489 360.346 261.085 360.935 261.852C361.525 262.619 361.891 263.514 362.033 264.537H359.518C359.327 263.791 358.9 263.131 358.24 262.555C357.587 261.973 356.706 261.682 355.598 261.682C354.618 261.682 353.758 261.937 353.02 262.449C352.288 262.953 351.717 263.667 351.305 264.59C350.9 265.506 350.697 266.582 350.697 267.818C350.697 269.082 350.896 270.183 351.294 271.121C351.699 272.058 352.267 272.786 352.998 273.305C353.737 273.823 354.604 274.082 355.598 274.082C356.251 274.082 356.844 273.969 357.377 273.741C357.91 273.514 358.361 273.188 358.73 272.761C359.099 272.335 359.362 271.824 359.518 271.227H362.033C361.891 272.193 361.539 273.063 360.978 273.837C360.424 274.604 359.689 275.215 358.773 275.67C357.864 276.117 356.805 276.341 355.598 276.341ZM372.596 276.341C371.118 276.341 369.822 275.989 368.707 275.286C367.599 274.583 366.733 273.599 366.108 272.335C365.49 271.071 365.181 269.594 365.181 267.903C365.181 266.199 365.49 264.711 366.108 263.44C366.733 262.168 367.599 261.181 368.707 260.478C369.822 259.775 371.118 259.423 372.596 259.423C374.073 259.423 375.366 259.775 376.474 260.478C377.589 261.181 378.455 262.168 379.073 263.44C379.698 264.711 380.011 266.199 380.011 267.903C380.011 269.594 379.698 271.071 379.073 272.335C378.455 273.599 377.589 274.583 376.474 275.286C375.366 275.989 374.073 276.341 372.596 276.341ZM372.596 274.082C373.718 274.082 374.641 273.795 375.366 273.219C376.09 272.644 376.626 271.888 376.974 270.95C377.322 270.013 377.496 268.997 377.496 267.903C377.496 266.81 377.322 265.79 376.974 264.846C376.626 263.901 376.09 263.138 375.366 262.555C374.641 261.973 373.718 261.682 372.596 261.682C371.474 261.682 370.55 261.973 369.826 262.555C369.101 263.138 368.565 263.901 368.217 264.846C367.869 265.79 367.695 266.81 367.695 267.903C367.695 268.997 367.869 270.013 368.217 270.95C368.565 271.888 369.101 272.644 369.826 273.219C370.55 273.795 371.474 274.082 372.596 274.082ZM386.603 266.156V276H384.088V259.636H386.517V262.193H386.73C387.114 261.362 387.696 260.695 388.478 260.19C389.259 259.679 390.267 259.423 391.503 259.423C392.611 259.423 393.581 259.651 394.412 260.105C395.243 260.553 395.889 261.234 396.35 262.151C396.812 263.06 397.043 264.21 397.043 265.602V276H394.529V265.773C394.529 264.487 394.195 263.486 393.527 262.768C392.86 262.044 391.944 261.682 390.779 261.682C389.976 261.682 389.259 261.856 388.627 262.204C388.002 262.552 387.508 263.06 387.146 263.727C386.784 264.395 386.603 265.205 386.603 266.156ZM408.056 276.341C406.693 276.341 405.489 275.996 404.445 275.308C403.401 274.612 402.584 273.631 401.994 272.367C401.405 271.096 401.11 269.594 401.11 267.861C401.11 266.142 401.405 264.651 401.994 263.386C402.584 262.122 403.404 261.146 404.455 260.457C405.506 259.768 406.721 259.423 408.099 259.423C409.164 259.423 410.006 259.601 410.624 259.956C411.249 260.304 411.725 260.702 412.051 261.149C412.385 261.589 412.644 261.952 412.829 262.236H413.042V254.182H415.556V276H413.127V273.486H412.829C412.644 273.784 412.381 274.161 412.041 274.615C411.7 275.062 411.213 275.464 410.581 275.819C409.949 276.167 409.107 276.341 408.056 276.341ZM408.397 274.082C409.406 274.082 410.258 273.82 410.954 273.294C411.65 272.761 412.179 272.026 412.541 271.089C412.903 270.144 413.085 269.054 413.085 267.818C413.085 266.597 412.907 265.528 412.552 264.612C412.197 263.688 411.671 262.971 410.975 262.46C410.279 261.941 409.42 261.682 408.397 261.682C407.332 261.682 406.444 261.955 405.734 262.502C405.031 263.042 404.502 263.777 404.146 264.707C403.798 265.631 403.624 266.668 403.624 267.818C403.624 268.983 403.802 270.041 404.157 270.993C404.519 271.937 405.052 272.69 405.755 273.251C406.465 273.805 407.346 274.082 408.397 274.082ZM436.714 259.636V261.767H427.893V259.636H436.714ZM430.535 276V257.378C430.535 256.44 430.756 255.659 431.196 255.034C431.636 254.409 432.208 253.94 432.911 253.628C433.614 253.315 434.357 253.159 435.138 253.159C435.756 253.159 436.26 253.209 436.651 253.308C437.041 253.408 437.332 253.5 437.524 253.585L436.8 255.759C436.672 255.716 436.494 255.663 436.267 255.599C436.047 255.535 435.756 255.503 435.393 255.503C434.562 255.503 433.962 255.712 433.593 256.131C433.231 256.55 433.05 257.165 433.05 257.974V276H430.535ZM446.452 276.341C444.975 276.341 443.679 275.989 442.563 275.286C441.456 274.583 440.589 273.599 439.964 272.335C439.346 271.071 439.037 269.594 439.037 267.903C439.037 266.199 439.346 264.711 439.964 263.44C440.589 262.168 441.456 261.181 442.563 260.478C443.679 259.775 444.975 259.423 446.452 259.423C447.929 259.423 449.222 259.775 450.33 260.478C451.445 261.181 452.311 262.168 452.929 263.44C453.554 264.711 453.867 266.199 453.867 267.903C453.867 269.594 453.554 271.071 452.929 272.335C452.311 273.599 451.445 274.583 450.33 275.286C449.222 275.989 447.929 276.341 446.452 276.341ZM446.452 274.082C447.574 274.082 448.497 273.795 449.222 273.219C449.946 272.644 450.483 271.888 450.831 270.95C451.179 270.013 451.353 268.997 451.353 267.903C451.353 266.81 451.179 265.79 450.831 264.846C450.483 263.901 449.946 263.138 449.222 262.555C448.497 261.973 447.574 261.682 446.452 261.682C445.33 261.682 444.407 261.973 443.682 262.555C442.958 263.138 442.421 263.901 442.073 264.846C441.725 265.79 441.551 266.81 441.551 267.903C441.551 268.997 441.725 270.013 442.073 270.95C442.421 271.888 442.958 272.644 443.682 273.219C444.407 273.795 445.33 274.082 446.452 274.082ZM464.592 276.341C463.115 276.341 461.819 275.989 460.704 275.286C459.596 274.583 458.729 273.599 458.104 272.335C457.487 271.071 457.178 269.594 457.178 267.903C457.178 266.199 457.487 264.711 458.104 263.44C458.729 262.168 459.596 261.181 460.704 260.478C461.819 259.775 463.115 259.423 464.592 259.423C466.07 259.423 467.362 259.775 468.47 260.478C469.585 261.181 470.452 262.168 471.07 263.44C471.695 264.711 472.007 266.199 472.007 267.903C472.007 269.594 471.695 271.071 471.07 272.335C470.452 273.599 469.585 274.583 468.47 275.286C467.362 275.989 466.07 276.341 464.592 276.341ZM464.592 274.082C465.715 274.082 466.638 273.795 467.362 273.219C468.087 272.644 468.623 271.888 468.971 270.95C469.319 270.013 469.493 268.997 469.493 267.903C469.493 266.81 469.319 265.79 468.971 264.846C468.623 263.901 468.087 263.138 467.362 262.555C466.638 261.973 465.715 261.682 464.592 261.682C463.47 261.682 462.547 261.973 461.823 262.555C461.098 263.138 460.562 263.901 460.214 264.846C459.866 265.79 459.692 266.81 459.692 267.903C459.692 268.997 459.866 270.013 460.214 270.95C460.562 271.888 461.098 272.644 461.823 273.219C462.547 273.795 463.47 274.082 464.592 274.082ZM483.202 259.636V261.767H474.721V259.636H483.202ZM477.193 255.716H479.707V271.312C479.707 272.023 479.81 272.555 480.016 272.911C480.229 273.259 480.499 273.493 480.826 273.614C481.16 273.727 481.511 273.784 481.88 273.784C482.157 273.784 482.385 273.77 482.562 273.741C482.74 273.706 482.882 273.678 482.988 273.656L483.5 275.915C483.329 275.979 483.091 276.043 482.786 276.107C482.481 276.178 482.094 276.213 481.625 276.213C480.915 276.213 480.219 276.06 479.537 275.755C478.862 275.45 478.301 274.984 477.854 274.359C477.413 273.734 477.193 272.946 477.193 271.994V255.716ZM489.738 266.156V276H487.223V259.636H489.652V262.193H489.866C490.249 261.362 490.831 260.695 491.613 260.19C492.394 259.679 493.402 259.423 494.638 259.423C495.746 259.423 496.716 259.651 497.547 260.105C498.378 260.553 499.024 261.234 499.486 262.151C499.947 263.06 500.178 264.21 500.178 265.602V276H497.664V265.773C497.664 264.487 497.33 263.486 496.662 262.768C495.995 262.044 495.079 261.682 493.914 261.682C493.111 261.682 492.394 261.856 491.762 262.204C491.137 262.552 490.643 263.06 490.281 263.727C489.919 264.395 489.738 265.205 489.738 266.156ZM511.66 276.341C510.183 276.341 508.887 275.989 507.772 275.286C506.664 274.583 505.797 273.599 505.172 272.335C504.554 271.071 504.245 269.594 504.245 267.903C504.245 266.199 504.554 264.711 505.172 263.44C505.797 262.168 506.664 261.181 507.772 260.478C508.887 259.775 510.183 259.423 511.66 259.423C513.137 259.423 514.43 259.775 515.538 260.478C516.653 261.181 517.519 262.168 518.137 263.44C518.762 264.711 519.075 266.199 519.075 267.903C519.075 269.594 518.762 271.071 518.137 272.335C517.519 273.599 516.653 274.583 515.538 275.286C514.43 275.989 513.137 276.341 511.66 276.341ZM511.66 274.082C512.782 274.082 513.705 273.795 514.43 273.219C515.154 272.644 515.691 271.888 516.039 270.95C516.387 270.013 516.561 268.997 516.561 267.903C516.561 266.81 516.387 265.79 516.039 264.846C515.691 263.901 515.154 263.138 514.43 262.555C513.705 261.973 512.782 261.682 511.66 261.682C510.538 261.682 509.615 261.973 508.89 262.555C508.166 263.138 507.63 263.901 507.281 264.846C506.933 265.79 506.759 266.81 506.759 267.903C506.759 268.997 506.933 270.013 507.281 270.95C507.63 271.888 508.166 272.644 508.89 273.219C509.615 273.795 510.538 274.082 511.66 274.082ZM530.269 259.636V261.767H521.789V259.636H530.269ZM524.261 255.716H526.775V271.312C526.775 272.023 526.878 272.555 527.084 272.911C527.297 273.259 527.567 273.493 527.893 273.614C528.227 273.727 528.579 273.784 528.948 273.784C529.225 273.784 529.452 273.77 529.63 273.741C529.808 273.706 529.95 273.678 530.056 273.656L530.567 275.915C530.397 275.979 530.159 276.043 529.854 276.107C529.548 276.178 529.161 276.213 528.692 276.213C527.982 276.213 527.286 276.06 526.604 275.755C525.93 275.45 525.369 274.984 524.921 274.359C524.481 273.734 524.261 272.946 524.261 271.994V255.716ZM540.976 276.341C539.399 276.341 538.039 275.993 536.896 275.297C535.76 274.594 534.882 273.614 534.264 272.357C533.654 271.092 533.348 269.622 533.348 267.946C533.348 266.27 533.654 264.793 534.264 263.514C534.882 262.229 535.742 261.227 536.843 260.51C537.951 259.786 539.243 259.423 540.72 259.423C541.573 259.423 542.414 259.565 543.245 259.849C544.076 260.134 544.833 260.595 545.514 261.234C546.196 261.866 546.74 262.705 547.144 263.749C547.549 264.793 547.752 266.078 547.752 267.605V268.67H535.138V266.497H545.195C545.195 265.574 545.01 264.75 544.641 264.026C544.279 263.301 543.76 262.729 543.086 262.31C542.418 261.891 541.63 261.682 540.72 261.682C539.719 261.682 538.853 261.93 538.121 262.428C537.397 262.918 536.839 263.557 536.448 264.345C536.058 265.134 535.863 265.979 535.863 266.881V268.33C535.863 269.565 536.076 270.613 536.502 271.472C536.935 272.325 537.535 272.974 538.302 273.422C539.069 273.862 539.961 274.082 540.976 274.082C541.637 274.082 542.233 273.99 542.766 273.805C543.306 273.614 543.771 273.33 544.162 272.953C544.552 272.57 544.854 272.094 545.067 271.526L547.496 272.207C547.24 273.031 546.811 273.756 546.207 274.381C545.603 274.999 544.858 275.482 543.97 275.83C543.082 276.17 542.084 276.341 540.976 276.341ZM553.649 276.17C553.123 276.17 552.672 275.982 552.296 275.606C551.919 275.229 551.731 274.778 551.731 274.253C551.731 273.727 551.919 273.276 552.296 272.9C552.672 272.523 553.123 272.335 553.649 272.335C554.174 272.335 554.625 272.523 555.002 272.9C555.378 273.276 555.566 273.727 555.566 274.253C555.566 274.601 555.478 274.92 555.3 275.212C555.13 275.503 554.899 275.737 554.607 275.915C554.323 276.085 554.004 276.17 553.649 276.17Z" fill="#768698"/>
<path d="M572.149 267.626V265.283H591.048C591.915 265.283 592.703 265.07 593.413 264.643C594.13 264.217 594.699 263.646 595.118 262.928C595.544 262.211 595.757 261.419 595.757 260.553C595.757 259.686 595.544 258.898 595.118 258.188C594.692 257.477 594.123 256.909 593.413 256.483C592.703 256.057 591.915 255.844 591.048 255.844H589.961V253.5H591.048C592.348 253.5 593.53 253.82 594.596 254.459C595.661 255.091 596.51 255.94 597.142 257.005C597.781 258.07 598.101 259.253 598.101 260.553C598.101 261.526 597.916 262.442 597.547 263.301C597.184 264.153 596.68 264.906 596.034 265.56C595.388 266.206 594.638 266.714 593.786 267.083C592.934 267.445 592.021 267.626 591.048 267.626H572.149ZM579.201 276L569.656 266.455L579.201 256.909L580.831 258.539L572.905 266.455L580.831 274.37L579.201 276Z" fill="#4F81FE"/>
<rect x="64.292" y="141" width="840.224" height="2" fill="#2F3138"/>
</svg>
