<svg width="985" height="442" viewBox="0 0 985 442" fill="none" xmlns="http://www.w3.org/2000/svg">
<rect x="1" y="1" width="983" height="440" rx="68" fill="#0B0C0C" stroke="#1A1C1F" stroke-width="2"/>
<path d="M74.1087 137V89.7273H84.1033V109.232H104.393V89.7273H114.364V137H104.393V117.472H84.1033V137H74.1087ZM139.878 137.692C136.231 137.692 133.092 136.954 130.46 135.477C127.844 133.984 125.828 131.876 124.413 129.152C122.997 126.413 122.289 123.174 122.289 119.434C122.289 115.787 122.997 112.587 124.413 109.832C125.828 107.078 127.821 104.931 130.391 103.392C132.976 101.853 136.008 101.084 139.485 101.084C141.824 101.084 144.002 101.461 146.018 102.215C148.049 102.953 149.819 104.069 151.327 105.562C152.85 107.054 154.035 108.932 154.881 111.194C155.728 113.441 156.151 116.072 156.151 119.088V121.789H126.213V115.695H146.895C146.895 114.279 146.587 113.025 145.972 111.933C145.356 110.84 144.502 109.986 143.409 109.37C142.332 108.739 141.078 108.424 139.647 108.424C138.154 108.424 136.831 108.77 135.677 109.463C134.538 110.14 133.646 111.055 132.999 112.21C132.353 113.348 132.022 114.618 132.007 116.018V121.812C132.007 123.566 132.33 125.082 132.976 126.359C133.638 127.636 134.569 128.621 135.769 129.314C136.969 130.006 138.393 130.352 140.039 130.352C141.132 130.352 142.132 130.198 143.04 129.891C143.948 129.583 144.725 129.121 145.371 128.506C146.018 127.89 146.51 127.136 146.849 126.244L155.943 126.844C155.481 129.029 154.535 130.937 153.104 132.568C151.688 134.184 149.857 135.446 147.61 136.354C145.379 137.246 142.802 137.692 139.878 137.692ZM173.978 137.669C171.716 137.669 169.7 137.277 167.93 136.492C166.161 135.692 164.76 134.515 163.729 132.961C162.714 131.391 162.206 129.437 162.206 127.098C162.206 125.128 162.567 123.474 163.291 122.135C164.014 120.796 164.999 119.719 166.245 118.903C167.492 118.088 168.907 117.472 170.492 117.057C172.093 116.641 173.77 116.349 175.524 116.18C177.586 115.964 179.248 115.764 180.51 115.58C181.772 115.379 182.688 115.087 183.257 114.702C183.826 114.318 184.111 113.748 184.111 112.994V112.856C184.111 111.394 183.649 110.263 182.726 109.463C181.818 108.663 180.526 108.262 178.848 108.262C177.079 108.262 175.671 108.655 174.624 109.44C173.578 110.209 172.885 111.179 172.547 112.348L163.452 111.609C163.914 109.455 164.822 107.593 166.176 106.023C167.53 104.438 169.277 103.223 171.416 102.376C173.57 101.515 176.063 101.084 178.894 101.084C180.864 101.084 182.749 101.315 184.55 101.776C186.365 102.238 187.973 102.953 189.374 103.923C190.79 104.892 191.905 106.139 192.721 107.662C193.536 109.17 193.944 110.978 193.944 113.087V137H184.619V132.083H184.342C183.772 133.191 183.011 134.169 182.057 135.015C181.103 135.846 179.956 136.5 178.617 136.977C177.279 137.439 175.732 137.669 173.978 137.669ZM176.794 130.883C178.24 130.883 179.518 130.598 180.626 130.029C181.734 129.444 182.603 128.66 183.234 127.675C183.865 126.69 184.18 125.574 184.18 124.328V120.565C183.872 120.765 183.449 120.95 182.911 121.119C182.388 121.273 181.795 121.419 181.133 121.558C180.472 121.681 179.81 121.796 179.148 121.904C178.487 121.996 177.886 122.081 177.348 122.158C176.194 122.327 175.186 122.597 174.324 122.966C173.462 123.335 172.793 123.835 172.316 124.466C171.839 125.082 171.6 125.851 171.6 126.775C171.6 128.113 172.085 129.137 173.055 129.844C174.039 130.537 175.286 130.883 176.794 130.883ZM215.937 137.577C213.245 137.577 210.805 136.885 208.62 135.5C206.451 134.099 204.727 132.045 203.45 129.337C202.188 126.613 201.557 123.274 201.557 119.319C201.557 115.256 202.211 111.879 203.519 109.186C204.827 106.477 206.566 104.454 208.736 103.115C210.921 101.761 213.314 101.084 215.914 101.084C217.899 101.084 219.554 101.422 220.877 102.099C222.216 102.761 223.293 103.592 224.109 104.592C224.94 105.577 225.571 106.547 226.001 107.501H226.301V89.7273H236.111V137H226.417V131.322H226.001C225.54 132.307 224.886 133.284 224.039 134.253C223.208 135.207 222.124 136 220.785 136.631C219.461 137.262 217.846 137.577 215.937 137.577ZM219.054 129.752C220.639 129.752 221.977 129.321 223.07 128.46C224.178 127.582 225.024 126.359 225.609 124.789C226.209 123.22 226.509 121.381 226.509 119.273C226.509 117.165 226.217 115.333 225.632 113.779C225.047 112.225 224.201 111.025 223.093 110.178C221.985 109.332 220.639 108.909 219.054 108.909C217.438 108.909 216.076 109.347 214.968 110.224C213.86 111.102 213.021 112.317 212.452 113.871C211.883 115.426 211.598 117.226 211.598 119.273C211.598 121.335 211.883 123.158 212.452 124.743C213.037 126.313 213.875 127.544 214.968 128.436C216.076 129.314 217.438 129.752 219.054 129.752ZM245.496 137V101.545H255.329V137H245.496ZM250.436 96.9751C248.974 96.9751 247.72 96.4904 246.673 95.5209C245.642 94.5361 245.127 93.3589 245.127 91.9893C245.127 90.6352 245.642 89.4734 246.673 88.5039C247.72 87.5191 248.974 87.0266 250.436 87.0266C251.898 87.0266 253.144 87.5191 254.175 88.5039C255.221 89.4734 255.745 90.6352 255.745 91.9893C255.745 93.3589 255.221 94.5361 254.175 95.5209C253.144 96.4904 251.898 96.9751 250.436 96.9751ZM274.339 116.503V137H264.506V101.545H273.877V107.801H274.293C275.078 105.739 276.393 104.108 278.24 102.907C280.087 101.692 282.326 101.084 284.957 101.084C287.419 101.084 289.566 101.622 291.397 102.7C293.228 103.777 294.652 105.316 295.667 107.316C296.683 109.301 297.191 111.671 297.191 114.425V137H287.358V116.18C287.373 114.01 286.819 112.317 285.696 111.102C284.572 109.871 283.026 109.255 281.056 109.255C279.733 109.255 278.563 109.54 277.548 110.109C276.547 110.678 275.763 111.509 275.193 112.602C274.639 113.679 274.355 114.979 274.339 116.503ZM322.214 151.034C319.028 151.034 316.297 150.596 314.019 149.718C311.757 148.857 309.957 147.679 308.618 146.187C307.279 144.694 306.41 143.017 306.01 141.155L315.104 139.931C315.381 140.639 315.82 141.301 316.42 141.917C317.02 142.532 317.813 143.025 318.797 143.394C319.798 143.779 321.013 143.971 322.444 143.971C324.583 143.971 326.345 143.448 327.73 142.401C329.131 141.37 329.831 139.639 329.831 137.208V130.722H329.415C328.984 131.706 328.338 132.637 327.476 133.515C326.615 134.392 325.507 135.107 324.153 135.661C322.798 136.215 321.183 136.492 319.305 136.492C316.643 136.492 314.219 135.877 312.034 134.646C309.865 133.399 308.133 131.499 306.841 128.944C305.564 126.374 304.925 123.127 304.925 119.203C304.925 115.187 305.579 111.833 306.887 109.14C308.195 106.447 309.934 104.431 312.104 103.092C314.289 101.753 316.682 101.084 319.282 101.084C321.267 101.084 322.929 101.422 324.268 102.099C325.607 102.761 326.684 103.592 327.499 104.592C328.33 105.577 328.969 106.547 329.415 107.501H329.785V101.545H339.548V137.346C339.548 140.362 338.81 142.886 337.333 144.917C335.855 146.949 333.809 148.472 331.193 149.488C328.592 150.519 325.599 151.034 322.214 151.034ZM322.421 129.106C324.006 129.106 325.345 128.713 326.438 127.929C327.546 127.128 328.392 125.99 328.977 124.512C329.577 123.02 329.877 121.235 329.877 119.157C329.877 117.08 329.585 115.279 329 113.756C328.415 112.217 327.569 111.025 326.461 110.178C325.353 109.332 324.006 108.909 322.421 108.909C320.806 108.909 319.444 109.347 318.336 110.224C317.228 111.086 316.389 112.286 315.82 113.825C315.25 115.364 314.966 117.141 314.966 119.157C314.966 121.204 315.25 122.974 315.82 124.466C316.405 125.944 317.243 127.09 318.336 127.906C319.444 128.706 320.806 129.106 322.421 129.106ZM385.491 89.7273V137H375.497V99.2141H375.22L364.394 106V97.1367L376.097 89.7273H385.491Z" fill="#F4F6F6"/>
<path d="M72.5398 251V210.273H81.1506V227.077H98.6307V210.273H107.222V251H98.6307V234.176H81.1506V251H72.5398ZM128.082 251.597C124.94 251.597 122.236 250.96 119.969 249.688C117.715 248.402 115.978 246.585 114.759 244.239C113.539 241.879 112.929 239.088 112.929 235.866C112.929 232.724 113.539 229.967 114.759 227.594C115.978 225.221 117.695 223.371 119.909 222.045C122.136 220.72 124.748 220.057 127.744 220.057C129.759 220.057 131.635 220.382 133.372 221.031C135.122 221.668 136.647 222.629 137.946 223.915C139.259 225.201 140.279 226.818 141.009 228.767C141.738 230.703 142.102 232.97 142.102 235.568V237.895H116.31V232.645H134.128C134.128 231.425 133.863 230.345 133.332 229.403C132.802 228.462 132.066 227.726 131.125 227.196C130.197 226.652 129.116 226.381 127.884 226.381C126.598 226.381 125.457 226.679 124.463 227.276C123.482 227.859 122.713 228.648 122.156 229.642C121.599 230.623 121.314 231.717 121.301 232.923V237.915C121.301 239.426 121.58 240.732 122.136 241.832C122.706 242.933 123.509 243.781 124.543 244.378C125.577 244.974 126.803 245.273 128.222 245.273C129.163 245.273 130.025 245.14 130.807 244.875C131.589 244.61 132.259 244.212 132.815 243.682C133.372 243.152 133.796 242.502 134.088 241.733L141.923 242.25C141.526 244.133 140.71 245.777 139.477 247.182C138.258 248.574 136.68 249.661 134.744 250.443C132.822 251.212 130.601 251.597 128.082 251.597ZM156.341 251.577C154.392 251.577 152.655 251.239 151.131 250.562C149.606 249.873 148.4 248.859 147.511 247.52C146.636 246.168 146.199 244.484 146.199 242.469C146.199 240.772 146.51 239.347 147.134 238.193C147.757 237.04 148.605 236.112 149.679 235.409C150.753 234.706 151.973 234.176 153.338 233.818C154.717 233.46 156.162 233.208 157.673 233.062C159.45 232.877 160.882 232.705 161.969 232.545C163.056 232.373 163.845 232.121 164.335 231.79C164.826 231.458 165.071 230.968 165.071 230.318V230.199C165.071 228.939 164.673 227.965 163.878 227.276C163.096 226.586 161.982 226.241 160.537 226.241C159.012 226.241 157.799 226.58 156.898 227.256C155.996 227.919 155.4 228.754 155.108 229.761L147.273 229.125C147.67 227.269 148.453 225.665 149.619 224.312C150.786 222.947 152.291 221.9 154.134 221.17C155.99 220.428 158.137 220.057 160.577 220.057C162.274 220.057 163.898 220.256 165.449 220.653C167.013 221.051 168.399 221.668 169.605 222.503C170.825 223.338 171.786 224.412 172.489 225.724C173.191 227.024 173.543 228.581 173.543 230.398V251H165.509V246.764H165.27C164.779 247.719 164.123 248.561 163.301 249.29C162.479 250.006 161.491 250.569 160.338 250.98C159.185 251.378 157.852 251.577 156.341 251.577ZM158.767 245.73C160.013 245.73 161.114 245.485 162.068 244.994C163.023 244.491 163.772 243.814 164.315 242.966C164.859 242.117 165.131 241.156 165.131 240.082V236.841C164.866 237.013 164.501 237.172 164.037 237.318C163.586 237.451 163.076 237.577 162.506 237.696C161.936 237.802 161.366 237.902 160.795 237.994C160.225 238.074 159.708 238.147 159.244 238.213C158.25 238.359 157.382 238.591 156.639 238.909C155.897 239.227 155.32 239.658 154.909 240.202C154.498 240.732 154.293 241.395 154.293 242.19C154.293 243.344 154.71 244.225 155.545 244.835C156.394 245.432 157.468 245.73 158.767 245.73ZM191.371 251.497C189.051 251.497 186.949 250.901 185.067 249.707C183.197 248.501 181.713 246.731 180.612 244.398C179.525 242.051 178.982 239.174 178.982 235.767C178.982 232.267 179.545 229.357 180.672 227.037C181.799 224.704 183.297 222.96 185.166 221.807C187.049 220.64 189.11 220.057 191.351 220.057C193.061 220.057 194.486 220.348 195.626 220.932C196.78 221.502 197.708 222.218 198.411 223.08C199.126 223.928 199.67 224.763 200.041 225.585H200.3V210.273H208.751V251H200.399V246.108H200.041C199.643 246.956 199.08 247.798 198.351 248.634C197.635 249.455 196.7 250.138 195.547 250.682C194.407 251.225 193.015 251.497 191.371 251.497ZM194.055 244.756C195.421 244.756 196.574 244.384 197.516 243.642C198.47 242.886 199.199 241.832 199.703 240.48C200.22 239.128 200.479 237.544 200.479 235.727C200.479 233.911 200.227 232.333 199.723 230.994C199.219 229.655 198.49 228.621 197.536 227.892C196.581 227.163 195.421 226.798 194.055 226.798C192.663 226.798 191.49 227.176 190.536 227.932C189.581 228.687 188.858 229.735 188.368 231.074C187.877 232.413 187.632 233.964 187.632 235.727C187.632 237.504 187.877 239.075 188.368 240.44C188.872 241.793 189.594 242.853 190.536 243.622C191.49 244.378 192.663 244.756 194.055 244.756ZM215.717 251V220.455H224.188V251H215.717ZM219.972 216.517C218.713 216.517 217.632 216.099 216.731 215.264C215.843 214.416 215.398 213.402 215.398 212.222C215.398 211.055 215.843 210.054 216.731 209.219C217.632 208.37 218.713 207.946 219.972 207.946C221.232 207.946 222.306 208.37 223.194 209.219C224.095 210.054 224.546 211.055 224.546 212.222C224.546 213.402 224.095 214.416 223.194 215.264C222.306 216.099 221.232 216.517 219.972 216.517ZM239.446 233.341V251H230.974V220.455H239.048V225.844H239.406C240.082 224.067 241.216 222.662 242.807 221.628C244.398 220.58 246.327 220.057 248.594 220.057C250.715 220.057 252.564 220.521 254.142 221.449C255.72 222.377 256.946 223.703 257.821 225.426C258.696 227.136 259.134 229.178 259.134 231.551V251H250.662V233.062C250.675 231.193 250.198 229.735 249.23 228.688C248.262 227.627 246.93 227.097 245.233 227.097C244.093 227.097 243.085 227.342 242.21 227.832C241.348 228.323 240.672 229.039 240.182 229.98C239.705 230.908 239.459 232.028 239.446 233.341ZM279.572 263.091C276.827 263.091 274.474 262.713 272.512 261.957C270.563 261.215 269.012 260.201 267.859 258.915C266.705 257.629 265.956 256.184 265.612 254.58L273.447 253.526C273.685 254.135 274.063 254.705 274.58 255.236C275.097 255.766 275.78 256.19 276.629 256.509C277.49 256.84 278.538 257.006 279.771 257.006C281.613 257.006 283.131 256.555 284.325 255.653C285.531 254.765 286.134 253.274 286.134 251.179V245.591H285.776C285.405 246.439 284.848 247.241 284.106 247.997C283.363 248.753 282.409 249.369 281.242 249.847C280.076 250.324 278.683 250.562 277.066 250.562C274.772 250.562 272.684 250.032 270.802 248.972C268.933 247.898 267.441 246.26 266.327 244.06C265.227 241.846 264.677 239.048 264.677 235.668C264.677 232.207 265.24 229.317 266.367 226.997C267.494 224.677 268.992 222.94 270.862 221.787C272.744 220.634 274.806 220.057 277.046 220.057C278.756 220.057 280.188 220.348 281.342 220.932C282.495 221.502 283.423 222.218 284.126 223.08C284.842 223.928 285.392 224.763 285.776 225.585H286.094V220.455H294.506V251.298C294.506 253.897 293.87 256.071 292.597 257.821C291.325 259.571 289.561 260.884 287.308 261.759C285.067 262.647 282.488 263.091 279.572 263.091ZM279.751 244.199C281.116 244.199 282.27 243.861 283.211 243.185C284.165 242.495 284.895 241.514 285.398 240.241C285.915 238.955 286.174 237.418 286.174 235.628C286.174 233.838 285.922 232.287 285.418 230.974C284.915 229.649 284.185 228.621 283.231 227.892C282.276 227.163 281.116 226.798 279.751 226.798C278.359 226.798 277.185 227.176 276.231 227.932C275.276 228.674 274.554 229.708 274.063 231.034C273.573 232.36 273.327 233.891 273.327 235.628C273.327 237.391 273.573 238.916 274.063 240.202C274.567 241.474 275.29 242.462 276.231 243.165C277.185 243.854 278.359 244.199 279.751 244.199ZM314.129 251V244.795L328.626 231.372C329.859 230.179 330.893 229.105 331.729 228.151C332.577 227.196 333.22 226.261 333.658 225.347C334.095 224.419 334.314 223.418 334.314 222.344C334.314 221.151 334.042 220.123 333.499 219.261C332.955 218.386 332.213 217.717 331.271 217.253C330.33 216.776 329.263 216.537 328.07 216.537C326.823 216.537 325.736 216.789 324.808 217.293C323.88 217.796 323.164 218.519 322.661 219.46C322.157 220.402 321.905 221.522 321.905 222.821H313.732C313.732 220.156 314.335 217.843 315.541 215.881C316.748 213.919 318.438 212.401 320.612 211.327C322.786 210.253 325.292 209.716 328.129 209.716C331.046 209.716 333.585 210.233 335.746 211.267C337.92 212.288 339.61 213.706 340.817 215.523C342.023 217.339 342.626 219.42 342.626 221.767C342.626 223.305 342.321 224.823 341.712 226.321C341.115 227.819 340.048 229.483 338.51 231.312C336.972 233.129 334.804 235.31 332.007 237.855L326.061 243.682V243.96H343.163V251H314.129Z" fill="#F4F6F6"/>
<path d="M72.2869 351V313.182H80.2827V328.786H96.5142V313.182H104.491V351H96.5142V335.378H80.2827V351H72.2869ZM122.822 351.554C119.905 351.554 117.393 350.963 115.288 349.781C113.195 348.587 111.583 346.901 110.45 344.722C109.317 342.53 108.751 339.939 108.751 336.947C108.751 334.03 109.317 331.469 110.45 329.266C111.583 327.062 113.177 325.345 115.233 324.114C117.301 322.883 119.726 322.267 122.508 322.267C124.38 322.267 126.121 322.569 127.734 323.172C129.359 323.763 130.775 324.655 131.981 325.849C133.2 327.044 134.148 328.545 134.825 330.355C135.502 332.152 135.841 334.258 135.841 336.67V338.831H111.89V333.956H128.436C128.436 332.823 128.19 331.82 127.697 330.946C127.205 330.072 126.522 329.389 125.647 328.896C124.786 328.392 123.782 328.139 122.638 328.139C121.443 328.139 120.385 328.416 119.461 328.97C118.55 329.512 117.836 330.244 117.319 331.168C116.802 332.079 116.538 333.094 116.525 334.214V338.849C116.525 340.253 116.784 341.465 117.301 342.487C117.83 343.509 118.575 344.297 119.535 344.851C120.496 345.405 121.634 345.682 122.951 345.682C123.826 345.682 124.626 345.559 125.352 345.312C126.078 345.066 126.7 344.697 127.217 344.205C127.734 343.712 128.128 343.109 128.399 342.395L135.674 342.875C135.305 344.623 134.548 346.15 133.403 347.455C132.271 348.747 130.806 349.757 129.008 350.483C127.223 351.197 125.161 351.554 122.822 351.554ZM148.022 351.536C146.213 351.536 144.6 351.222 143.184 350.594C141.768 349.954 140.648 349.012 139.823 347.768C139.011 346.513 138.605 344.949 138.605 343.078C138.605 341.502 138.894 340.179 139.473 339.108C140.051 338.037 140.839 337.175 141.836 336.523C142.833 335.87 143.966 335.378 145.234 335.045C146.514 334.713 147.856 334.479 149.259 334.344C150.909 334.171 152.239 334.011 153.248 333.864C154.258 333.704 154.99 333.47 155.446 333.162C155.901 332.854 156.129 332.399 156.129 331.795V331.685C156.129 330.515 155.759 329.61 155.021 328.97C154.295 328.33 153.26 328.01 151.919 328.01C150.503 328.01 149.376 328.324 148.539 328.952C147.702 329.567 147.148 330.343 146.877 331.278L139.602 330.688C139.971 328.964 140.697 327.474 141.781 326.219C142.864 324.951 144.261 323.978 145.973 323.301C147.696 322.612 149.69 322.267 151.956 322.267C153.531 322.267 155.039 322.452 156.48 322.821C157.932 323.19 159.219 323.763 160.339 324.538C161.472 325.314 162.364 326.311 163.017 327.53C163.669 328.736 163.995 330.183 163.995 331.869V351H156.535V347.067H156.313C155.858 347.953 155.249 348.735 154.485 349.412C153.722 350.077 152.805 350.6 151.734 350.982C150.663 351.351 149.426 351.536 148.022 351.536ZM150.275 346.107C151.432 346.107 152.454 345.879 153.34 345.423C154.227 344.955 154.922 344.328 155.427 343.54C155.932 342.752 156.184 341.859 156.184 340.862V337.852C155.938 338.012 155.599 338.16 155.169 338.295C154.75 338.419 154.276 338.536 153.747 338.646C153.217 338.745 152.688 338.837 152.159 338.923C151.629 338.997 151.149 339.065 150.718 339.126C149.795 339.262 148.989 339.477 148.299 339.773C147.61 340.068 147.074 340.468 146.693 340.973C146.311 341.465 146.12 342.081 146.12 342.82C146.12 343.891 146.508 344.709 147.284 345.276C148.072 345.83 149.069 346.107 150.275 346.107ZM179.51 351.462C177.356 351.462 175.404 350.908 173.656 349.8C171.92 348.679 170.542 347.036 169.52 344.869C168.51 342.69 168.006 340.019 168.006 336.855C168.006 333.605 168.529 330.903 169.575 328.749C170.622 326.582 172.013 324.963 173.749 323.892C175.497 322.809 177.411 322.267 179.492 322.267C181.08 322.267 182.403 322.538 183.462 323.08C184.533 323.609 185.394 324.274 186.047 325.074C186.712 325.862 187.216 326.637 187.561 327.401H187.801V313.182H195.649V351H187.893V346.457H187.561C187.192 347.245 186.669 348.027 185.992 348.803C185.327 349.566 184.459 350.2 183.388 350.705C182.329 351.209 181.036 351.462 179.51 351.462ZM182.003 345.202C183.271 345.202 184.342 344.857 185.216 344.168C186.102 343.466 186.779 342.487 187.247 341.232C187.727 339.976 187.967 338.505 187.967 336.818C187.967 335.132 187.733 333.667 187.266 332.423C186.798 331.18 186.121 330.22 185.234 329.543C184.348 328.866 183.271 328.527 182.003 328.527C180.71 328.527 179.621 328.878 178.734 329.58C177.848 330.281 177.177 331.254 176.722 332.497C176.266 333.741 176.038 335.181 176.038 336.818C176.038 338.468 176.266 339.927 176.722 341.195C177.189 342.45 177.86 343.435 178.734 344.149C179.621 344.851 180.71 345.202 182.003 345.202ZM201.077 351V322.636H208.943V351H201.077ZM205.029 318.98C203.859 318.98 202.856 318.592 202.019 317.817C201.194 317.029 200.781 316.087 200.781 314.991C200.781 313.908 201.194 312.979 202.019 312.203C202.856 311.415 203.859 311.021 205.029 311.021C206.198 311.021 207.195 311.415 208.02 312.203C208.857 312.979 209.276 313.908 209.276 314.991C209.276 316.087 208.857 317.029 208.02 317.817C207.195 318.592 206.198 318.98 205.029 318.98ZM222.071 334.602V351H214.205V322.636H221.702V327.641H222.034C222.662 325.991 223.715 324.686 225.192 323.726C226.669 322.753 228.461 322.267 230.566 322.267C232.535 322.267 234.253 322.698 235.718 323.56C237.183 324.421 238.321 325.652 239.134 327.253C239.946 328.841 240.353 330.737 240.353 332.94V351H232.486V334.344C232.498 332.608 232.055 331.254 231.157 330.281C230.258 329.296 229.021 328.804 227.445 328.804C226.386 328.804 225.451 329.032 224.638 329.487C223.838 329.943 223.21 330.607 222.755 331.482C222.311 332.343 222.084 333.384 222.071 334.602ZM258.291 362.227C255.743 362.227 253.557 361.876 251.735 361.175C249.926 360.485 248.485 359.544 247.414 358.349C246.343 357.155 245.648 355.813 245.328 354.324L252.603 353.345C252.825 353.911 253.176 354.441 253.656 354.933C254.136 355.426 254.77 355.82 255.558 356.115C256.358 356.423 257.331 356.577 258.476 356.577C260.187 356.577 261.596 356.158 262.704 355.321C263.825 354.496 264.385 353.111 264.385 351.166V345.977H264.052C263.708 346.765 263.191 347.51 262.501 348.212C261.812 348.913 260.925 349.486 259.842 349.929C258.759 350.372 257.466 350.594 255.964 350.594C253.834 350.594 251.896 350.101 250.147 349.116C248.412 348.119 247.027 346.599 245.993 344.555C244.971 342.5 244.46 339.902 244.46 336.763C244.46 333.55 244.983 330.866 246.03 328.712C247.076 326.557 248.467 324.945 250.203 323.874C251.951 322.803 253.865 322.267 255.946 322.267C257.534 322.267 258.863 322.538 259.934 323.08C261.005 323.609 261.867 324.274 262.52 325.074C263.184 325.862 263.695 326.637 264.052 327.401H264.348V322.636H272.159V351.277C272.159 353.69 271.568 355.709 270.386 357.334C269.204 358.959 267.567 360.178 265.474 360.99C263.394 361.815 260.999 362.227 258.291 362.227ZM258.457 344.685C259.725 344.685 260.796 344.371 261.67 343.743C262.557 343.103 263.234 342.192 263.701 341.01C264.182 339.816 264.422 338.388 264.422 336.726C264.422 335.064 264.188 333.624 263.72 332.405C263.252 331.174 262.575 330.22 261.689 329.543C260.802 328.866 259.725 328.527 258.457 328.527C257.164 328.527 256.075 328.878 255.189 329.58C254.302 330.269 253.631 331.229 253.176 332.46C252.72 333.691 252.493 335.113 252.493 336.726C252.493 338.363 252.72 339.779 253.176 340.973C253.644 342.155 254.315 343.072 255.189 343.724C256.075 344.365 257.164 344.685 258.457 344.685ZM302.279 351.517C299.521 351.517 297.065 351.043 294.911 350.095C292.769 349.135 291.076 347.818 289.833 346.143C288.602 344.457 287.968 342.512 287.931 340.308H295.982C296.031 341.232 296.333 342.044 296.887 342.746C297.453 343.435 298.204 343.971 299.14 344.352C300.075 344.734 301.128 344.925 302.297 344.925C303.516 344.925 304.593 344.709 305.529 344.278C306.464 343.848 307.197 343.25 307.726 342.487C308.256 341.724 308.52 340.844 308.52 339.847C308.52 338.837 308.237 337.945 307.671 337.169C307.117 336.381 306.317 335.766 305.27 335.322C304.236 334.879 303.005 334.658 301.577 334.658H298.05V328.786H301.577C302.783 328.786 303.848 328.576 304.772 328.158C305.707 327.739 306.434 327.161 306.951 326.422C307.468 325.671 307.726 324.797 307.726 323.8C307.726 322.852 307.498 322.021 307.043 321.307C306.6 320.58 305.972 320.014 305.159 319.608C304.359 319.202 303.424 318.999 302.353 318.999C301.269 318.999 300.278 319.196 299.38 319.589C298.481 319.971 297.761 320.519 297.219 321.233C296.677 321.947 296.388 322.784 296.351 323.744H288.688C288.725 321.565 289.346 319.645 290.553 317.983C291.759 316.321 293.384 315.022 295.428 314.087C297.484 313.139 299.804 312.665 302.39 312.665C304.999 312.665 307.283 313.139 309.24 314.087C311.198 315.035 312.718 316.315 313.801 317.928C314.897 319.528 315.439 321.325 315.426 323.32C315.439 325.437 314.78 327.204 313.451 328.619C312.133 330.035 310.416 330.934 308.299 331.315V331.611C311.081 331.968 313.198 332.934 314.651 334.51C316.116 336.073 316.842 338.031 316.83 340.382C316.842 342.536 316.22 344.451 314.965 346.125C313.721 347.799 312.004 349.116 309.813 350.077C307.622 351.037 305.11 351.517 302.279 351.517Z" fill="#F4F6F6"/>
</svg>
