<svg width="985" height="207" viewBox="0 0 985 207" fill="none" xmlns="http://www.w3.org/2000/svg">
<rect x="1" y="1" width="983" height="205" rx="68" fill="#0B0C0C" stroke="#1A1C1F" stroke-width="2"/>
<path d="M81.0625 87L75.75 119H71.875L77.1875 87H81.0625ZM98.337 95L97.837 98.125H85.3995L85.8995 95H98.337ZM90.462 89.25H94.1495L90.337 112.125C90.1704 113.167 90.1964 113.948 90.4152 114.469C90.6443 114.979 90.9881 115.323 91.4464 115.5C91.9152 115.667 92.4204 115.75 92.962 115.75C93.3683 115.75 93.7016 115.729 93.962 115.687C94.2224 115.635 94.4308 115.594 94.587 115.562L94.837 118.875C94.5558 118.969 94.1756 119.063 93.6964 119.156C93.2277 119.26 92.6495 119.313 91.962 119.313C90.9204 119.313 89.9412 119.089 89.0245 118.641C88.1079 118.193 87.4047 117.51 86.9152 116.594C86.4256 115.677 86.2954 114.521 86.5245 113.125L90.462 89.25ZM107.764 119.563C106.243 119.563 104.91 119.276 103.764 118.703C102.618 118.12 101.769 117.281 101.217 116.188C100.665 115.083 100.514 113.75 100.764 112.187C101.003 110.812 101.467 109.698 102.155 108.844C102.842 107.979 103.675 107.302 104.655 106.812C105.644 106.312 106.707 105.943 107.842 105.703C108.988 105.453 110.128 105.26 111.264 105.125C112.743 104.937 113.946 104.792 114.873 104.687C115.8 104.583 116.498 104.411 116.967 104.172C117.436 103.932 117.722 103.521 117.826 102.937V102.812C118.076 101.281 117.873 100.089 117.217 99.2344C116.561 98.3698 115.389 97.9375 113.701 97.9375C111.951 97.9375 110.488 98.3229 109.311 99.0937C108.134 99.8646 107.264 100.687 106.701 101.562L103.451 100.312C104.306 98.8542 105.326 97.7187 106.514 96.9062C107.701 96.0833 108.946 95.5104 110.248 95.1875C111.55 94.8542 112.806 94.6875 114.014 94.6875C114.785 94.6875 115.655 94.7812 116.623 94.9687C117.592 95.1458 118.498 95.5156 119.342 96.0781C120.196 96.6406 120.837 97.4896 121.264 98.625C121.701 99.7604 121.764 101.281 121.451 103.188L118.826 119H115.139L115.701 115.75H115.514C115.181 116.271 114.67 116.828 113.983 117.422C113.306 118.016 112.446 118.521 111.405 118.937C110.373 119.354 109.16 119.563 107.764 119.563ZM108.826 116.25C110.285 116.25 111.561 115.964 112.655 115.391C113.759 114.818 114.644 114.078 115.311 113.172C115.988 112.266 116.41 111.312 116.576 110.312L117.139 106.937C116.951 107.125 116.582 107.297 116.03 107.453C115.477 107.599 114.852 107.729 114.155 107.844C113.467 107.948 112.795 108.042 112.139 108.125C111.493 108.198 110.972 108.26 110.576 108.312C109.597 108.437 108.665 108.641 107.78 108.922C106.905 109.193 106.165 109.604 105.561 110.156C104.967 110.698 104.597 111.437 104.451 112.375C104.233 113.656 104.54 114.625 105.373 115.281C106.207 115.927 107.358 116.25 108.826 116.25ZM135.437 87L130.124 119H126.437L131.749 87H135.437ZM137.758 119L141.758 95H145.446L141.446 119H137.758ZM144.727 90.9375C144.008 90.9375 143.388 90.6927 142.868 90.2031C142.357 89.7135 142.102 89.125 142.102 88.4375C142.102 87.75 142.357 87.1615 142.868 86.6719C143.388 86.1823 144.008 85.9375 144.727 85.9375C145.446 85.9375 146.06 86.1823 146.571 86.6719C147.092 87.1615 147.352 87.75 147.352 88.4375C147.352 89.125 147.092 89.7135 146.571 90.2031C146.06 90.6927 145.446 90.9375 144.727 90.9375ZM158.767 119.5C156.507 119.5 154.653 118.969 153.205 117.906C151.767 116.844 150.767 115.38 150.205 113.516C149.642 111.651 149.559 109.521 149.955 107.125C150.351 104.687 151.153 102.536 152.361 100.672C153.569 98.7969 155.074 97.3333 156.877 96.2812C158.679 95.2187 160.663 94.6875 162.83 94.6875C164.517 94.6875 165.986 95 167.236 95.625C168.486 96.25 169.449 97.125 170.127 98.25C170.804 99.375 171.121 100.687 171.08 102.187H167.392C167.288 101.094 166.819 100.125 165.986 99.2812C165.163 98.4271 163.944 98 162.33 98C160.892 98 159.569 98.375 158.361 99.125C157.153 99.8646 156.137 100.911 155.314 102.266C154.491 103.609 153.934 105.187 153.642 107C153.33 108.854 153.356 110.469 153.72 111.844C154.085 113.219 154.746 114.286 155.705 115.047C156.663 115.807 157.871 116.188 159.33 116.188C160.288 116.188 161.184 116.021 162.017 115.687C162.851 115.354 163.59 114.875 164.236 114.25C164.882 113.625 165.392 112.875 165.767 112H169.455C168.996 113.417 168.262 114.693 167.252 115.828C166.241 116.953 165.017 117.849 163.58 118.516C162.142 119.172 160.538 119.5 158.767 119.5ZM202.23 95L201.73 98.125H189.293L189.793 95H202.23ZM194.355 89.25H198.043L194.23 112.125C194.064 113.167 194.09 113.948 194.308 114.469C194.538 114.979 194.881 115.323 195.34 115.5C195.808 115.667 196.314 115.75 196.855 115.75C197.262 115.75 197.595 115.729 197.855 115.687C198.116 115.635 198.324 115.594 198.48 115.562L198.73 118.875C198.449 118.969 198.069 119.063 197.59 119.156C197.121 119.26 196.543 119.313 195.855 119.313C194.814 119.313 193.834 119.089 192.918 118.641C192.001 118.193 191.298 117.51 190.808 116.594C190.319 115.677 190.189 114.521 190.418 113.125L194.355 89.25ZM214.399 119.5C212.097 119.5 210.196 118.99 208.696 117.969C207.196 116.938 206.149 115.5 205.556 113.656C204.962 111.802 204.868 109.646 205.274 107.188C205.681 104.729 206.488 102.562 207.696 100.687C208.905 98.8021 210.41 97.3333 212.212 96.2812C214.014 95.2187 215.993 94.6875 218.149 94.6875C219.399 94.6875 220.602 94.8958 221.759 95.3125C222.915 95.7292 223.915 96.4062 224.759 97.3438C225.602 98.2708 226.191 99.5 226.524 101.031C226.858 102.562 226.837 104.448 226.462 106.687L226.212 108.25H207.712L208.212 105.062H222.962C223.201 103.708 223.139 102.5 222.774 101.437C222.42 100.375 221.8 99.5365 220.915 98.9219C220.04 98.3073 218.931 98 217.587 98C216.201 98 214.91 98.375 213.712 99.125C212.514 99.8646 211.514 100.802 210.712 101.937C209.91 103.062 209.41 104.208 209.212 105.375L208.774 108.125C208.462 110.115 208.509 111.698 208.915 112.875C209.332 114.052 210.056 114.901 211.087 115.422C212.118 115.932 213.41 116.188 214.962 116.188C215.951 116.188 216.863 116.052 217.696 115.781C218.53 115.5 219.274 115.083 219.931 114.531C220.587 113.969 221.139 113.271 221.587 112.437L224.962 113.438C224.389 114.646 223.582 115.708 222.54 116.625C221.509 117.531 220.3 118.24 218.915 118.75C217.54 119.25 216.035 119.5 214.399 119.5ZM237.08 95L241.205 104.812L248.58 95H252.83L243.08 107L248.83 119H244.58L240.393 109.687L233.08 119H228.83L238.455 107L232.83 95H237.08ZM269.409 95L268.909 98.125H256.472L256.972 95H269.409ZM261.534 89.25H265.222L261.409 112.125C261.243 113.167 261.269 113.948 261.488 114.469C261.717 114.979 262.06 115.323 262.519 115.5C262.988 115.667 263.493 115.75 264.034 115.75C264.441 115.75 264.774 115.729 265.034 115.687C265.295 115.635 265.503 115.594 265.659 115.562L265.909 118.875C265.628 118.969 265.248 119.063 264.769 119.156C264.3 119.26 263.722 119.313 263.034 119.313C261.993 119.313 261.014 119.089 260.097 118.641C259.18 118.193 258.477 117.51 257.988 116.594C257.498 115.677 257.368 114.521 257.597 113.125L261.534 89.25Z" fill="white"/>
</svg>
