<svg width="985" height="207" viewBox="0 0 985 207" fill="none" xmlns="http://www.w3.org/2000/svg">
<rect x="1" y="1" width="983" height="205" rx="68" fill="#0B0C0C" stroke="#1A1C1F" stroke-width="2"/>
<path d="M91.375 96C91.1875 94.4167 90.4271 93.1875 89.0938 92.3125C87.7604 91.4375 86.125 91 84.1875 91C82.7708 91 81.5313 91.2292 80.4688 91.6875C79.4167 92.1458 78.5938 92.776 78 93.5781C77.4167 94.3802 77.125 95.2917 77.125 96.3125C77.125 97.1667 77.3281 97.901 77.7344 98.5156C78.151 99.1198 78.6823 99.625 79.3281 100.031C79.974 100.427 80.651 100.755 81.3594 101.016C82.0677 101.266 82.7188 101.469 83.3125 101.625L86.5625 102.5C87.3958 102.719 88.3229 103.021 89.3438 103.406C90.375 103.792 91.3594 104.318 92.2969 104.984C93.2448 105.641 94.026 106.484 94.6406 107.516C95.2552 108.547 95.5625 109.812 95.5625 111.312C95.5625 113.042 95.1094 114.604 94.2031 116C93.3073 117.396 91.9948 118.505 90.2656 119.328C88.5469 120.151 86.4583 120.563 84 120.563C81.7083 120.563 79.724 120.193 78.0469 119.453C76.3802 118.714 75.0677 117.682 74.1094 116.359C73.1615 115.036 72.625 113.5 72.5 111.75H76.5C76.6042 112.958 77.0104 113.958 77.7188 114.75C78.4375 115.531 79.3438 116.115 80.4375 116.5C81.5417 116.875 82.7292 117.062 84 117.062C85.4792 117.062 86.8073 116.823 87.9844 116.344C89.1615 115.854 90.0938 115.177 90.7813 114.312C91.4688 113.437 91.8125 112.417 91.8125 111.25C91.8125 110.187 91.5156 109.323 90.9219 108.656C90.3281 107.99 89.5469 107.448 88.5781 107.031C87.6094 106.615 86.5625 106.25 85.4375 105.937L81.5 104.812C79 104.094 77.0208 103.068 75.5625 101.734C74.1042 100.401 73.375 98.6562 73.375 96.5C73.375 94.7083 73.8594 93.1458 74.8281 91.8125C75.8073 90.4687 77.1198 89.4271 78.7656 88.6875C80.4219 87.9375 82.2708 87.5625 84.3125 87.5625C86.375 87.5625 88.2083 87.9323 89.8125 88.6719C91.4167 89.401 92.6875 90.401 93.625 91.6719C94.5729 92.9427 95.0729 94.3854 95.125 96H91.375ZM112.751 96V99.125H100.314V96H112.751ZM103.939 90.25H107.626V113.125C107.626 114.167 107.777 114.948 108.079 115.469C108.392 115.979 108.788 116.323 109.267 116.5C109.756 116.667 110.272 116.75 110.814 116.75C111.22 116.75 111.553 116.729 111.814 116.687C112.074 116.635 112.282 116.594 112.439 116.562L113.189 119.875C112.939 119.969 112.59 120.063 112.142 120.156C111.694 120.26 111.126 120.313 110.439 120.313C109.397 120.313 108.376 120.089 107.376 119.641C106.387 119.193 105.564 118.51 104.907 117.594C104.262 116.677 103.939 115.521 103.939 114.125V90.25ZM119.178 120V96H122.74V99.625H122.99C123.428 98.4375 124.22 97.474 125.365 96.7344C126.511 95.9948 127.803 95.625 129.24 95.625C129.511 95.625 129.85 95.6302 130.256 95.6406C130.662 95.651 130.97 95.6667 131.178 95.6875V99.4375C131.053 99.4062 130.767 99.3594 130.319 99.2969C129.881 99.224 129.418 99.1875 128.928 99.1875C127.761 99.1875 126.72 99.4323 125.803 99.9219C124.897 100.401 124.178 101.068 123.647 101.922C123.126 102.766 122.865 103.729 122.865 104.812V120H119.178ZM136.429 120V96H140.117V120H136.429ZM138.304 92C137.585 92 136.966 91.7552 136.445 91.2656C135.934 90.776 135.679 90.1875 135.679 89.5C135.679 88.8125 135.934 88.224 136.445 87.7344C136.966 87.2448 137.585 87 138.304 87C139.023 87 139.637 87.2448 140.148 87.7344C140.669 88.224 140.929 88.8125 140.929 89.5C140.929 90.1875 140.669 90.776 140.148 91.2656C139.637 91.7552 139.023 92 138.304 92ZM151.188 111.25L151.125 106.688H151.875L162.375 96H166.938L155.75 107.312H155.438L151.188 111.25ZM147.75 120V88H151.438V120H147.75ZM163 120L153.625 108.125L156.25 105.562L167.688 120H163ZM181.638 120.5C179.326 120.5 177.331 119.99 175.654 118.969C173.987 117.938 172.701 116.5 171.795 114.656C170.899 112.802 170.451 110.646 170.451 108.188C170.451 105.729 170.899 103.562 171.795 101.687C172.701 99.8021 173.961 98.3333 175.576 97.2812C177.201 96.2187 179.097 95.6875 181.263 95.6875C182.513 95.6875 183.748 95.8958 184.966 96.3125C186.185 96.7292 187.295 97.4062 188.295 98.3438C189.295 99.2708 190.091 100.5 190.685 102.031C191.279 103.562 191.576 105.448 191.576 107.687V109.25H173.076V106.062H187.826C187.826 104.708 187.555 103.5 187.013 102.437C186.482 101.375 185.722 100.536 184.732 99.9219C183.753 99.3073 182.597 99 181.263 99C179.795 99 178.524 99.3646 177.451 100.094C176.388 100.812 175.571 101.75 174.998 102.906C174.425 104.062 174.138 105.302 174.138 106.625V108.75C174.138 110.563 174.451 112.099 175.076 113.359C175.711 114.609 176.591 115.562 177.716 116.219C178.841 116.865 180.149 117.188 181.638 117.188C182.607 117.188 183.482 117.052 184.263 116.781C185.055 116.5 185.737 116.083 186.31 115.531C186.883 114.969 187.326 114.271 187.638 113.437L191.201 114.438C190.826 115.646 190.196 116.708 189.31 117.625C188.425 118.531 187.331 119.24 186.029 119.75C184.727 120.25 183.263 120.5 181.638 120.5ZM208.503 96V99.125H196.065V96H208.503ZM199.69 90.25H203.378V113.125C203.378 114.167 203.529 114.948 203.831 115.469C204.143 115.979 204.539 116.323 205.018 116.5C205.508 116.667 206.023 116.75 206.565 116.75C206.971 116.75 207.305 116.729 207.565 116.687C207.826 116.635 208.034 116.594 208.19 116.562L208.94 119.875C208.69 119.969 208.341 120.063 207.893 120.156C207.445 120.26 206.878 120.313 206.19 120.313C205.148 120.313 204.128 120.089 203.128 119.641C202.138 119.193 201.315 118.51 200.659 117.594C200.013 116.677 199.69 115.521 199.69 114.125V90.25ZM219.133 105.562V120H215.445V88H219.133V99.75H219.445C220.008 98.5104 220.851 97.526 221.976 96.7969C223.112 96.0573 224.622 95.6875 226.508 95.6875C228.143 95.6875 229.575 96.0156 230.805 96.6719C232.034 97.3177 232.987 98.3125 233.664 99.6562C234.351 100.99 234.695 102.687 234.695 104.75V120H231.008V105C231.008 103.094 230.513 101.62 229.523 100.578C228.544 99.526 227.185 99 225.445 99C224.237 99 223.153 99.2552 222.195 99.7656C221.247 100.276 220.497 101.021 219.945 102C219.403 102.979 219.133 104.167 219.133 105.562ZM242.321 120V96H245.884V99.625H246.134C246.571 98.4375 247.363 97.474 248.509 96.7344C249.655 95.9948 250.946 95.625 252.384 95.625C252.655 95.625 252.993 95.6302 253.399 95.6406C253.806 95.651 254.113 95.6667 254.321 95.6875V99.4375C254.196 99.4062 253.91 99.3594 253.462 99.2969C253.024 99.224 252.561 99.1875 252.071 99.1875C250.905 99.1875 249.863 99.4323 248.946 99.9219C248.04 100.401 247.321 101.068 246.79 101.922C246.269 102.766 246.009 103.729 246.009 104.812V120H242.321ZM268.592 120.5C266.425 120.5 264.524 119.984 262.889 118.953C261.264 117.922 259.993 116.479 259.076 114.625C258.17 112.771 257.717 110.604 257.717 108.125C257.717 105.625 258.17 103.443 259.076 101.578C259.993 99.7135 261.264 98.2656 262.889 97.2344C264.524 96.2031 266.425 95.6875 268.592 95.6875C270.759 95.6875 272.654 96.2031 274.279 97.2344C275.915 98.2656 277.186 99.7135 278.092 101.578C279.009 103.443 279.467 105.625 279.467 108.125C279.467 110.604 279.009 112.771 278.092 114.625C277.186 116.479 275.915 117.922 274.279 118.953C272.654 119.984 270.759 120.5 268.592 120.5ZM268.592 117.188C270.238 117.188 271.592 116.766 272.654 115.922C273.717 115.078 274.503 113.969 275.014 112.594C275.524 111.219 275.779 109.729 275.779 108.125C275.779 106.521 275.524 105.026 275.014 103.641C274.503 102.255 273.717 101.135 272.654 100.281C271.592 99.4271 270.238 99 268.592 99C266.946 99 265.592 99.4271 264.529 100.281C263.467 101.135 262.68 102.255 262.17 103.641C261.66 105.026 261.404 106.521 261.404 108.125C261.404 109.729 261.66 111.219 262.17 112.594C262.68 113.969 263.467 115.078 264.529 115.922C265.592 116.766 266.946 117.188 268.592 117.188ZM301.101 110.187V96H304.788V120H301.101V115.937H300.851C300.288 117.156 299.413 118.193 298.226 119.047C297.038 119.891 295.538 120.313 293.726 120.313C292.226 120.313 290.892 119.984 289.726 119.328C288.559 118.661 287.642 117.661 286.976 116.328C286.309 114.984 285.976 113.292 285.976 111.25V96H289.663V111C289.663 112.75 290.153 114.146 291.132 115.188C292.122 116.229 293.382 116.75 294.913 116.75C295.83 116.75 296.762 116.516 297.71 116.047C298.668 115.578 299.471 114.859 300.116 113.891C300.773 112.922 301.101 111.687 301.101 110.187ZM322.11 129.5C320.328 129.5 318.797 129.271 317.516 128.813C316.235 128.365 315.167 127.771 314.313 127.031C313.469 126.302 312.797 125.521 312.297 124.688L315.235 122.625C315.568 123.063 315.99 123.563 316.5 124.125C317.011 124.698 317.709 125.193 318.594 125.609C319.49 126.036 320.662 126.25 322.11 126.25C324.047 126.25 325.646 125.781 326.907 124.844C328.167 123.906 328.797 122.437 328.797 120.437V115.562H328.485C328.214 116 327.828 116.542 327.328 117.188C326.839 117.823 326.131 118.391 325.203 118.891C324.287 119.38 323.047 119.625 321.485 119.625C319.547 119.625 317.808 119.167 316.266 118.25C314.735 117.333 313.521 116 312.625 114.25C311.74 112.5 311.297 110.375 311.297 107.875C311.297 105.417 311.729 103.276 312.594 101.453C313.459 99.6198 314.662 98.2031 316.203 97.2031C317.745 96.1927 319.526 95.6875 321.547 95.6875C323.11 95.6875 324.349 95.9479 325.266 96.4688C326.193 96.9792 326.901 97.5625 327.391 98.2187C327.891 98.8646 328.276 99.3958 328.547 99.8125H328.922V96H332.485V120.688C332.485 122.75 332.016 124.427 331.078 125.719C330.151 127.021 328.901 127.974 327.328 128.578C325.766 129.193 324.026 129.5 322.11 129.5ZM321.985 116.312C323.464 116.312 324.714 115.974 325.735 115.297C326.756 114.62 327.532 113.646 328.063 112.375C328.594 111.104 328.86 109.583 328.86 107.812C328.86 106.083 328.599 104.557 328.078 103.234C327.558 101.911 326.787 100.875 325.766 100.125C324.745 99.375 323.485 99 321.985 99C320.422 99 319.12 99.3958 318.078 100.187C317.047 100.979 316.271 102.042 315.75 103.375C315.24 104.708 314.985 106.187 314.985 107.812C314.985 109.479 315.245 110.953 315.766 112.234C316.297 113.505 317.078 114.505 318.11 115.234C319.151 115.953 320.443 116.312 321.985 116.312ZM343.802 105.562V120H340.115V88H343.802V99.75H344.115C344.677 98.5104 345.521 97.526 346.646 96.7969C347.781 96.0573 349.292 95.6875 351.177 95.6875C352.813 95.6875 354.245 96.0156 355.474 96.6719C356.703 97.3177 357.656 98.3125 358.333 99.6562C359.021 100.99 359.365 102.687 359.365 104.75V120H355.677V105C355.677 103.094 355.182 101.62 354.193 100.578C353.214 99.526 351.854 99 350.115 99C348.906 99 347.823 99.2552 346.865 99.7656C345.917 100.276 345.167 101.021 344.615 102C344.073 102.979 343.802 104.167 343.802 105.562ZM390.683 96V99.125H378.246V96H390.683ZM381.871 90.25H385.558V113.125C385.558 114.167 385.709 114.948 386.011 115.469C386.324 115.979 386.72 116.323 387.199 116.5C387.688 116.667 388.204 116.75 388.746 116.75C389.152 116.75 389.485 116.729 389.746 116.687C390.006 116.635 390.215 116.594 390.371 116.562L391.121 119.875C390.871 119.969 390.522 120.063 390.074 120.156C389.626 120.26 389.058 120.313 388.371 120.313C387.329 120.313 386.308 120.089 385.308 119.641C384.319 119.193 383.496 118.51 382.84 117.594C382.194 116.677 381.871 115.521 381.871 114.125V90.25ZM406.915 120.5C404.602 120.5 402.608 119.99 400.93 118.969C399.264 117.938 397.977 116.5 397.071 114.656C396.175 112.802 395.727 110.646 395.727 108.188C395.727 105.729 396.175 103.562 397.071 101.687C397.977 99.8021 399.238 98.3333 400.852 97.2812C402.477 96.2187 404.373 95.6875 406.54 95.6875C407.79 95.6875 409.024 95.8958 410.243 96.3125C411.462 96.7292 412.571 97.4062 413.571 98.3438C414.571 99.2708 415.368 100.5 415.962 102.031C416.555 103.562 416.852 105.448 416.852 107.687V109.25H398.352V106.062H413.102C413.102 104.708 412.832 103.5 412.29 102.437C411.759 101.375 410.998 100.536 410.009 99.9219C409.029 99.3073 407.873 99 406.54 99C405.071 99 403.8 99.3646 402.727 100.094C401.665 100.812 400.847 101.75 400.274 102.906C399.701 104.062 399.415 105.302 399.415 106.625V108.75C399.415 110.563 399.727 112.099 400.352 113.359C400.988 114.609 401.868 115.562 402.993 116.219C404.118 116.865 405.425 117.188 406.915 117.188C407.884 117.188 408.759 117.052 409.54 116.781C410.332 116.5 411.014 116.083 411.587 115.531C412.16 114.969 412.602 114.271 412.915 113.437L416.477 114.438C416.102 115.646 415.472 116.708 414.587 117.625C413.701 118.531 412.608 119.24 411.305 119.75C410.003 120.25 408.54 120.5 406.915 120.5ZM425.447 96L431.197 105.812L436.947 96H441.197L433.447 108L441.197 120H436.947L431.197 110.687L425.447 120H421.197L428.822 108L421.197 96H425.447ZM457.776 96V99.125H445.339V96H457.776ZM448.964 90.25H452.651V113.125C452.651 114.167 452.802 114.948 453.105 115.469C453.417 115.979 453.813 116.323 454.292 116.5C454.782 116.667 455.297 116.75 455.839 116.75C456.245 116.75 456.578 116.729 456.839 116.687C457.099 116.635 457.308 116.594 457.464 116.562L458.214 119.875C457.964 119.969 457.615 120.063 457.167 120.156C456.719 120.26 456.151 120.313 455.464 120.313C454.422 120.313 453.401 120.089 452.401 119.641C451.412 119.193 450.589 118.51 449.933 117.594C449.287 116.677 448.964 115.521 448.964 114.125V90.25Z" fill="white"/>
<line x1="70" y1="106.5" x2="455" y2="106.5" stroke="#D1D6DB" stroke-width="5"/>
</svg>
