<svg xmlns:xlink="http://www.w3.org/1999/xlink" xmlns="http://www.w3.org/2000/svg" width="432" height="123.29" version="1.1" viewBox="388 509 432 123.29"><defs><filter id="a" color-interpolation-filters="sRGB"><feFlood flood-color="rgb(0,0,0)" flood-opacity=".49804" result="flood"/><feComposite in="flood" in2="SourceGraphic" operator="in" result="composite1"/><feGaussianBlur in="composite1" result="blur" stdDeviation="0.5"/><feOffset dx="0" dy="0" result="offset"/><feComposite in="SourceGraphic" in2="offset" result="composite2"/></filter></defs><rect x="388" y="509" width="432" height="123.29" fill="#313338"/><g transform="translate(22 20.291)"><g color="#b5bac1" dominant-baseline="text-after-edge" fill="#b5bac1" aria-label="CONTENT"><path d="m402.32 529.33q-1.128 0-2.004-0.516-0.876-0.528-1.368-1.5t-0.492-2.292 0.492-2.292 1.368-1.488q0.876-0.528 2.004-0.528 2.244 0 3.168 1.74l-1.308 1.02q-0.276-0.552-0.768-0.864t-1.092-0.312-1.08 0.312-0.756 0.936q-0.276 0.612-0.276 1.476t0.276 1.488q0.276 0.612 0.756 0.924t1.08 0.312q0.588 0 1.08-0.312 0.504-0.312 0.78-0.864l1.308 1.02q-0.456 0.852-1.272 1.296-0.804 0.444-1.896 0.444z"/><path d="m410.2 529.33q-1.128 0-1.992-0.516t-1.344-1.488q-0.48-0.984-0.48-2.304t0.48-2.292q0.48-0.984 1.344-1.5t1.992-0.516 1.992 0.516 1.344 1.5q0.48 0.972 0.48 2.292t-0.48 2.304q-0.48 0.972-1.344 1.488t-1.992 0.516zm0-1.584q1.008 0 1.536-0.696 0.528-0.708 0.528-2.028t-0.528-2.016q-0.528-0.708-1.536-0.708t-1.536 0.708q-0.528 0.696-0.528 2.016t0.528 2.028q0.528 0.696 1.536 0.696z"/><path d="m417.29 529.16h-1.728v-8.28h2.184l3.144 5.832v-5.832h1.728v8.28h-2.16l-3.168-5.856z"/><path d="m428.22 529.16h-1.752v-6.696h-2.4v-1.584h6.552v1.584h-2.4z"/><path d="m437.74 529.16h-5.688v-8.28h5.604v1.584h-3.852v1.632h3.264v1.584h-3.264v1.896h3.936z"/><path d="m441.1 529.16h-1.728v-8.28h2.184l3.144 5.832v-5.832h1.728v8.28h-2.16l-3.168-5.856z"/><path d="m452.02 529.16h-1.752v-6.696h-2.4v-1.584h6.552v1.584h-2.4z"/></g><rect x="398" y="540" width="368" height="40" rx="3" ry="3" fill="#1e1f22" stroke="rgba(0, 0, 0, 0.3)" stroke-width="1px"/><g color="#f9f9f9" dominant-baseline="central" fill="#f9f9f9" aria-label="dh=105e3d00a0eeb3365c75d572a49..."><path d="m413.03 565.95q-0.864 0-1.616-0.464t-1.2-1.36-0.448-2.16 0.448-2.16 1.2-1.36 1.616-0.464q0.784 0 1.44 0.32t1.008 0.848v-5.104h1.088v11.68h-0.96l-0.096-0.992q-0.352 0.528-1.024 0.88-0.656 0.336-1.456 0.336zm0.208-0.928q1.344 0 2.24-1.408v-3.296q-0.896-1.408-2.24-1.408-0.608 0-1.152 0.32-0.528 0.304-0.864 0.992t-0.336 1.744 0.336 1.744 0.864 1.008q0.544 0.304 1.152 0.304z"/><path d="m419.12 565.73v-11.68h1.088v5.184q0.336-0.528 0.992-0.88 0.656-0.368 1.424-0.368 1.136 0 1.84 0.688 0.704 0.672 0.704 1.936v5.12h-1.088v-5.136q0-0.8-0.448-1.248-0.432-0.464-1.184-0.464-1.376 0-2.24 1.44v5.408z"/><path d="m433.67 559.34h-6.624v-0.96h6.624zm0 3.68h-6.624v-0.96h6.624z"/><path d="m437.53 556.29q-1.024 1.616-2.352 1.744v-1.232q1.184-0.096 2.352-2.112h1.088v11.04h-1.088z"/><path d="m444.64 565.95q-1.184 0-2.08-0.656t-1.392-1.936q-0.496-1.296-0.496-3.152t0.496-3.136q0.496-1.296 1.392-1.952t2.08-0.656 2.08 0.656 1.392 1.952q0.496 1.28 0.496 3.136t-0.496 3.152q-0.496 1.28-1.392 1.936t-2.08 0.656zm0-1.024q1.456 0 2.144-1.184 0.704-1.184 0.704-3.536t-0.704-3.536q-0.688-1.184-2.144-1.184t-2.16 1.184q-0.688 1.184-0.688 3.536t0.688 3.536q0.704 1.184 2.16 1.184z"/><path d="m453.57 565.95q-1.232 0-2.16-0.592t-1.328-1.392l0.848-0.72q0.416 0.784 1.04 1.232 0.64 0.448 1.6 0.448 1.152 0 1.824-0.704 0.672-0.72 0.672-1.904 0-1.136-0.656-1.856t-1.744-0.72q-0.672 0-1.2 0.288-0.528 0.272-0.848 0.704l-1.152-0.464 0.864-5.584h5.52v1.024h-4.672l-0.688 4.096q0.368-0.448 0.992-0.72 0.64-0.272 1.424-0.272 0.928 0 1.664 0.432 0.752 0.432 1.184 1.232t0.432 1.84q0 1.056-0.48 1.888-0.464 0.816-1.296 1.28-0.816 0.464-1.84 0.464z"/><path d="m462.15 565.95q-1.12 0-1.92-0.544-0.784-0.544-1.184-1.456t-0.4-2.016 0.4-2q0.416-0.912 1.2-1.424 0.784-0.528 1.84-0.528 1.408 0 2.272 0.944 0.88 0.944 0.88 2.704 0 0.368-0.016 0.56h-5.488q0.064 1.312 0.72 2.08 0.656 0.752 1.728 0.752 1.472 0 2.256-1.248l0.832 0.544q-0.592 0.896-1.328 1.264-0.72 0.368-1.792 0.368zm2.064-4.688q-0.032-1.216-0.64-1.776-0.608-0.576-1.552-0.576-0.896 0-1.504 0.608-0.592 0.608-0.736 1.744z"/><path d="m470.29 565.95q-1.472 0-2.432-0.832-0.944-0.848-1.168-2.112l0.976-0.4q0.272 1.136 0.88 1.728 0.624 0.592 1.744 0.592 1.184 0 1.84-0.608t0.656-1.76q0-0.992-0.608-1.52t-1.664-0.528h-0.944v-0.992h0.784q0.528 0 0.992-0.256 0.48-0.272 0.768-0.736t0.288-1.056q0-0.928-0.576-1.472-0.56-0.544-1.584-0.544-0.928 0-1.504 0.496t-0.816 1.376l-0.944-0.304q0.192-1.072 1.04-1.808 0.864-0.752 2.224-0.752 1.536 0 2.368 0.816 0.848 0.8 0.848 2.096 0 0.896-0.448 1.536-0.432 0.624-1.184 0.976 0.864 0.208 1.472 0.928t0.608 1.712q0 1.024-0.464 1.808-0.464 0.768-1.28 1.2-0.816 0.416-1.872 0.416z"/><path d="m478.78 565.95q-0.864 0-1.616-0.464t-1.2-1.36-0.448-2.16 0.448-2.16 1.2-1.36 1.616-0.464q0.784 0 1.44 0.32t1.008 0.848v-5.104h1.088v11.68h-0.96l-0.096-0.992q-0.352 0.528-1.024 0.88-0.656 0.336-1.456 0.336zm0.208-0.928q1.344 0 2.24-1.408v-3.296q-0.896-1.408-2.24-1.408-0.608 0-1.152 0.32-0.528 0.304-0.864 0.992t-0.336 1.744 0.336 1.744 0.864 1.008q0.544 0.304 1.152 0.304z"/><path d="m488.27 565.95q-1.184 0-2.08-0.656t-1.392-1.936q-0.496-1.296-0.496-3.152t0.496-3.136q0.496-1.296 1.392-1.952t2.08-0.656 2.08 0.656 1.392 1.952q0.496 1.28 0.496 3.136t-0.496 3.152q-0.496 1.28-1.392 1.936t-2.08 0.656zm0-1.024q1.456 0 2.144-1.184 0.704-1.184 0.704-3.536t-0.704-3.536q-0.688-1.184-2.144-1.184t-2.16 1.184q-0.688 1.184-0.688 3.536t0.688 3.536q0.704 1.184 2.16 1.184z"/><path d="m497.61 565.95q-1.184 0-2.08-0.656t-1.392-1.936q-0.496-1.296-0.496-3.152t0.496-3.136q0.496-1.296 1.392-1.952t2.08-0.656 2.08 0.656 1.392 1.952q0.496 1.28 0.496 3.136t-0.496 3.152q-0.496 1.28-1.392 1.936t-2.08 0.656zm0-1.024q1.456 0 2.144-1.184 0.704-1.184 0.704-3.536t-0.704-3.536q-0.688-1.184-2.144-1.184t-2.16 1.184q-0.688 1.184-0.688 3.536t0.688 3.536q0.704 1.184 2.16 1.184z"/><path d="m505.66 565.95q-0.992 0-1.696-0.544-0.704-0.56-0.704-1.648 0-1.36 1.232-1.984 1.248-0.624 3.632-0.656v-0.496q0-0.832-0.448-1.264-0.448-0.448-1.312-0.448-0.592 0-1.184 0.272t-1.056 0.768l-0.64-0.736q0.496-0.544 1.264-0.88 0.768-0.352 1.6-0.352 1.392 0 2.128 0.672 0.736 0.656 0.736 1.968v5.104h-0.944l-0.144-1.12q-0.336 0.56-1.024 0.96-0.688 0.384-1.44 0.384zm0.208-0.928q1.36 0 2.256-1.44v-1.616q-1.952 0.032-2.864 0.464-0.896 0.416-0.896 1.296 0 0.64 0.4 0.976 0.4 0.32 1.104 0.32z"/><path d="m515.11 565.95q-1.184 0-2.08-0.656t-1.392-1.936q-0.496-1.296-0.496-3.152t0.496-3.136q0.496-1.296 1.392-1.952t2.08-0.656 2.08 0.656 1.392 1.952q0.496 1.28 0.496 3.136t-0.496 3.152q-0.496 1.28-1.392 1.936t-2.08 0.656zm0-1.024q1.456 0 2.144-1.184 0.704-1.184 0.704-3.536t-0.704-3.536q-0.688-1.184-2.144-1.184t-2.16 1.184q-0.688 1.184-0.688 3.536t0.688 3.536q0.704 1.184 2.16 1.184z"/><path d="m524.05 565.95q-1.12 0-1.92-0.544-0.784-0.544-1.184-1.456t-0.4-2.016 0.4-2q0.416-0.912 1.2-1.424 0.784-0.528 1.84-0.528 1.408 0 2.272 0.944 0.88 0.944 0.88 2.704 0 0.368-0.016 0.56h-5.488q0.064 1.312 0.72 2.08 0.656 0.752 1.728 0.752 1.472 0 2.256-1.248l0.832 0.544q-0.592 0.896-1.328 1.264-0.72 0.368-1.792 0.368zm2.064-4.688q-0.032-1.216-0.64-1.776-0.608-0.576-1.552-0.576-0.896 0-1.504 0.608-0.592 0.608-0.736 1.744z"/><path d="m532.18 565.95q-1.12 0-1.92-0.544-0.784-0.544-1.184-1.456t-0.4-2.016 0.4-2q0.416-0.912 1.2-1.424 0.784-0.528 1.84-0.528 1.408 0 2.272 0.944 0.88 0.944 0.88 2.704 0 0.368-0.016 0.56h-5.488q0.064 1.312 0.72 2.08 0.656 0.752 1.728 0.752 1.472 0 2.256-1.248l0.832 0.544q-0.592 0.896-1.328 1.264-0.72 0.368-1.792 0.368zm2.064-4.688q-0.032-1.216-0.64-1.776-0.608-0.576-1.552-0.576-0.896 0-1.504 0.608-0.592 0.608-0.736 1.744z"/><path d="m540.85 565.95q-0.8 0-1.472-0.336-0.656-0.352-1.008-0.88l-0.096 0.992h-0.96v-11.68h1.088v5.104q0.352-0.528 1.008-0.848t1.44-0.32q0.864 0 1.616 0.464t1.2 1.36 0.448 2.16-0.448 2.16-1.2 1.36-1.616 0.464zm-0.208-0.928q0.608 0 1.136-0.304 0.544-0.32 0.88-1.008t0.336-1.744-0.336-1.744-0.88-0.992q-0.528-0.32-1.136-0.32-1.344 0-2.24 1.408v3.296q0.896 1.408 2.24 1.408z"/><path d="m549.16 565.95q-1.472 0-2.432-0.832-0.944-0.848-1.168-2.112l0.976-0.4q0.272 1.136 0.88 1.728 0.624 0.592 1.744 0.592 1.184 0 1.84-0.608t0.656-1.76q0-0.992-0.608-1.52t-1.664-0.528h-0.944v-0.992h0.784q0.528 0 0.992-0.256 0.48-0.272 0.768-0.736t0.288-1.056q0-0.928-0.576-1.472-0.56-0.544-1.584-0.544-0.928 0-1.504 0.496t-0.816 1.376l-0.944-0.304q0.192-1.072 1.04-1.808 0.864-0.752 2.224-0.752 1.536 0 2.368 0.816 0.848 0.8 0.848 2.096 0 0.896-0.448 1.536-0.432 0.624-1.184 0.976 0.864 0.208 1.472 0.928t0.608 1.712q0 1.024-0.464 1.808-0.464 0.768-1.28 1.2-0.816 0.416-1.872 0.416z"/><path d="m557.91 565.95q-1.472 0-2.432-0.832-0.944-0.848-1.168-2.112l0.976-0.4q0.272 1.136 0.88 1.728 0.624 0.592 1.744 0.592 1.184 0 1.84-0.608t0.656-1.76q0-0.992-0.608-1.52t-1.664-0.528h-0.944v-0.992h0.784q0.528 0 0.992-0.256 0.48-0.272 0.768-0.736t0.288-1.056q0-0.928-0.576-1.472-0.56-0.544-1.584-0.544-0.928 0-1.504 0.496t-0.816 1.376l-0.944-0.304q0.192-1.072 1.04-1.808 0.864-0.752 2.224-0.752 1.536 0 2.368 0.816 0.848 0.8 0.848 2.096 0 0.896-0.448 1.536-0.432 0.624-1.184 0.976 0.864 0.208 1.472 0.928t0.608 1.712q0 1.024-0.464 1.808-0.464 0.768-1.28 1.2-0.816 0.416-1.872 0.416z"/><path d="m566.84 558.69q0.992 0 1.776 0.48t1.216 1.312 0.432 1.856q0 1.04-0.48 1.872-0.464 0.816-1.296 1.28-0.816 0.464-1.84 0.464-1.104 0-1.92-0.464-0.8-0.464-1.248-1.28-0.432-0.832-0.432-1.872 0-1.328 0.896-2.8l2.96-4.848h1.248l-2.688 4.384q0.512-0.384 1.376-0.384zm-0.192 6.24q1.088 0 1.792-0.736t0.704-1.872-0.704-1.872-1.792-0.736-1.792 0.736q-0.688 0.736-0.688 1.872t0.688 1.872q0.704 0.736 1.792 0.736z"/><path d="m575.19 565.95q-1.232 0-2.16-0.592t-1.328-1.392l0.848-0.72q0.416 0.784 1.04 1.232 0.64 0.448 1.6 0.448 1.152 0 1.824-0.704 0.672-0.72 0.672-1.904 0-1.136-0.656-1.856t-1.744-0.72q-0.672 0-1.2 0.288-0.528 0.272-0.848 0.704l-1.152-0.464 0.864-5.584h5.52v1.024h-4.672l-0.688 4.096q0.368-0.448 0.992-0.72 0.64-0.272 1.424-0.272 0.928 0 1.664 0.432 0.752 0.432 1.184 1.232t0.432 1.84q0 1.056-0.48 1.888-0.464 0.816-1.296 1.28-0.816 0.464-1.84 0.464z"/><path d="m583.8 565.95q-0.992 0-1.792-0.48t-1.28-1.376q-0.464-0.912-0.464-2.128t0.48-2.112q0.48-0.912 1.296-1.392t1.792-0.48q1.024 0 1.808 0.496 0.8 0.48 1.2 1.424l-0.88 0.544q-0.368-0.768-0.88-1.136t-1.28-0.368q-1.072 0-1.744 0.8-0.656 0.784-0.656 2.224t0.656 2.24q0.672 0.784 1.712 0.784 0.848 0 1.392-0.416 0.56-0.432 0.928-1.216l0.864 0.56q-1.04 2.032-3.152 2.032z"/><path d="m589.98 565.73q0.048-6.256 3.296-10.032h-5.344v-1.008h6.464v1.008q-3.232 3.424-3.184 10.032z"/><path d="m598.97 565.95q-1.232 0-2.16-0.592t-1.328-1.392l0.848-0.72q0.416 0.784 1.04 1.232 0.64 0.448 1.6 0.448 1.152 0 1.824-0.704 0.672-0.72 0.672-1.904 0-1.136-0.656-1.856t-1.744-0.72q-0.672 0-1.2 0.288-0.528 0.272-0.848 0.704l-1.152-0.464 0.864-5.584h5.52v1.024h-4.672l-0.688 4.096q0.368-0.448 0.992-0.72 0.64-0.272 1.424-0.272 0.928 0 1.664 0.432 0.752 0.432 1.184 1.232t0.432 1.84q0 1.056-0.48 1.888-0.464 0.816-1.296 1.28-0.816 0.464-1.84 0.464z"/><path d="m607.31 565.95q-0.864 0-1.616-0.464t-1.2-1.36-0.448-2.16 0.448-2.16 1.2-1.36 1.616-0.464q0.784 0 1.44 0.32t1.008 0.848v-5.104h1.088v11.68h-0.96l-0.096-0.992q-0.352 0.528-1.024 0.88-0.656 0.336-1.456 0.336zm0.208-0.928q1.344 0 2.24-1.408v-3.296q-0.896-1.408-2.24-1.408-0.608 0-1.152 0.32-0.528 0.304-0.864 0.992t-0.336 1.744 0.336 1.744 0.864 1.008q0.544 0.304 1.152 0.304z"/><path d="m616.38 565.95q-1.232 0-2.16-0.592t-1.328-1.392l0.848-0.72q0.416 0.784 1.04 1.232 0.64 0.448 1.6 0.448 1.152 0 1.824-0.704 0.672-0.72 0.672-1.904 0-1.136-0.656-1.856t-1.744-0.72q-0.672 0-1.2 0.288-0.528 0.272-0.848 0.704l-1.152-0.464 0.864-5.584h5.52v1.024h-4.672l-0.688 4.096q0.368-0.448 0.992-0.72 0.64-0.272 1.424-0.272 0.928 0 1.664 0.432 0.752 0.432 1.184 1.232t0.432 1.84q0 1.056-0.48 1.888-0.464 0.816-1.296 1.28-0.816 0.464-1.84 0.464z"/><path d="m623.1 565.73q0.048-6.256 3.296-10.032h-5.344v-1.008h6.464v1.008q-3.232 3.424-3.184 10.032z"/><path d="m635.63 564.7v1.024h-6.896v-0.304q0-1.504 0.832-2.656t2.512-2.144q1.264-0.752 1.776-1.408 0.512-0.672 0.512-1.6 0-0.992-0.592-1.552-0.592-0.576-1.616-0.576-0.944 0-1.504 0.512-0.544 0.512-0.8 1.472l-1.04-0.336q0.304-1.184 1.104-1.92 0.816-0.752 2.24-0.752 1.584 0 2.448 0.864 0.88 0.864 0.88 2.288 0 1.184-0.704 2.08t-1.984 1.68q-1.392 0.848-2.064 1.616t-0.784 1.712z"/><path d="m639.72 565.95q-0.992 0-1.696-0.544-0.704-0.56-0.704-1.648 0-1.36 1.232-1.984 1.248-0.624 3.632-0.656v-0.496q0-0.832-0.448-1.264-0.448-0.448-1.312-0.448-0.592 0-1.184 0.272t-1.056 0.768l-0.64-0.736q0.496-0.544 1.264-0.88 0.768-0.352 1.6-0.352 1.392 0 2.128 0.672 0.736 0.656 0.736 1.968v5.104h-0.944l-0.144-1.12q-0.336 0.56-1.024 0.96-0.688 0.384-1.44 0.384zm0.208-0.928q1.36 0 2.256-1.44v-1.616q-1.952 0.032-2.864 0.464-0.896 0.416-0.896 1.296 0 0.64 0.4 0.976 0.4 0.32 1.104 0.32z"/><path d="m651.27 562.14h1.776v1.024h-1.776v2.56h-1.12v-2.56h-5.28v-1.024l4.912-7.456h1.488zm-1.12-6.128-4.016 6.128h4.016z"/><path d="m657.69 554.46q1.68 0 2.64 0.976t0.96 2.64q0 1.328-0.896 2.8l-2.96 4.848h-1.248l2.688-4.384q-0.512 0.384-1.376 0.384-0.992 0-1.776-0.48t-1.216-1.312-0.432-1.856q0-1.04 0.464-1.856 0.48-0.832 1.296-1.296 0.832-0.464 1.856-0.464zm0 6.24q1.104 0 1.792-0.72t0.688-1.872-0.688-1.888-1.792-0.736-1.808 0.736q-0.688 0.736-0.688 1.888t0.688 1.872q0.704 0.72 1.808 0.72z"/><path d="m662.78 565.86q-0.384 0-0.624-0.24-0.224-0.24-0.224-0.608t0.224-0.608q0.24-0.24 0.624-0.24t0.608 0.24q0.24 0.24 0.24 0.608t-0.24 0.608q-0.224 0.24-0.608 0.24z"/><path d="m666.65 565.86q-0.384 0-0.624-0.24-0.224-0.24-0.224-0.608t0.224-0.608q0.24-0.24 0.624-0.24t0.608 0.24q0.24 0.24 0.24 0.608t-0.24 0.608q-0.224 0.24-0.608 0.24z"/><path d="m670.53 565.86q-0.384 0-0.624-0.24-0.224-0.24-0.224-0.608t0.224-0.608q0.24-0.24 0.624-0.24t0.608 0.24q0.24 0.24 0.24 0.608t-0.24 0.608q-0.224 0.24-0.608 0.24z"/></g><rect x="689.3" y="545" width="71.7" height="30" rx="2" ry="2" fill="#4e5058"/><g data-tag="div" data-z-index="auto"><g color="#ffffff" dominant-baseline="text-after-edge" fill="#fff" aria-label="Copy"><path d="m714.2 565.88q-1.19 0-2.17-0.56-0.966-0.574-1.54-1.708t-0.574-2.758q0-1.568 0.56-2.702 0.574-1.148 1.554-1.736t2.184-0.588q1.26 0 2.156 0.546 0.91 0.546 1.428 1.624l-1.036 0.77q-0.392-0.854-1.064-1.288t-1.484-0.434q-0.854 0-1.54 0.448-0.672 0.448-1.064 1.316-0.378 0.854-0.378 2.044 0 1.092 0.364 1.96 0.378 0.868 1.05 1.358t1.554 0.49q0.854 0 1.498-0.434 0.658-0.448 1.064-1.288l1.036 0.756q-0.518 1.064-1.442 1.624t-2.156 0.56z" style=""/><path d="m722.02 565.88q-0.882 0-1.596-0.406-0.7-0.42-1.12-1.204-0.406-0.798-0.406-1.876t0.406-1.862q0.42-0.798 1.12-1.204 0.714-0.42 1.596-0.42t1.582 0.42q0.714 0.406 1.12 1.204 0.42 0.784 0.42 1.862t-0.406 1.876q-0.406 0.784-1.12 1.204-0.714 0.406-1.596 0.406zm0-1.064q0.854 0 1.358-0.616 0.518-0.63 0.518-1.806 0-1.162-0.518-1.792-0.504-0.63-1.358-0.63t-1.372 0.63q-0.504 0.616-0.504 1.792t0.504 1.806q0.518 0.616 1.372 0.616z" style=""/><path d="m726.81 568.34v-9.24h1.078l0.098 0.798q0.322-0.448 0.854-0.714 0.532-0.28 1.19-0.28 0.77 0 1.428 0.406t1.05 1.204q0.392 0.784 0.392 1.876t-0.392 1.89q-0.392 0.784-1.05 1.19t-1.428 0.406q-0.63 0-1.148-0.238-0.504-0.238-0.826-0.63v3.332zm2.926-3.528q0.798 0 1.344-0.616t0.546-1.806-0.546-1.806-1.344-0.616q-1.008 0-1.68 1.022v2.814q0.672 1.008 1.68 1.008z" style=""/><path d="m734.44 568.47q-0.588 0-0.966-0.168v-1.092q0.448 0.196 0.84 0.196 0.546 0 0.868-0.322t0.588-1.036l0.21-0.532-2.45-6.412h1.302l1.736 4.83 1.834-4.83h1.26l-2.968 7.518q-0.364 0.91-0.91 1.372-0.532 0.476-1.344 0.476z" style=""/></g></g></g><g transform="rotate(-19.759 2067.5 -1889.6)" filter="url(#a)"><path d="m8.0459 1.6084c-0.44399 0-0.82306 0.15707-1.1372 0.47122-0.31414 0.31414-0.47121 0.6932-0.47121 1.1372v11.259l-1.8974-2.5382c-0.34346-0.4524-0.79164-0.6786-1.3445-0.6786-0.43561 0-0.80839 0.1592-1.1183 0.4775-0.30995 0.3184-0.46493 0.6953-0.46493 1.1309 0 0.3602 0.1089 0.6828 0.32671 0.9676l4.8252 6.4336c0.31833 0.4272 0.74556 0.6408 1.2817 0.6408h9.0222c0.1843 0 0.3497-0.0565 0.4963-0.1696s0.2409-0.2576 0.2827-0.4335l1.1561-4.6242c0.201-0.8042 0.3016-1.6167 0.3016-2.4377v-2.7267c0-0.3435-0.1173-0.64089-0.3519-0.89221-0.2345-0.25131-0.5194-0.37697-0.8545-0.37697-0.335 0-0.6199 0.11728-0.8544 0.35184-0.2346 0.23456-0.3519 0.51934-0.3519 0.85444h-0.4021v-0.76648c0-0.4021-0.134-0.74347-0.4021-1.0241-0.268-0.28063-0.6031-0.42095-1.0052-0.42095-0.3854 0-0.7163 0.13822-0.9927 0.41467-0.2764 0.27644-0.4147 0.60734-0.4147 0.99268v0.80418h-0.4021v-1.1309c0-0.46074-0.1549-0.85656-0.4649-1.1875-0.3099-0.33089-0.6911-0.49634-1.1435-0.49634-0.444 0-0.823 0.15707-1.1372 0.47121-0.3141 0.31414-0.4712 0.69321-0.4712 1.1372v1.2063h-0.40207v-7.1624c0-0.46074-0.15498-0.85656-0.46493-1.1874-0.30995-0.3309-0.69111-0.49635-1.1435-0.49635zm0-1.6084c0.89635 0 1.6566 0.32461 2.2807 0.97384 0.6241 0.64922 0.9361 1.422 0.9361 2.3184v2.7644c0.1843-0.01676 0.3184-0.02514 0.4021-0.02514 0.8294 0 1.554 0.28901 2.1739 0.86703 0.3937-0.17592 0.8084-0.26387 1.244-0.26387 0.9466 0 1.7173 0.3644 2.3121 1.0932 0.2262-0.05864 0.4607-0.08796 0.7036-0.08796 0.7875 0 1.4535 0.28273 1.998 0.84818s0.8168 1.2419 0.8168 2.0294v2.7267c0 0.9717-0.1173 1.9142-0.3519 2.8273l-1.156 4.6241c-0.1341 0.5362-0.4189 0.9739-0.8545 1.3131-0.4356 0.3393-0.9298 0.509-1.4827 0.509h-9.0222c-0.50263 0-0.98222-0.1152-1.4388-0.3456s-0.83562-0.5424-1.1372-0.9361l-4.8252-6.4337c-0.42723-0.5696-0.64085-1.2146-0.64085-1.9351 0-0.8796 0.31205-1.6356 0.93614-2.2681 0.62409-0.63244 1.3759-0.94868 2.2555-0.94868 0.59478 0 1.1393 0.1466 1.6335 0.43978v-6.8734c0-0.88798 0.31414-1.6461 0.94242-2.2744 0.62828-0.62828 1.3864-0.94242 2.2744-0.94242zm1.6084 17.692v-4.8252h-0.4021v4.8252zm3.2168 0v-4.8252h-0.4021v4.8252zm3.2168 0v-4.8252h-0.4021v4.8252z" fill="#efefef"/><path d="m8.0459 1.6084c-0.44399 0-0.82306 0.15707-1.1372 0.47122-0.31414 0.31414-0.47121 0.6932-0.47121 1.1372v11.259l-1.8974-2.5382c-0.34346-0.4524-0.79164-0.6786-1.3445-0.6786-0.43561 0-0.80839 0.1592-1.1183 0.4775-0.30995 0.3184-0.46493 0.6953-0.46493 1.1309 0 0.3602 0.1089 0.6828 0.32671 0.9676l4.8252 6.4336c0.31833 0.4272 0.74556 0.6408 1.2817 0.6408h9.0222c0.1843 0 0.3497-0.0565 0.4963-0.1696s0.2409-0.2576 0.2827-0.4335l1.1561-4.6242c0.201-0.8042 0.3016-1.6167 0.3016-2.4377v-2.7267c0-0.3435-0.1173-0.64089-0.3519-0.89221-0.2345-0.25131-0.5194-0.37697-0.8545-0.37697-0.335 0-0.6199 0.11728-0.8544 0.35184-0.2346 0.23456-0.3519 0.51934-0.3519 0.85444h-0.4021v-0.76648c0-0.4021-0.134-0.74347-0.4021-1.0241-0.268-0.28063-0.6031-0.42095-1.0052-0.42095-0.3854 0-0.7163 0.13822-0.9927 0.41467-0.2764 0.27644-0.4147 0.60734-0.4147 0.99268v0.80418h-0.4021v-1.1309c0-0.46074-0.1549-0.85656-0.4649-1.1875-0.3099-0.33089-0.6911-0.49634-1.1435-0.49634-0.444 0-0.823 0.15707-1.1372 0.47121-0.3141 0.31414-0.4712 0.69321-0.4712 1.1372v1.2063h-0.40207v-7.1624c0-0.46074-0.15498-0.85656-0.46493-1.1874-0.30995-0.3309-0.69111-0.49635-1.1435-0.49635zm1.6084 11.259v4.8252h-0.4021v-4.8252zm3.2168 0v4.8252h-0.4021v-4.8252zm3.2168 0v4.8252h-0.4021v-4.8252z" clip-rule="evenodd" fill="#090909" fill-rule="evenodd"/></g></svg>