<svg width="985" height="393" viewBox="0 0 985 393" fill="none" xmlns="http://www.w3.org/2000/svg">
<rect x="1" y="1" width="983" height="391" rx="68" fill="#0B0C0C" stroke="#1A1C1F" stroke-width="2"/>
<rect x="72" y="245" width="146" height="90" fill="#171919"/>
<rect x="220" y="247" width="167" height="90" fill="#171919"/>
<path d="M103.349 94.1811V89.3636H126.047V94.1811H117.586V117H111.81V94.1811H103.349ZM135.805 105.017V117H130.057V89.3636H135.643V99.9297H135.886C136.354 98.7062 137.11 97.7481 138.153 97.0554C139.197 96.3537 140.506 96.0028 142.08 96.0028C143.52 96.0028 144.775 96.3177 145.845 96.9474C146.925 97.5682 147.761 98.4633 148.355 99.6328C148.958 100.793 149.255 102.183 149.246 103.803V117H143.497V104.828C143.506 103.551 143.182 102.557 142.526 101.846C141.878 101.135 140.969 100.78 139.8 100.78C139.017 100.78 138.324 100.946 137.722 101.279C137.128 101.612 136.66 102.098 136.318 102.737C135.985 103.366 135.814 104.126 135.805 105.017ZM154.15 117V96.2727H159.898V117H154.15ZM157.038 93.6009C156.183 93.6009 155.45 93.3175 154.838 92.7507C154.235 92.175 153.934 91.4867 153.934 90.6861C153.934 89.8944 154.235 89.2152 154.838 88.6484C155.45 88.0727 156.183 87.7848 157.038 87.7848C157.892 87.7848 158.621 88.0727 159.224 88.6484C159.835 89.2152 160.141 89.8944 160.141 90.6861C160.141 91.4867 159.835 92.175 159.224 92.7507C158.621 93.3175 157.892 93.6009 157.038 93.6009ZM182.129 102.183L176.866 102.507C176.776 102.057 176.583 101.652 176.286 101.293C175.989 100.924 175.598 100.631 175.112 100.415C174.635 100.191 174.064 100.078 173.398 100.078C172.508 100.078 171.756 100.267 171.145 100.645C170.533 101.014 170.227 101.509 170.227 102.129C170.227 102.624 170.425 103.042 170.821 103.384C171.217 103.726 171.896 104 172.858 104.207L176.61 104.963C178.625 105.377 180.127 106.043 181.117 106.96C182.107 107.878 182.601 109.083 182.601 110.577C182.601 111.935 182.201 113.127 181.4 114.153C180.609 115.178 179.52 115.979 178.135 116.555C176.758 117.121 175.17 117.405 173.371 117.405C170.627 117.405 168.441 116.834 166.813 115.691C165.194 114.54 164.245 112.974 163.966 110.995L169.62 110.698C169.791 111.535 170.205 112.174 170.861 112.614C171.518 113.046 172.359 113.262 173.385 113.262C174.392 113.262 175.202 113.069 175.814 112.682C176.434 112.286 176.749 111.778 176.758 111.157C176.749 110.635 176.529 110.208 176.097 109.875C175.665 109.533 174.999 109.272 174.1 109.092L170.51 108.377C168.486 107.972 166.979 107.271 165.99 106.272C165.009 105.273 164.519 104 164.519 102.453C164.519 101.122 164.879 99.9747 165.598 99.0121C166.327 98.0495 167.348 97.3073 168.662 96.7855C169.984 96.2637 171.531 96.0028 173.304 96.0028C175.922 96.0028 177.982 96.5561 179.484 97.6626C180.995 98.7692 181.877 100.276 182.129 102.183Z" fill="white"/>
<path d="M253.294 117V96.2727H259.043V117H253.294ZM256.182 93.6009C255.327 93.6009 254.594 93.3175 253.982 92.7507C253.379 92.175 253.078 91.4867 253.078 90.6861C253.078 89.8944 253.379 89.2152 253.982 88.6484C254.594 88.0727 255.327 87.7848 256.182 87.7848C257.036 87.7848 257.765 88.0727 258.368 88.6484C258.98 89.2152 259.286 89.8944 259.286 90.6861C259.286 91.4867 258.98 92.175 258.368 92.7507C257.765 93.3175 257.036 93.6009 256.182 93.6009ZM281.273 102.183L276.011 102.507C275.921 102.057 275.727 101.652 275.43 101.293C275.133 100.924 274.742 100.631 274.256 100.415C273.779 100.191 273.208 100.078 272.542 100.078C271.652 100.078 270.901 100.267 270.289 100.645C269.677 101.014 269.371 101.509 269.371 102.129C269.371 102.624 269.569 103.042 269.965 103.384C270.361 103.726 271.04 104 272.003 104.207L275.754 104.963C277.769 105.377 279.272 106.043 280.261 106.96C281.251 107.878 281.746 109.083 281.746 110.577C281.746 111.935 281.345 113.127 280.545 114.153C279.753 115.178 278.664 115.979 277.279 116.555C275.903 117.121 274.315 117.405 272.515 117.405C269.772 117.405 267.586 116.834 265.957 115.691C264.338 114.54 263.389 112.974 263.11 110.995L268.764 110.698C268.935 111.535 269.349 112.174 270.006 112.614C270.662 113.046 271.503 113.262 272.529 113.262C273.537 113.262 274.346 113.069 274.958 112.682C275.579 112.286 275.894 111.778 275.903 111.157C275.894 110.635 275.673 110.208 275.241 109.875C274.81 109.533 274.144 109.272 273.244 109.092L269.655 108.377C267.631 107.972 266.124 107.271 265.134 106.272C264.153 105.273 263.663 104 263.663 102.453C263.663 101.122 264.023 99.9747 264.743 99.0121C265.471 98.0495 266.493 97.3073 267.806 96.7855C269.128 96.2637 270.676 96.0028 272.448 96.0028C275.066 96.0028 277.126 96.5561 278.628 97.6626C280.14 98.7692 281.021 100.276 281.273 102.183Z" fill="white"/>
<path d="M111.014 210.486C109.701 210.486 108.509 210.238 107.438 209.744C106.368 209.24 105.518 208.516 104.888 207.571C104.258 206.617 103.943 205.466 103.943 204.116C103.943 202.929 104.177 201.966 104.645 201.229C105.113 200.482 105.738 199.897 106.521 199.474C107.303 199.052 108.167 198.737 109.112 198.53C110.065 198.314 111.023 198.143 111.986 198.017C113.245 197.855 114.266 197.734 115.049 197.653C115.841 197.563 116.416 197.414 116.776 197.207C117.145 197 117.33 196.641 117.33 196.128V196.02C117.33 194.688 116.965 193.654 116.237 192.916C115.517 192.179 114.424 191.81 112.957 191.81C111.437 191.81 110.245 192.143 109.381 192.808C108.518 193.474 107.911 194.185 107.56 194.94L104.537 193.861C105.077 192.601 105.796 191.621 106.696 190.919C107.605 190.208 108.594 189.714 109.665 189.435C110.744 189.147 111.806 189.003 112.849 189.003C113.515 189.003 114.28 189.084 115.143 189.246C116.016 189.399 116.857 189.718 117.667 190.204C118.486 190.69 119.165 191.423 119.705 192.403C120.244 193.384 120.514 194.697 120.514 196.344V210H117.33V207.193H117.168C116.952 207.643 116.592 208.124 116.088 208.637C115.584 209.15 114.914 209.586 114.077 209.946C113.241 210.306 112.22 210.486 111.014 210.486ZM111.5 207.625C112.759 207.625 113.821 207.378 114.685 206.883C115.557 206.388 116.214 205.749 116.655 204.967C117.105 204.184 117.33 203.361 117.33 202.497V199.582C117.195 199.744 116.898 199.893 116.439 200.028C115.989 200.154 115.467 200.266 114.874 200.365C114.289 200.455 113.718 200.536 113.16 200.608C112.611 200.671 112.166 200.725 111.824 200.77C110.996 200.878 110.223 201.053 109.503 201.296C108.792 201.53 108.216 201.885 107.776 202.362C107.344 202.83 107.128 203.469 107.128 204.278C107.128 205.385 107.537 206.222 108.356 206.788C109.183 207.346 110.232 207.625 111.5 207.625Z" fill="white"/>
<path d="M270.864 188.273L263.199 209H259.96L252.295 188.273H255.75L261.472 204.79H261.688L267.409 188.273H270.864ZM284.535 209.432C282.538 209.432 280.815 208.991 279.367 208.109C277.928 207.219 276.817 205.977 276.034 204.385C275.26 202.784 274.873 200.921 274.873 198.798C274.873 196.675 275.26 194.804 276.034 193.185C276.817 191.556 277.905 190.288 279.299 189.379C280.703 188.462 282.34 188.003 284.211 188.003C285.291 188.003 286.357 188.183 287.41 188.543C288.462 188.902 289.42 189.487 290.284 190.297C291.147 191.098 291.836 192.159 292.348 193.482C292.861 194.804 293.118 196.432 293.118 198.366V199.716H277.14V196.963H289.879C289.879 195.794 289.645 194.75 289.177 193.832C288.719 192.915 288.062 192.191 287.207 191.66C286.362 191.129 285.363 190.864 284.211 190.864C282.943 190.864 281.845 191.179 280.919 191.808C280.001 192.429 279.295 193.239 278.8 194.237C278.305 195.236 278.058 196.306 278.058 197.449V199.284C278.058 200.849 278.328 202.176 278.868 203.265C279.416 204.344 280.177 205.168 281.148 205.734C282.12 206.292 283.249 206.571 284.535 206.571C285.372 206.571 286.128 206.454 286.802 206.22C287.486 205.977 288.075 205.617 288.57 205.141C289.065 204.655 289.447 204.052 289.717 203.332L292.794 204.196C292.47 205.24 291.926 206.157 291.161 206.949C290.396 207.732 289.452 208.343 288.327 208.784C287.203 209.216 285.939 209.432 284.535 209.432ZM299.482 209V188.273H302.559V191.403H302.775C303.153 190.378 303.836 189.546 304.826 188.907C305.815 188.268 306.931 187.949 308.172 187.949C308.406 187.949 308.699 187.953 309.05 187.962C309.4 187.971 309.666 187.985 309.846 188.003V191.241C309.738 191.214 309.49 191.174 309.104 191.12C308.726 191.057 308.325 191.026 307.903 191.026C306.895 191.026 305.995 191.237 305.204 191.66C304.421 192.074 303.8 192.649 303.341 193.387C302.892 194.116 302.667 194.948 302.667 195.884V209H299.482ZM317.823 216.773C317.283 216.773 316.802 216.728 316.379 216.638C315.956 216.557 315.664 216.476 315.502 216.395L316.311 213.588C317.085 213.786 317.769 213.858 318.363 213.804C318.956 213.75 319.483 213.485 319.941 213.008C320.409 212.54 320.837 211.78 321.223 210.727L321.817 209.108L314.152 188.273H317.607L323.328 204.79H323.544L329.266 188.273H332.721L323.922 212.023C323.526 213.093 323.036 213.979 322.451 214.681C321.867 215.392 321.187 215.918 320.414 216.26C319.649 216.602 318.785 216.773 317.823 216.773Z" fill="white"/>
<path d="M113.335 304.432C111.392 304.432 109.719 303.973 108.315 303.055C106.912 302.138 105.832 300.874 105.077 299.263C104.321 297.653 103.943 295.813 103.943 293.744C103.943 291.639 104.33 289.781 105.104 288.171C105.886 286.552 106.975 285.288 108.369 284.379C109.773 283.462 111.41 283.003 113.281 283.003C114.739 283.003 116.052 283.273 117.222 283.812C118.391 284.352 119.349 285.108 120.096 286.08C120.843 287.051 121.306 288.185 121.486 289.48H118.301C118.058 288.536 117.518 287.699 116.682 286.97C115.854 286.232 114.739 285.864 113.335 285.864C112.094 285.864 111.005 286.187 110.07 286.835C109.143 287.474 108.419 288.378 107.897 289.548C107.384 290.708 107.128 292.071 107.128 293.636C107.128 295.238 107.38 296.632 107.884 297.82C108.396 299.007 109.116 299.929 110.043 300.586C110.978 301.243 112.076 301.571 113.335 301.571C114.163 301.571 114.914 301.427 115.589 301.139C116.263 300.851 116.835 300.438 117.303 299.898C117.77 299.358 118.103 298.71 118.301 297.955H121.486C121.306 299.178 120.861 300.28 120.15 301.261C119.448 302.232 118.517 303.006 117.357 303.582C116.205 304.148 114.865 304.432 113.335 304.432ZM136.082 304.432C134.211 304.432 132.569 303.987 131.156 303.096C129.753 302.205 128.655 300.959 127.864 299.358C127.081 297.757 126.69 295.885 126.69 293.744C126.69 291.585 127.081 289.701 127.864 288.09C128.655 286.48 129.753 285.229 131.156 284.339C132.569 283.448 134.211 283.003 136.082 283.003C137.953 283.003 139.59 283.448 140.994 284.339C142.406 285.229 143.504 286.48 144.286 288.09C145.078 289.701 145.474 291.585 145.474 293.744C145.474 295.885 145.078 297.757 144.286 299.358C143.504 300.959 142.406 302.205 140.994 303.096C139.59 303.987 137.953 304.432 136.082 304.432ZM136.082 301.571C137.503 301.571 138.673 301.207 139.59 300.478C140.508 299.749 141.187 298.791 141.628 297.604C142.069 296.416 142.289 295.13 142.289 293.744C142.289 292.359 142.069 291.068 141.628 289.871C141.187 288.675 140.508 287.708 139.59 286.97C138.673 286.232 137.503 285.864 136.082 285.864C134.66 285.864 133.491 286.232 132.573 286.97C131.656 287.708 130.976 288.675 130.536 289.871C130.095 291.068 129.874 292.359 129.874 293.744C129.874 295.13 130.095 296.416 130.536 297.604C130.976 298.791 131.656 299.749 132.573 300.478C133.491 301.207 134.66 301.571 136.082 301.571ZM160.276 304.432C158.404 304.432 156.763 303.987 155.35 303.096C153.947 302.205 152.849 300.959 152.058 299.358C151.275 297.757 150.884 295.885 150.884 293.744C150.884 291.585 151.275 289.701 152.058 288.09C152.849 286.48 153.947 285.229 155.35 284.339C156.763 283.448 158.404 283.003 160.276 283.003C162.147 283.003 163.784 283.448 165.188 284.339C166.6 285.229 167.697 286.48 168.48 288.09C169.272 289.701 169.668 291.585 169.668 293.744C169.668 295.885 169.272 297.757 168.48 299.358C167.697 300.959 166.6 302.205 165.188 303.096C163.784 303.987 162.147 304.432 160.276 304.432ZM160.276 301.571C161.697 301.571 162.867 301.207 163.784 300.478C164.702 299.749 165.381 298.791 165.822 297.604C166.263 296.416 166.483 295.13 166.483 293.744C166.483 292.359 166.263 291.068 165.822 289.871C165.381 288.675 164.702 287.708 163.784 286.97C162.867 286.232 161.697 285.864 160.276 285.864C158.854 285.864 157.685 286.232 156.767 286.97C155.849 287.708 155.17 288.675 154.729 289.871C154.289 291.068 154.068 292.359 154.068 293.744C154.068 295.13 154.289 296.416 154.729 297.604C155.17 298.791 155.849 299.749 156.767 300.478C157.685 301.207 158.854 301.571 160.276 301.571ZM179.234 276.364V304H176.049V276.364H179.234Z" fill="white"/>
<rect x="70" y="56" width="2" height="281" fill="#D9D9D9"/>
<rect x="387" y="56" width="2" height="281" fill="#D9D9D9"/>
<rect x="70" y="58" width="2" height="319" transform="rotate(-90 70 58)" fill="#D9D9D9"/>
<rect x="391" y="335" width="2" height="319" transform="rotate(90 391 335)" fill="#D9D9D9"/>
<rect x="70" y="150" width="2" height="319" transform="rotate(-90 70 150)" fill="#D9D9D9"/>
<rect x="220" y="337" width="1.99998" height="281" transform="rotate(180 220 337)" fill="#D9D9D9"/>
<rect x="389" y="243" width="2" height="319" transform="rotate(90 389 243)" fill="#D9D9D9"/>
<rect x="220" y="245" width="167" height="90" fill="#171919" fill-opacity="0.11"/>
<path d="M262.929 283.273V285.972H252.188V283.273H262.929ZM255.318 278.307H258.503V298.062C258.503 298.962 258.633 299.637 258.894 300.087C259.164 300.527 259.506 300.824 259.92 300.977C260.343 301.121 260.788 301.193 261.256 301.193C261.607 301.193 261.894 301.175 262.119 301.139C262.344 301.094 262.524 301.058 262.659 301.031L263.307 303.892C263.091 303.973 262.79 304.054 262.403 304.135C262.016 304.225 261.526 304.27 260.932 304.27C260.032 304.27 259.151 304.076 258.287 303.69C257.432 303.303 256.722 302.714 256.155 301.922C255.597 301.13 255.318 300.132 255.318 298.926V278.307ZM275.339 304.486C274.025 304.486 272.833 304.238 271.763 303.744C270.692 303.24 269.842 302.516 269.212 301.571C268.583 300.617 268.268 299.466 268.268 298.116C268.268 296.929 268.502 295.966 268.97 295.229C269.437 294.482 270.063 293.897 270.845 293.474C271.628 293.052 272.492 292.737 273.436 292.53C274.39 292.314 275.348 292.143 276.31 292.017C277.57 291.855 278.591 291.734 279.374 291.653C280.165 291.563 280.741 291.414 281.101 291.207C281.47 291 281.654 290.641 281.654 290.128V290.02C281.654 288.688 281.29 287.654 280.561 286.916C279.841 286.179 278.748 285.81 277.282 285.81C275.762 285.81 274.57 286.143 273.706 286.808C272.842 287.474 272.235 288.185 271.884 288.94L268.862 287.861C269.401 286.601 270.121 285.621 271.021 284.919C271.929 284.208 272.919 283.714 273.989 283.435C275.069 283.147 276.131 283.003 277.174 283.003C277.84 283.003 278.605 283.084 279.468 283.246C280.341 283.399 281.182 283.718 281.992 284.204C282.81 284.69 283.489 285.423 284.029 286.403C284.569 287.384 284.839 288.697 284.839 290.344V304H281.654V301.193H281.492C281.276 301.643 280.917 302.124 280.413 302.637C279.909 303.15 279.239 303.586 278.402 303.946C277.565 304.306 276.544 304.486 275.339 304.486ZM275.825 301.625C277.084 301.625 278.146 301.378 279.009 300.883C279.882 300.388 280.539 299.749 280.98 298.967C281.429 298.184 281.654 297.361 281.654 296.497V293.582C281.519 293.744 281.222 293.893 280.764 294.028C280.314 294.154 279.792 294.266 279.198 294.365C278.614 294.455 278.042 294.536 277.484 294.608C276.936 294.671 276.49 294.725 276.149 294.77C275.321 294.878 274.547 295.053 273.828 295.296C273.117 295.53 272.541 295.885 272.1 296.362C271.668 296.83 271.453 297.469 271.453 298.278C271.453 299.385 271.862 300.222 272.681 300.788C273.508 301.346 274.556 301.625 275.825 301.625ZM292.603 304V276.364H295.788V286.565H296.058C296.292 286.205 296.616 285.747 297.03 285.189C297.452 284.622 298.055 284.118 298.838 283.678C299.629 283.228 300.7 283.003 302.049 283.003C303.795 283.003 305.333 283.439 306.664 284.312C307.996 285.184 309.035 286.421 309.782 288.023C310.528 289.624 310.902 291.513 310.902 293.69C310.902 295.885 310.528 297.788 309.782 299.398C309.035 301 308 302.241 306.678 303.123C305.356 303.996 303.831 304.432 302.103 304.432C300.772 304.432 299.706 304.211 298.905 303.771C298.105 303.321 297.488 302.812 297.057 302.246C296.625 301.67 296.292 301.193 296.058 300.815H295.68V304H292.603ZM295.734 293.636C295.734 295.202 295.963 296.583 296.422 297.779C296.881 298.967 297.551 299.898 298.433 300.572C299.315 301.238 300.394 301.571 301.672 301.571C303.003 301.571 304.114 301.22 305.005 300.518C305.904 299.808 306.579 298.854 307.029 297.658C307.488 296.452 307.717 295.112 307.717 293.636C307.717 292.179 307.492 290.866 307.042 289.696C306.601 288.518 305.931 287.586 305.032 286.903C304.141 286.21 303.021 285.864 301.672 285.864C300.376 285.864 299.288 286.192 298.406 286.849C297.524 287.496 296.859 288.405 296.409 289.575C295.959 290.735 295.734 292.089 295.734 293.636ZM320.478 276.364V304H317.293V276.364H320.478ZM336.521 304.432C334.524 304.432 332.801 303.991 331.353 303.109C329.913 302.219 328.802 300.977 328.02 299.385C327.246 297.784 326.859 295.921 326.859 293.798C326.859 291.675 327.246 289.804 328.02 288.185C328.802 286.556 329.891 285.288 331.285 284.379C332.689 283.462 334.326 283.003 336.197 283.003C337.277 283.003 338.343 283.183 339.395 283.543C340.448 283.902 341.406 284.487 342.27 285.297C343.133 286.098 343.821 287.159 344.334 288.482C344.847 289.804 345.103 291.432 345.103 293.366V294.716H329.126V291.963H341.865C341.865 290.794 341.631 289.75 341.163 288.832C340.704 287.915 340.048 287.191 339.193 286.66C338.347 286.129 337.349 285.864 336.197 285.864C334.929 285.864 333.831 286.179 332.905 286.808C331.987 287.429 331.281 288.239 330.786 289.237C330.291 290.236 330.044 291.306 330.044 292.449V294.284C330.044 295.849 330.314 297.176 330.853 298.265C331.402 299.344 332.162 300.168 333.134 300.734C334.106 301.292 335.235 301.571 336.521 301.571C337.358 301.571 338.113 301.454 338.788 301.22C339.472 300.977 340.061 300.617 340.556 300.141C341.051 299.655 341.433 299.052 341.703 298.332L344.78 299.196C344.456 300.24 343.911 301.157 343.147 301.949C342.382 302.732 341.437 303.343 340.313 303.784C339.188 304.216 337.924 304.432 336.521 304.432ZM355.678 276.364L355.408 296.227H352.278L352.008 276.364H355.678ZM353.843 304.216C353.177 304.216 352.606 303.978 352.129 303.501C351.652 303.024 351.414 302.453 351.414 301.787C351.414 301.121 351.652 300.55 352.129 300.073C352.606 299.596 353.177 299.358 353.843 299.358C354.509 299.358 355.08 299.596 355.557 300.073C356.033 300.55 356.272 301.121 356.272 301.787C356.272 302.228 356.159 302.633 355.935 303.001C355.719 303.37 355.426 303.667 355.057 303.892C354.698 304.108 354.293 304.216 353.843 304.216Z" fill="white"/>
</svg>
