<svg width="2085" height="400" viewBox="0 0 2085 400" fill="none" xmlns="http://www.w3.org/2000/svg">
<g clip-path="url(#clip0_1_20)">
<rect x="0.5" width="2084" height="400" rx="200" fill="#2E3138"/>
<g clip-path="url(#clip1_1_20)">
<path fill-rule="evenodd" clip-rule="evenodd" d="M136.433 186.06C131.189 180.816 131.189 172.314 136.433 167.071L154.529 148.975C156.611 146.892 156.611 143.516 154.529 141.434C149.139 136.044 149.139 127.307 154.529 121.918L160.136 116.31C166.526 109.92 176.885 109.92 183.274 116.31C185.944 118.98 190.132 119.385 193.264 117.275L224.24 97.3673C229.569 93.7787 236.693 94.4673 241.236 99.0101L241.632 99.4064C246.052 103.826 246.836 110.714 243.458 115.972C235.71 128.036 230.402 131.677 224.295 145.513C222.299 150.036 221.841 153.829 225.184 157.471C232.429 165.365 232.761 177.524 225.184 185.1C217.732 192.553 205.648 192.553 198.195 185.1L196.785 183.69L174.091 204.728C168.847 209.972 160.344 209.972 155.1 204.728L136.433 186.06ZM229.848 210.918L250.948 189.818L269.6 171.165C276.061 164.705 276.892 158.538 275.47 152.968C274.903 150.742 274.498 148.467 274.265 146.159C273.191 135.496 275.846 124.79 281.78 115.866C287.713 106.942 296.557 100.351 306.806 97.2169C310.811 95.992 314.933 95.3246 319.061 95.2095C328.433 94.948 330.685 105.509 323.771 111.84C284.797 147.526 322.59 180.448 355.844 143.795C362.144 136.851 372.715 139.055 372.496 148.428C372.4 152.556 371.752 156.682 370.545 160.692C367.458 170.955 360.908 179.829 352.011 185.804C343.114 191.778 332.42 194.482 321.753 193.456C319.373 193.227 317.027 192.816 314.733 192.231C309.163 190.809 302.996 191.64 296.536 198.1L277.883 216.753L256.783 237.853C236.285 258.35 215.788 278.848 195.291 299.345C187.853 306.783 175.794 306.783 168.356 299.345C160.918 291.907 160.918 279.848 168.356 272.41C188.853 251.913 209.351 231.416 229.848 210.918ZM282.389 242.359C274.951 249.797 274.946 261.851 282.384 269.289C292.409 279.315 303.644 290.549 312.145 299.05C319.583 306.488 331.632 306.479 339.07 299.041C346.508 291.603 346.518 279.553 339.08 272.116C330.578 263.614 319.344 252.38 309.318 242.354C301.88 234.916 289.827 234.921 282.389 242.359Z" fill="url(#paint0_radial_1_20)"/>
</g>
<path d="M496.903 124.545H526.662L562.244 188.892H563.665L599.247 124.545H629.006L576.094 215.739V270H549.815V215.739L496.903 124.545ZM673.803 272.131C663.15 272.131 653.917 269.787 646.104 265.099C638.292 260.412 632.231 253.854 627.923 245.426C623.661 236.998 621.531 227.15 621.531 215.881C621.531 204.612 623.661 194.74 627.923 186.264C632.231 177.789 638.292 171.207 646.104 166.52C653.917 161.832 663.15 159.489 673.803 159.489C684.457 159.489 693.69 161.832 701.502 166.52C709.315 171.207 715.352 177.789 719.613 186.264C723.922 194.74 726.076 204.612 726.076 215.881C726.076 227.15 723.922 236.998 719.613 245.426C715.352 253.854 709.315 260.412 701.502 265.099C693.69 269.787 684.457 272.131 673.803 272.131ZM673.945 251.534C679.722 251.534 684.551 249.948 688.434 246.776C692.317 243.556 695.205 239.247 697.099 233.849C699.04 228.452 700.011 222.438 700.011 215.81C700.011 209.134 699.04 203.097 697.099 197.699C695.205 192.254 692.317 187.921 688.434 184.702C684.551 181.482 679.722 179.872 673.945 179.872C668.027 179.872 663.103 181.482 659.173 184.702C655.29 187.921 652.378 192.254 650.437 197.699C648.543 203.097 647.596 209.134 647.596 215.81C647.596 222.438 648.543 228.452 650.437 233.849C652.378 239.247 655.29 243.556 659.173 246.776C663.103 249.948 668.027 251.534 673.945 251.534ZM817.429 224.119V160.909H843.139V270H818.21V250.611H817.074C814.612 256.719 810.563 261.714 804.929 265.597C799.342 269.479 792.453 271.42 784.261 271.42C777.112 271.42 770.791 269.834 765.298 266.662C759.853 263.442 755.592 258.778 752.514 252.67C749.437 246.515 747.898 239.081 747.898 230.369V160.909H773.608V226.392C773.608 233.305 775.502 238.797 779.29 242.869C783.078 246.941 788.049 248.977 794.205 248.977C797.992 248.977 801.662 248.054 805.213 246.207C808.764 244.361 811.676 241.615 813.949 237.969C816.269 234.276 817.429 229.659 817.429 224.119ZM869.577 270V160.909H894.506V179.091H895.643C897.631 172.794 901.04 167.94 905.87 164.531C910.747 161.075 916.31 159.347 922.56 159.347C923.981 159.347 925.567 159.418 927.319 159.56C929.118 159.654 930.61 159.82 931.793 160.057V183.707C930.704 183.329 928.976 182.997 926.609 182.713C924.289 182.382 922.04 182.216 919.862 182.216C915.174 182.216 910.96 183.234 907.219 185.27C903.526 187.259 900.614 190.028 898.484 193.58C896.353 197.131 895.288 201.226 895.288 205.866V270H869.577ZM1029.06 164.531C1028.4 158.329 1025.6 153.499 1020.68 150.043C1015.8 146.586 1009.46 144.858 1001.64 144.858C996.152 144.858 991.441 145.687 987.511 147.344C983.581 149.001 980.574 151.25 978.491 154.091C976.407 156.932 975.342 160.175 975.295 163.821C975.295 166.851 975.981 169.479 977.354 171.705C978.775 173.93 980.692 175.824 983.107 177.386C985.522 178.902 988.197 180.18 991.133 181.222C994.068 182.263 997.028 183.139 1000.01 183.849L1013.65 187.259C1019.14 188.537 1024.42 190.265 1029.49 192.443C1034.6 194.621 1039.17 197.367 1043.19 200.682C1047.26 203.996 1050.48 207.997 1052.85 212.685C1055.22 217.372 1056.4 222.865 1056.4 229.162C1056.4 237.685 1054.22 245.189 1049.87 251.676C1045.51 258.116 1039.22 263.158 1030.98 266.804C1022.79 270.402 1012.87 272.202 1001.22 272.202C989.902 272.202 980.077 270.45 971.744 266.946C963.458 263.442 956.971 258.329 952.283 251.605C947.643 244.882 945.134 236.69 944.755 227.031H970.678C971.057 232.098 972.62 236.312 975.366 239.673C978.112 243.035 981.687 245.545 986.09 247.202C990.541 248.859 995.513 249.688 1001 249.688C1006.73 249.688 1011.75 248.835 1016.06 247.131C1020.42 245.379 1023.83 242.964 1026.29 239.886C1028.75 236.761 1030.01 233.116 1030.05 228.949C1030.01 225.161 1028.89 222.036 1026.72 219.574C1024.54 217.064 1021.48 214.981 1017.55 213.324C1013.67 211.619 1009.13 210.104 1003.92 208.778L987.369 204.517C975.389 201.439 965.92 196.776 958.96 190.526C952.047 184.228 948.59 175.871 948.59 165.455C948.59 156.884 950.91 149.38 955.55 142.94C960.238 136.501 966.606 131.506 974.656 127.955C982.705 124.356 991.819 122.557 1002 122.557C1012.32 122.557 1021.36 124.356 1029.13 127.955C1036.94 131.506 1043.07 136.454 1047.52 142.798C1051.98 149.096 1054.27 156.34 1054.41 164.531H1029.06ZM1078.76 270V160.909H1104.47V270H1078.76ZM1091.68 145.426C1087.61 145.426 1084.11 144.077 1081.17 141.378C1078.24 138.632 1076.77 135.341 1076.77 131.506C1076.77 127.623 1078.24 124.332 1081.17 121.634C1084.11 118.887 1087.61 117.514 1091.68 117.514C1095.8 117.514 1099.31 118.887 1102.19 121.634C1105.13 124.332 1106.6 127.623 1106.6 131.506C1106.6 135.341 1105.13 138.632 1102.19 141.378C1099.31 144.077 1095.8 145.426 1091.68 145.426ZM1185.38 160.909V180.795H1122.67V160.909H1185.38ZM1138.15 134.773H1163.86V237.188C1163.86 240.644 1164.38 243.295 1165.42 245.142C1166.51 246.941 1167.93 248.172 1169.68 248.835C1171.44 249.498 1173.38 249.83 1175.51 249.83C1177.12 249.83 1178.59 249.711 1179.91 249.474C1181.28 249.238 1182.33 249.025 1183.04 248.835L1187.37 268.935C1186 269.408 1184.03 269.929 1181.47 270.497C1178.96 271.065 1175.89 271.397 1172.24 271.491C1165.8 271.681 1160 270.71 1154.84 268.58C1149.68 266.402 1145.58 263.04 1142.55 258.494C1139.57 253.949 1138.1 248.267 1138.15 241.449V134.773ZM1254.01 272.131C1243.07 272.131 1233.62 269.858 1225.67 265.312C1217.76 260.72 1211.68 254.233 1207.41 245.852C1203.15 237.424 1201.02 227.505 1201.02 216.094C1201.02 204.872 1203.15 195.024 1207.41 186.548C1211.72 178.026 1217.74 171.397 1225.45 166.662C1233.17 161.88 1242.24 159.489 1252.66 159.489C1259.38 159.489 1265.72 160.578 1271.69 162.756C1277.7 164.886 1283.01 168.201 1287.6 172.699C1292.24 177.197 1295.89 182.926 1298.54 189.886C1301.19 196.799 1302.51 205.038 1302.51 214.602V222.486H1213.1V205.156H1277.87C1277.82 200.232 1276.76 195.852 1274.67 192.017C1272.59 188.134 1269.68 185.08 1265.94 182.855C1262.24 180.63 1257.94 179.517 1253.01 179.517C1247.76 179.517 1243.14 180.795 1239.16 183.352C1235.18 185.862 1232.08 189.176 1229.86 193.295C1227.68 197.367 1226.57 201.842 1226.52 206.719V221.847C1226.52 228.191 1227.68 233.636 1230 238.182C1232.32 242.68 1235.56 246.136 1239.73 248.551C1243.9 250.919 1248.77 252.102 1254.36 252.102C1258.1 252.102 1261.49 251.581 1264.52 250.54C1267.55 249.451 1270.18 247.865 1272.4 245.781C1274.63 243.698 1276.31 241.117 1277.44 238.04L1301.45 240.739C1299.93 247.083 1297.05 252.623 1292.78 257.358C1288.57 262.045 1283.17 265.691 1276.59 268.295C1270.01 270.852 1262.48 272.131 1254.01 272.131ZM1372.56 272.131C1361.62 272.131 1352.18 269.858 1344.22 265.312C1336.32 260.72 1330.23 254.233 1325.97 245.852C1321.71 237.424 1319.58 227.505 1319.58 216.094C1319.58 204.872 1321.71 195.024 1325.97 186.548C1330.28 178.026 1336.29 171.397 1344.01 166.662C1351.73 161.88 1360.79 159.489 1371.21 159.489C1377.93 159.489 1384.28 160.578 1390.25 162.756C1396.26 164.886 1401.56 168.201 1406.15 172.699C1410.79 177.197 1414.44 182.926 1417.09 189.886C1419.74 196.799 1421.07 205.038 1421.07 214.602V222.486H1331.65V205.156H1396.42C1396.38 200.232 1395.31 195.852 1393.23 192.017C1391.14 188.134 1388.23 185.08 1384.49 182.855C1380.8 180.63 1376.49 179.517 1371.57 179.517C1366.31 179.517 1361.69 180.795 1357.72 183.352C1353.74 185.862 1350.64 189.176 1348.41 193.295C1346.23 197.367 1345.12 201.842 1345.07 206.719V221.847C1345.07 228.191 1346.23 233.636 1348.55 238.182C1350.87 242.68 1354.12 246.136 1358.28 248.551C1362.45 250.919 1367.33 252.102 1372.92 252.102C1376.66 252.102 1380.04 251.581 1383.07 250.54C1386.1 249.451 1388.73 247.865 1390.96 245.781C1393.18 243.698 1394.86 241.117 1396 238.04L1420 240.739C1418.49 247.083 1415.6 252.623 1411.34 257.358C1407.12 262.045 1401.73 265.691 1395.15 268.295C1388.56 270.852 1381.04 272.131 1372.56 272.131ZM1572.61 164.531C1571.95 158.329 1569.16 153.499 1564.23 150.043C1559.36 146.586 1553.01 144.858 1545.2 144.858C1539.71 144.858 1535 145.687 1531.07 147.344C1527.14 149.001 1524.13 151.25 1522.05 154.091C1519.96 156.932 1518.9 160.175 1518.85 163.821C1518.85 166.851 1519.54 169.479 1520.91 171.705C1522.33 173.93 1524.25 175.824 1526.66 177.386C1529.08 178.902 1531.75 180.18 1534.69 181.222C1537.62 182.263 1540.58 183.139 1543.57 183.849L1557.2 187.259C1562.69 188.537 1567.97 190.265 1573.04 192.443C1578.15 194.621 1582.72 197.367 1586.75 200.682C1590.82 203.996 1594.04 207.997 1596.41 212.685C1598.77 217.372 1599.96 222.865 1599.96 229.162C1599.96 237.685 1597.78 245.189 1593.42 251.676C1589.07 258.116 1582.77 263.158 1574.53 266.804C1566.34 270.402 1556.42 272.202 1544.77 272.202C1533.46 272.202 1523.63 270.45 1515.3 266.946C1507.01 263.442 1500.53 258.329 1495.84 251.605C1491.2 244.882 1488.69 236.69 1488.31 227.031H1514.23C1514.61 232.098 1516.17 236.312 1518.92 239.673C1521.67 243.035 1525.24 245.545 1529.64 247.202C1534.1 248.859 1539.07 249.688 1544.56 249.688C1550.29 249.688 1555.31 248.835 1559.62 247.131C1563.97 245.379 1567.38 242.964 1569.84 239.886C1572.31 236.761 1573.56 233.116 1573.61 228.949C1573.56 225.161 1572.45 222.036 1570.27 219.574C1568.09 217.064 1565.04 214.981 1561.11 213.324C1557.23 211.619 1552.68 210.104 1547.47 208.778L1530.92 204.517C1518.94 201.439 1509.47 196.776 1502.51 190.526C1495.6 184.228 1492.14 175.871 1492.14 165.455C1492.14 156.884 1494.46 149.38 1499.11 142.94C1503.79 136.501 1510.16 131.506 1518.21 127.955C1526.26 124.356 1535.37 122.557 1545.55 122.557C1555.88 122.557 1564.92 124.356 1572.68 127.955C1580.5 131.506 1586.63 136.454 1591.08 142.798C1595.53 149.096 1597.83 156.34 1597.97 164.531H1572.61ZM1676.79 160.909V180.795H1614.07V160.909H1676.79ZM1629.56 134.773H1655.27V237.188C1655.27 240.644 1655.79 243.295 1656.83 245.142C1657.92 246.941 1659.34 248.172 1661.09 248.835C1662.84 249.498 1664.78 249.83 1666.91 249.83C1668.52 249.83 1669.99 249.711 1671.32 249.474C1672.69 249.238 1673.73 249.025 1674.44 248.835L1678.77 268.935C1677.4 269.408 1675.44 269.929 1672.88 270.497C1670.37 271.065 1667.29 271.397 1663.65 271.491C1657.21 271.681 1651.41 270.71 1646.25 268.58C1641.09 266.402 1636.99 263.04 1633.96 258.494C1630.98 253.949 1629.51 248.267 1629.56 241.449V134.773ZM1729.68 272.202C1722.77 272.202 1716.54 270.971 1711 268.509C1705.51 265.999 1701.15 262.306 1697.93 257.429C1694.76 252.552 1693.17 246.539 1693.17 239.389C1693.17 233.234 1694.31 228.144 1696.58 224.119C1698.86 220.095 1701.96 216.875 1705.89 214.46C1709.82 212.045 1714.24 210.223 1719.17 208.991C1724.14 207.713 1729.28 206.79 1734.58 206.222C1740.97 205.559 1746.16 204.967 1750.13 204.446C1754.11 203.878 1757 203.026 1758.8 201.889C1760.65 200.705 1761.57 198.883 1761.57 196.42V195.994C1761.57 190.644 1759.98 186.501 1756.81 183.565C1753.64 180.63 1749.07 179.162 1743.1 179.162C1736.81 179.162 1731.81 180.535 1728.12 183.281C1724.47 186.027 1722.01 189.271 1720.73 193.011L1696.73 189.602C1698.62 182.973 1701.74 177.434 1706.1 172.983C1710.46 168.485 1715.78 165.123 1722.08 162.898C1728.38 160.625 1735.34 159.489 1742.96 159.489C1748.22 159.489 1753.45 160.104 1758.66 161.335C1763.87 162.566 1768.62 164.602 1772.93 167.443C1777.24 170.237 1780.7 174.048 1783.3 178.878C1785.95 183.707 1787.28 189.744 1787.28 196.989V270H1762.56V255.014H1761.71C1760.15 258.045 1757.95 260.885 1755.11 263.537C1752.31 266.141 1748.79 268.248 1744.52 269.858C1740.31 271.42 1735.36 272.202 1729.68 272.202ZM1736.36 253.31C1741.52 253.31 1745.99 252.292 1749.78 250.256C1753.57 248.172 1756.48 245.426 1758.52 242.017C1760.6 238.608 1761.64 234.891 1761.64 230.866V218.011C1760.84 218.674 1759.46 219.29 1757.52 219.858C1755.63 220.426 1753.5 220.923 1751.13 221.349C1748.76 221.776 1746.42 222.154 1744.1 222.486C1741.78 222.817 1739.77 223.101 1738.06 223.338C1734.23 223.859 1730.79 224.711 1727.76 225.895C1724.73 227.079 1722.34 228.736 1720.59 230.866C1718.84 232.95 1717.96 235.649 1717.96 238.963C1717.96 243.698 1719.69 247.273 1723.15 249.688C1726.6 252.102 1731.01 253.31 1736.36 253.31ZM1868.39 160.909V180.795H1803.9V160.909H1868.39ZM1820.02 270V150.611C1820.02 143.272 1821.54 137.164 1824.57 132.287C1827.64 127.41 1831.76 123.764 1836.92 121.349C1842.09 118.935 1847.81 117.727 1854.11 117.727C1858.56 117.727 1862.52 118.082 1865.97 118.793C1869.43 119.503 1871.99 120.142 1873.64 120.71L1868.53 140.597C1867.44 140.265 1866.07 139.934 1864.41 139.602C1862.75 139.223 1860.91 139.034 1858.87 139.034C1854.09 139.034 1850.7 140.194 1848.71 142.514C1846.77 144.787 1845.8 148.054 1845.8 152.315V270H1820.02ZM1943.78 160.909V180.795H1879.29V160.909H1943.78ZM1895.41 270V150.611C1895.41 143.272 1896.93 137.164 1899.96 132.287C1903.04 127.41 1907.15 123.764 1912.32 121.349C1917.48 118.935 1923.21 117.727 1929.5 117.727C1933.95 117.727 1937.91 118.082 1941.36 118.793C1944.82 119.503 1947.38 120.142 1949.03 120.71L1943.92 140.597C1942.83 140.265 1941.46 139.934 1939.8 139.602C1938.14 139.223 1936.3 139.034 1934.26 139.034C1929.48 139.034 1926.09 140.194 1924.11 142.514C1922.16 144.787 1921.19 148.054 1921.19 152.315V270H1895.41Z" fill="url(#paint1_radial_1_20)"/>
</g>
<defs>
<radialGradient id="paint0_radial_1_20" cx="0" cy="0" r="1" gradientUnits="userSpaceOnUse" gradientTransform="translate(158.274 248.882) rotate(-33.2019) scale(241.216 230.391)">
<stop stop-color="#0068FF"/>
<stop offset="0.525" stop-color="#61B8FF"/>
<stop offset="0.88" stop-color="#7ED0FF"/>
</radialGradient>
<radialGradient id="paint1_radial_1_20" cx="0" cy="0" r="1" gradientUnits="userSpaceOnUse" gradientTransform="translate(478.51 270.393) rotate(-7.51799) scale(1485.76 244.948)">
<stop stop-color="#0068FF"/>
<stop offset="0.52" stop-color="#61B8FF"/>
<stop offset="0.88" stop-color="#7ED0FF"/>
</radialGradient>
<clipPath id="clip0_1_20">
<rect width="2084" height="400" fill="white" transform="translate(0.5)"/>
</clipPath>
<clipPath id="clip1_1_20">
<rect width="240" height="240" fill="white" transform="translate(132.5 80)"/>
</clipPath>
</defs>
</svg>
